<svg class="faux code" xmlns="http://www.w3.org/2000/svg" xmlns:xlink="http://www.w3.org/1999/xlink" width="525" height="320" viewBox="0 0 525 320">
  <rect x="0" y="0" width="525" height="320" fill="#ffffff" />
  <g class="code block" stroke-linecap="square" stroke-width="5">
    <g class="code line">
      <line x1="47.5" y1="50" x2="92.5" y2="50" stroke="#d73a49" />
      <line x1="97.5" y1="50" x2="107.5" y2="50" stroke="#6f42c1" />
      <line x1="112.5" y1="50" x2="112.5" y2="50" stroke="#24292e" />
      <line x1="117.5" y1="50" x2="117.5" y2="50" stroke="#24292e" />
      <line x1="122.5" y1="50" x2="122.5" y2="50" stroke="#24292e" />
      <line x1="132.5" y1="50" x2="132.5" y2="50" stroke="#24292e" />
      <line x1="142.5" y1="50" x2="142.5" y2="50" stroke="#24292e" />
      <line x1="152.5" y1="50" x2="152.5" y2="50" stroke="#005cc5" />
      <line x1="162.5" y1="50" x2="162.5" y2="50" stroke="#24292e" />
      <line x1="167.5" y1="50" x2="192.5" y2="50" stroke="#d73a49" />
      <line x1="202.5" y1="50" x2="202.5" y2="50" stroke="#24292e" />
      <line x1="212.5" y1="50" x2="217.5" y2="50" stroke="#005cc5" />
      <line x1="227.5" y1="50" x2="277.5" y2="50" stroke="#032f62" />
      <line x1="282.5" y1="50" x2="282.5" y2="50" stroke="#24292e" />
      <line x1="292.5" y1="50" x2="292.5" y2="50" stroke="#24292e" />
      <line x1="302.5" y1="50" x2="302.5" y2="50" stroke="#24292e" />
      <line x1="312.5" y1="50" x2="312.5" y2="50" stroke="#24292e" />
      <line x1="322.5" y1="50" x2="327.5" y2="50" stroke="#005cc5" />
      <line x1="332.5" y1="50" x2="332.5" y2="50" stroke="#24292e" />
      <line x1="342.5" y1="50" x2="342.5" y2="50" stroke="#24292e" />
      <line x1="347.5" y1="50" x2="347.5" y2="50" stroke="#24292e" />
      <line x1="357.5" y1="50" x2="357.5" y2="50" stroke="#24292e" />
    </g>
    <g class="code line">
      <line x1="47.5" y1="60" x2="92.5" y2="60" stroke="#d73a49" />
      <line x1="97.5" y1="60" x2="107.5" y2="60" stroke="#6f42c1" />
      <line x1="112.5" y1="60" x2="112.5" y2="60" stroke="#24292e" />
      <line x1="117.5" y1="60" x2="117.5" y2="60" stroke="#24292e" />
      <line x1="127.5" y1="60" x2="127.5" y2="60" stroke="#005cc5" />
      <line x1="137.5" y1="60" x2="142.5" y2="60" stroke="#005cc5" />
      <line x1="147.5" y1="60" x2="147.5" y2="60" stroke="#24292e" />
      <line x1="157.5" y1="60" x2="157.5" y2="60" stroke="#24292e" />
      <line x1="167.5" y1="60" x2="167.5" y2="60" stroke="#24292e" />
      <line x1="172.5" y1="60" x2="172.5" y2="60" stroke="#24292e" />
      <line x1="182.5" y1="60" x2="182.5" y2="60" stroke="#24292e" />
    </g>
    <g class="code line">
      <line x1="47.5" y1="80" x2="92.5" y2="80" stroke="#d73a49" />
      <line x1="97.5" y1="80" x2="107.5" y2="80" stroke="#6f42c1" />
      <line x1="112.5" y1="80" x2="112.5" y2="80" stroke="#24292e" />
      <line x1="117.5" y1="80" x2="117.5" y2="80" stroke="#24292e" />
      <line x1="122.5" y1="80" x2="122.5" y2="80" stroke="#24292e" />
      <line x1="127.5" y1="80" x2="127.5" y2="80" stroke="#24292e" />
      <line x1="132.5" y1="80" x2="132.5" y2="80" stroke="#24292e" />
      <line x1="137.5" y1="80" x2="137.5" y2="80" stroke="#24292e" />
      <line x1="142.5" y1="80" x2="142.5" y2="80" stroke="#24292e" />
      <line x1="152.5" y1="80" x2="152.5" y2="80" stroke="#24292e" />
      <line x1="162.5" y1="80" x2="162.5" y2="80" stroke="#24292e" />
      <line x1="167.5" y1="80" x2="167.5" y2="80" stroke="#24292e" />
      <line x1="177.5" y1="80" x2="177.5" y2="80" stroke="#24292e" />
      <line x1="182.5" y1="80" x2="182.5" y2="80" stroke="#24292e" />
      <line x1="192.5" y1="80" x2="202.5" y2="80" stroke="#24292e" />
      <line x1="207.5" y1="80" x2="207.5" y2="80" stroke="#24292e" />
      <line x1="212.5" y1="80" x2="232.5" y2="80" stroke="#6f42c1" />
      <line x1="237.5" y1="80" x2="237.5" y2="80" stroke="#24292e" />
      <line x1="242.5" y1="80" x2="257.5" y2="80" stroke="#005cc5" />
      <line x1="262.5" y1="80" x2="262.5" y2="80" stroke="#24292e" />
      <line x1="267.5" y1="80" x2="267.5" y2="80" stroke="#24292e" />
      <line x1="272.5" y1="80" x2="272.5" y2="80" stroke="#005cc5" />
      <line x1="277.5" y1="80" x2="277.5" y2="80" stroke="#24292e" />
      <line x1="282.5" y1="80" x2="282.5" y2="80" stroke="#005cc5" />
      <line x1="287.5" y1="80" x2="287.5" y2="80" stroke="#24292e" />
      <line x1="292.5" y1="80" x2="292.5" y2="80" stroke="#005cc5" />
      <line x1="297.5" y1="80" x2="297.5" y2="80" stroke="#24292e" />
      <line x1="302.5" y1="80" x2="302.5" y2="80" stroke="#24292e" />
      <line x1="307.5" y1="80" x2="307.5" y2="80" stroke="#24292e" />
    </g>
    <g class="code line">
      <line x1="47.5" y1="90" x2="92.5" y2="90" stroke="#d73a49" />
      <line x1="97.5" y1="90" x2="107.5" y2="90" stroke="#6f42c1" />
      <line x1="112.5" y1="90" x2="112.5" y2="90" stroke="#24292e" />
      <line x1="117.5" y1="90" x2="117.5" y2="90" stroke="#24292e" />
      <line x1="122.5" y1="90" x2="122.5" y2="90" stroke="#24292e" />
      <line x1="127.5" y1="90" x2="127.5" y2="90" stroke="#24292e" />
      <line x1="132.5" y1="90" x2="132.5" y2="90" stroke="#24292e" />
      <line x1="137.5" y1="90" x2="137.5" y2="90" stroke="#24292e" />
      <line x1="142.5" y1="90" x2="142.5" y2="90" stroke="#24292e" />
      <line x1="152.5" y1="90" x2="152.5" y2="90" stroke="#24292e" />
      <line x1="162.5" y1="90" x2="162.5" y2="90" stroke="#24292e" />
      <line x1="167.5" y1="90" x2="167.5" y2="90" stroke="#24292e" />
      <line x1="177.5" y1="90" x2="177.5" y2="90" stroke="#24292e" />
      <line x1="182.5" y1="90" x2="182.5" y2="90" stroke="#24292e" />
      <line x1="192.5" y1="90" x2="202.5" y2="90" stroke="#6f42c1" />
      <line x1="207.5" y1="90" x2="207.5" y2="90" stroke="#24292e" />
      <line x1="212.5" y1="90" x2="222.5" y2="90" stroke="#24292e" />
      <line x1="227.5" y1="90" x2="227.5" y2="90" stroke="#24292e" />
      <line x1="232.5" y1="90" x2="232.5" y2="90" stroke="#005cc5" />
      <line x1="237.5" y1="90" x2="237.5" y2="90" stroke="#24292e" />
      <line x1="242.5" y1="90" x2="242.5" y2="90" stroke="#005cc5" />
      <line x1="247.5" y1="90" x2="247.5" y2="90" stroke="#24292e" />
      <line x1="252.5" y1="90" x2="252.5" y2="90" stroke="#005cc5" />
      <line x1="257.5" y1="90" x2="257.5" y2="90" stroke="#24292e" />
      <line x1="262.5" y1="90" x2="262.5" y2="90" stroke="#24292e" />
      <line x1="267.5" y1="90" x2="267.5" y2="90" stroke="#24292e" />
    </g>
    <g class="code line">
      <line x1="47.5" y1="110" x2="92.5" y2="110" stroke="#d73a49" />
      <line x1="97.5" y1="110" x2="107.5" y2="110" stroke="#6f42c1" />
      <line x1="112.5" y1="110" x2="112.5" y2="110" stroke="#24292e" />
      <line x1="117.5" y1="110" x2="117.5" y2="110" stroke="#24292e" />
      <line x1="127.5" y1="110" x2="127.5" y2="110" stroke="#24292e" />
      <line x1="137.5" y1="110" x2="147.5" y2="110" stroke="#d73a49" />
      <line x1="157.5" y1="110" x2="172.5" y2="110" stroke="#24292e" />
      <line x1="182.5" y1="110" x2="182.5" y2="110" stroke="#005cc5" />
      <line x1="192.5" y1="110" x2="192.5" y2="110" stroke="#24292e" />
      <line x1="197.5" y1="110" x2="197.5" y2="110" stroke="#24292e" />
      <line x1="202.5" y1="110" x2="202.5" y2="110" stroke="#24292e" />
      <line x1="207.5" y1="110" x2="227.5" y2="110" stroke="#005cc5" />
      <line x1="232.5" y1="110" x2="232.5" y2="110" stroke="#24292e" />
      <line x1="237.5" y1="110" x2="252.5" y2="110" stroke="#6f42c1" />
      <line x1="257.5" y1="110" x2="257.5" y2="110" stroke="#24292e" />
      <line x1="262.5" y1="110" x2="302.5" y2="110" stroke="#24292e" />
      <line x1="307.5" y1="110" x2="307.5" y2="110" stroke="#24292e" />
      <line x1="312.5" y1="110" x2="312.5" y2="110" stroke="#24292e" />
      <line x1="322.5" y1="110" x2="322.5" y2="110" stroke="#24292e" />
      <line x1="327.5" y1="110" x2="327.5" y2="110" stroke="#24292e" />
      <line x1="337.5" y1="110" x2="337.5" y2="110" stroke="#24292e" />
    </g>
    <g class="code line">
      <line x1="47.5" y1="120" x2="92.5" y2="120" stroke="#d73a49" />
      <line x1="97.5" y1="120" x2="107.5" y2="120" stroke="#6f42c1" />
      <line x1="112.5" y1="120" x2="112.5" y2="120" stroke="#24292e" />
      <line x1="117.5" y1="120" x2="127.5" y2="120" stroke="#24292e" />
      <line x1="132.5" y1="120" x2="147.5" y2="120" stroke="#24292e" />
      <line x1="152.5" y1="120" x2="152.5" y2="120" stroke="#24292e" />
      <line x1="162.5" y1="120" x2="162.5" y2="120" stroke="#24292e" />
      <line x1="172.5" y1="120" x2="172.5" y2="120" stroke="#24292e" />
      <line x1="177.5" y1="120" x2="177.5" y2="120" stroke="#24292e" />
      <line x1="187.5" y1="120" x2="187.5" y2="120" stroke="#24292e" />
    </g>
    <g class="code line">
      <line x1="47.5" y1="140" x2="67.5" y2="140" stroke="#d73a49" />
      <line x1="72.5" y1="140" x2="72.5" y2="140" stroke="#24292e" />
      <line x1="82.5" y1="140" x2="82.5" y2="140" stroke="#005cc5" />
      <line x1="92.5" y1="140" x2="92.5" y2="140" stroke="#24292e" />
      <line x1="102.5" y1="140" x2="102.5" y2="140" stroke="#005cc5" />
      <line x1="107.5" y1="140" x2="107.5" y2="140" stroke="#24292e" />
      <line x1="117.5" y1="140" x2="117.5" y2="140" stroke="#005cc5" />
      <line x1="122.5" y1="140" x2="122.5" y2="140" stroke="#24292e" />
      <line x1="132.5" y1="140" x2="132.5" y2="140" stroke="#005cc5" />
      <line x1="137.5" y1="140" x2="137.5" y2="140" stroke="#24292e" />
      <line x1="147.5" y1="140" x2="147.5" y2="140" stroke="#005cc5" />
      <line x1="157.5" y1="140" x2="157.5" y2="140" stroke="#24292e" />
      <line x1="162.5" y1="140" x2="162.5" y2="140" stroke="#24292e" />
      <line x1="172.5" y1="140" x2="172.5" y2="140" stroke="#24292e" />
      <line x1="182.5" y1="140" x2="182.5" y2="140" stroke="#005cc5" />
      <line x1="192.5" y1="140" x2="192.5" y2="140" stroke="#24292e" />
      <line x1="197.5" y1="140" x2="197.5" y2="140" stroke="#24292e" />
      <line x1="202.5" y1="140" x2="202.5" y2="140" stroke="#005cc5" />
      <line x1="207.5" y1="140" x2="207.5" y2="140" stroke="#24292e" />
      <line x1="217.5" y1="140" x2="217.5" y2="140" stroke="#24292e" />
      <line x1="227.5" y1="140" x2="227.5" y2="140" stroke="#005cc5" />
      <line x1="237.5" y1="140" x2="237.5" y2="140" stroke="#24292e" />
      <line x1="242.5" y1="140" x2="242.5" y2="140" stroke="#24292e" />
      <line x1="247.5" y1="140" x2="247.5" y2="140" stroke="#005cc5" />
      <line x1="252.5" y1="140" x2="252.5" y2="140" stroke="#24292e" />
      <line x1="262.5" y1="140" x2="262.5" y2="140" stroke="#24292e" />
      <line x1="272.5" y1="140" x2="272.5" y2="140" stroke="#005cc5" />
      <line x1="282.5" y1="140" x2="282.5" y2="140" stroke="#24292e" />
      <line x1="287.5" y1="140" x2="312.5" y2="140" stroke="#d73a49" />
      <line x1="322.5" y1="140" x2="322.5" y2="140" stroke="#24292e" />
      <line x1="327.5" y1="140" x2="327.5" y2="140" stroke="#24292e" />
      <line x1="332.5" y1="140" x2="332.5" y2="140" stroke="#005cc5" />
      <line x1="342.5" y1="140" x2="347.5" y2="140" stroke="#005cc5" />
      <line x1="357.5" y1="140" x2="407.5" y2="140" stroke="#032f62" />
      <line x1="412.5" y1="140" x2="412.5" y2="140" stroke="#24292e" />
      <line x1="422.5" y1="140" x2="422.5" y2="140" stroke="#24292e" />
      <line x1="432.5" y1="140" x2="432.5" y2="140" stroke="#24292e" />
      <line x1="437.5" y1="140" x2="437.5" y2="140" stroke="#24292e" />
      <line x1="442.5" y1="140" x2="442.5" y2="140" stroke="#005cc5" />
      <line x1="452.5" y1="140" x2="452.5" y2="140" stroke="#24292e" />
      <line x1="462.5" y1="140" x2="467.5" y2="140" stroke="#005cc5" />
      <line x1="472.5" y1="140" x2="472.5" y2="140" stroke="#24292e" />
    </g>
    <g class="code line">
      <line x1="47.5" y1="150" x2="67.5" y2="150" stroke="#d73a49" />
      <line x1="72.5" y1="150" x2="72.5" y2="150" stroke="#24292e" />
      <line x1="82.5" y1="150" x2="82.5" y2="150" stroke="#24292e" />
      <line x1="87.5" y1="150" x2="87.5" y2="150" stroke="#24292e" />
      <line x1="97.5" y1="150" x2="97.5" y2="150" stroke="#24292e" />
      <line x1="102.5" y1="150" x2="102.5" y2="150" stroke="#24292e" />
      <line x1="112.5" y1="150" x2="112.5" y2="150" stroke="#24292e" />
      <line x1="122.5" y1="150" x2="122.5" y2="150" stroke="#005cc5" />
      <line x1="132.5" y1="150" x2="137.5" y2="150" stroke="#005cc5" />
      <line x1="147.5" y1="150" x2="147.5" y2="150" stroke="#24292e" />
      <line x1="157.5" y1="150" x2="157.5" y2="150" stroke="#005cc5" />
      <line x1="167.5" y1="150" x2="167.5" y2="150" stroke="#24292e" />
      <line x1="177.5" y1="150" x2="177.5" y2="150" stroke="#005cc5" />
      <line x1="182.5" y1="150" x2="182.5" y2="150" stroke="#24292e" />
      <line x1="192.5" y1="150" x2="192.5" y2="150" stroke="#005cc5" />
      <line x1="197.5" y1="150" x2="197.5" y2="150" stroke="#24292e" />
      <line x1="207.5" y1="150" x2="207.5" y2="150" stroke="#005cc5" />
      <line x1="212.5" y1="150" x2="212.5" y2="150" stroke="#24292e" />
      <line x1="222.5" y1="150" x2="222.5" y2="150" stroke="#005cc5" />
      <line x1="232.5" y1="150" x2="232.5" y2="150" stroke="#24292e" />
      <line x1="237.5" y1="150" x2="237.5" y2="150" stroke="#24292e" />
    </g>
    <g class="code line">
      <line x1="47.5" y1="170" x2="67.5" y2="170" stroke="#d73a49" />
      <line x1="72.5" y1="170" x2="72.5" y2="170" stroke="#24292e" />
      <line x1="82.5" y1="170" x2="82.5" y2="170" stroke="#005cc5" />
      <line x1="92.5" y1="170" x2="92.5" y2="170" stroke="#24292e" />
      <line x1="97.5" y1="170" x2="97.5" y2="170" stroke="#005cc5" />
      <line x1="102.5" y1="170" x2="102.5" y2="170" stroke="#24292e" />
      <line x1="107.5" y1="170" x2="107.5" y2="170" stroke="#005cc5" />
      <line x1="112.5" y1="170" x2="112.5" y2="170" stroke="#24292e" />
      <line x1="117.5" y1="170" x2="117.5" y2="170" stroke="#24292e" />
      <line x1="127.5" y1="170" x2="127.5" y2="170" stroke="#24292e" />
      <line x1="137.5" y1="170" x2="137.5" y2="170" stroke="#005cc5" />
      <line x1="147.5" y1="170" x2="147.5" y2="170" stroke="#24292e" />
      <line x1="152.5" y1="170" x2="152.5" y2="170" stroke="#24292e" />
      <line x1="157.5" y1="170" x2="157.5" y2="170" stroke="#005cc5" />
      <line x1="162.5" y1="170" x2="162.5" y2="170" stroke="#24292e" />
      <line x1="167.5" y1="170" x2="167.5" y2="170" stroke="#24292e" />
      <line x1="177.5" y1="170" x2="177.5" y2="170" stroke="#24292e" />
      <line x1="187.5" y1="170" x2="187.5" y2="170" stroke="#005cc5" />
      <line x1="197.5" y1="170" x2="197.5" y2="170" stroke="#24292e" />
      <line x1="202.5" y1="170" x2="202.5" y2="170" stroke="#24292e" />
      <line x1="207.5" y1="170" x2="207.5" y2="170" stroke="#005cc5" />
      <line x1="212.5" y1="170" x2="212.5" y2="170" stroke="#24292e" />
      <line x1="217.5" y1="170" x2="217.5" y2="170" stroke="#24292e" />
      <line x1="227.5" y1="170" x2="227.5" y2="170" stroke="#24292e" />
      <line x1="237.5" y1="170" x2="237.5" y2="170" stroke="#005cc5" />
      <line x1="247.5" y1="170" x2="247.5" y2="170" stroke="#24292e" />
      <line x1="252.5" y1="170" x2="277.5" y2="170" stroke="#d73a49" />
      <line x1="287.5" y1="170" x2="287.5" y2="170" stroke="#24292e" />
      <line x1="292.5" y1="170" x2="292.5" y2="170" stroke="#24292e" />
      <line x1="297.5" y1="170" x2="297.5" y2="170" stroke="#005cc5" />
      <line x1="302.5" y1="170" x2="302.5" y2="170" stroke="#24292e" />
      <line x1="312.5" y1="170" x2="317.5" y2="170" stroke="#005cc5" />
      <line x1="327.5" y1="170" x2="377.5" y2="170" stroke="#032f62" />
      <line x1="382.5" y1="170" x2="382.5" y2="170" stroke="#24292e" />
      <line x1="392.5" y1="170" x2="392.5" y2="170" stroke="#24292e" />
      <line x1="402.5" y1="170" x2="402.5" y2="170" stroke="#24292e" />
      <line x1="407.5" y1="170" x2="407.5" y2="170" stroke="#24292e" />
      <line x1="412.5" y1="170" x2="412.5" y2="170" stroke="#005cc5" />
      <line x1="417.5" y1="170" x2="417.5" y2="170" stroke="#24292e" />
      <line x1="427.5" y1="170" x2="427.5" y2="170" stroke="#24292e" />
      <line x1="437.5" y1="170" x2="442.5" y2="170" stroke="#005cc5" />
      <line x1="447.5" y1="170" x2="447.5" y2="170" stroke="#24292e" />
    </g>
    <g class="code line">
      <line x1="47.5" y1="180" x2="67.5" y2="180" stroke="#d73a49" />
      <line x1="72.5" y1="180" x2="72.5" y2="180" stroke="#24292e" />
      <line x1="77.5" y1="180" x2="77.5" y2="180" stroke="#24292e" />
      <line x1="82.5" y1="180" x2="82.5" y2="180" stroke="#24292e" />
      <line x1="87.5" y1="180" x2="87.5" y2="180" stroke="#24292e" />
      <line x1="92.5" y1="180" x2="92.5" y2="180" stroke="#24292e" />
      <line x1="97.5" y1="180" x2="97.5" y2="180" stroke="#24292e" />
      <line x1="107.5" y1="180" x2="107.5" y2="180" stroke="#005cc5" />
      <line x1="117.5" y1="180" x2="122.5" y2="180" stroke="#005cc5" />
      <line x1="127.5" y1="180" x2="127.5" y2="180" stroke="#24292e" />
      <line x1="137.5" y1="180" x2="137.5" y2="180" stroke="#005cc5" />
      <line x1="147.5" y1="180" x2="147.5" y2="180" stroke="#24292e" />
      <line x1="152.5" y1="180" x2="152.5" y2="180" stroke="#005cc5" />
      <line x1="157.5" y1="180" x2="157.5" y2="180" stroke="#24292e" />
      <line x1="162.5" y1="180" x2="162.5" y2="180" stroke="#005cc5" />
      <line x1="167.5" y1="180" x2="167.5" y2="180" stroke="#24292e" />
      <line x1="172.5" y1="180" x2="172.5" y2="180" stroke="#24292e" />
    </g>
    <g class="code line">
      <line x1="47.5" y1="200" x2="67.5" y2="200" stroke="#d73a49" />
      <line x1="72.5" y1="200" x2="72.5" y2="200" stroke="#24292e" />
      <line x1="82.5" y1="200" x2="82.5" y2="200" stroke="#005cc5" />
      <line x1="92.5" y1="200" x2="97.5" y2="200" stroke="#005cc5" />
      <line x1="102.5" y1="200" x2="102.5" y2="200" stroke="#24292e" />
      <line x1="112.5" y1="200" x2="112.5" y2="200" stroke="#24292e" />
      <line x1="122.5" y1="200" x2="122.5" y2="200" stroke="#005cc5" />
      <line x1="132.5" y1="200" x2="137.5" y2="200" stroke="#005cc5" />
      <line x1="142.5" y1="200" x2="142.5" y2="200" stroke="#24292e" />
      <line x1="152.5" y1="200" x2="162.5" y2="200" stroke="#24292e" />
      <line x1="172.5" y1="200" x2="172.5" y2="200" stroke="#005cc5" />
      <line x1="182.5" y1="200" x2="182.5" y2="200" stroke="#24292e" />
      <line x1="187.5" y1="200" x2="187.5" y2="200" stroke="#24292e" />
      <line x1="197.5" y1="200" x2="197.5" y2="200" stroke="#24292e" />
      <line x1="207.5" y1="200" x2="207.5" y2="200" stroke="#005cc5" />
      <line x1="217.5" y1="200" x2="217.5" y2="200" stroke="#24292e" />
      <line x1="222.5" y1="200" x2="222.5" y2="200" stroke="#24292e" />
      <line x1="232.5" y1="200" x2="232.5" y2="200" stroke="#24292e" />
      <line x1="242.5" y1="200" x2="242.5" y2="200" stroke="#005cc5" />
      <line x1="252.5" y1="200" x2="262.5" y2="200" stroke="#24292e" />
      <line x1="267.5" y1="200" x2="267.5" y2="200" stroke="#24292e" />
    </g>
    <g class="code line">
      <line x1="47.5" y1="210" x2="67.5" y2="210" stroke="#d73a49" />
      <line x1="72.5" y1="210" x2="72.5" y2="210" stroke="#24292e" />
      <line x1="82.5" y1="210" x2="82.5" y2="210" stroke="#005cc5" />
      <line x1="92.5" y1="210" x2="97.5" y2="210" stroke="#005cc5" />
      <line x1="102.5" y1="210" x2="102.5" y2="210" stroke="#24292e" />
      <line x1="112.5" y1="210" x2="112.5" y2="210" stroke="#24292e" />
      <line x1="122.5" y1="210" x2="122.5" y2="210" stroke="#005cc5" />
      <line x1="132.5" y1="210" x2="137.5" y2="210" stroke="#005cc5" />
      <line x1="142.5" y1="210" x2="142.5" y2="210" stroke="#24292e" />
      <line x1="152.5" y1="210" x2="152.5" y2="210" stroke="#24292e" />
      <line x1="157.5" y1="210" x2="157.5" y2="210" stroke="#24292e" />
      <line x1="162.5" y1="210" x2="162.5" y2="210" stroke="#24292e" />
      <line x1="167.5" y1="210" x2="167.5" y2="210" stroke="#24292e" />
      <line x1="172.5" y1="210" x2="172.5" y2="210" stroke="#24292e" />
      <line x1="182.5" y1="210" x2="182.5" y2="210" stroke="#005cc5" />
      <line x1="192.5" y1="210" x2="192.5" y2="210" stroke="#24292e" />
      <line x1="197.5" y1="210" x2="197.5" y2="210" stroke="#24292e" />
      <line x1="202.5" y1="210" x2="202.5" y2="210" stroke="#24292e" />
      <line x1="207.5" y1="210" x2="207.5" y2="210" stroke="#24292e" />
      <line x1="212.5" y1="210" x2="212.5" y2="210" stroke="#24292e" />
      <line x1="217.5" y1="210" x2="217.5" y2="210" stroke="#24292e" />
    </g>
    <g class="code line">
      <line x1="47.5" y1="230" x2="67.5" y2="230" stroke="#d73a49" />
      <line x1="72.5" y1="230" x2="72.5" y2="230" stroke="#24292e" />
      <line x1="82.5" y1="230" x2="82.5" y2="230" stroke="#005cc5" />
      <line x1="92.5" y1="230" x2="92.5" y2="230" stroke="#24292e" />
      <line x1="97.5" y1="230" x2="97.5" y2="230" stroke="#005cc5" />
      <line x1="102.5" y1="230" x2="102.5" y2="230" stroke="#24292e" />
      <line x1="107.5" y1="230" x2="107.5" y2="230" stroke="#005cc5" />
      <line x1="112.5" y1="230" x2="112.5" y2="230" stroke="#24292e" />
      <line x1="117.5" y1="230" x2="117.5" y2="230" stroke="#005cc5" />
      <line x1="122.5" y1="230" x2="122.5" y2="230" stroke="#24292e" />
      <line x1="127.5" y1="230" x2="127.5" y2="230" stroke="#24292e" />
      <line x1="137.5" y1="230" x2="137.5" y2="230" stroke="#24292e" />
      <line x1="147.5" y1="230" x2="147.5" y2="230" stroke="#005cc5" />
      <line x1="157.5" y1="230" x2="157.5" y2="230" stroke="#24292e" />
      <line x1="162.5" y1="230" x2="162.5" y2="230" stroke="#24292e" />
      <line x1="167.5" y1="230" x2="177.5" y2="230" stroke="#6f42c1" />
      <line x1="182.5" y1="230" x2="182.5" y2="230" stroke="#24292e" />
      <line x1="187.5" y1="230" x2="187.5" y2="230" stroke="#24292e" />
      <line x1="192.5" y1="230" x2="192.5" y2="230" stroke="#24292e" />
      <line x1="202.5" y1="230" x2="202.5" y2="230" stroke="#24292e" />
      <line x1="212.5" y1="230" x2="212.5" y2="230" stroke="#005cc5" />
      <line x1="222.5" y1="230" x2="222.5" y2="230" stroke="#24292e" />
      <line x1="227.5" y1="230" x2="227.5" y2="230" stroke="#24292e" />
      <line x1="232.5" y1="230" x2="257.5" y2="230" stroke="#6f42c1" />
      <line x1="262.5" y1="230" x2="262.5" y2="230" stroke="#24292e" />
      <line x1="267.5" y1="230" x2="267.5" y2="230" stroke="#24292e" />
      <line x1="272.5" y1="230" x2="272.5" y2="230" stroke="#005cc5" />
      <line x1="277.5" y1="230" x2="277.5" y2="230" stroke="#24292e" />
      <line x1="282.5" y1="230" x2="282.5" y2="230" stroke="#24292e" />
      <line x1="287.5" y1="230" x2="287.5" y2="230" stroke="#24292e" />
      <line x1="297.5" y1="230" x2="297.5" y2="230" stroke="#24292e" />
      <line x1="302.5" y1="230" x2="302.5" y2="230" stroke="#24292e" />
      <line x1="312.5" y1="230" x2="317.5" y2="230" stroke="#6a737d" />
      <line x1="327.5" y1="230" x2="357.5" y2="230" stroke="#6a737d" />
    </g>
    <g class="code line">
      <line x1="47.5" y1="240" x2="67.5" y2="240" stroke="#d73a49" />
      <line x1="72.5" y1="240" x2="72.5" y2="240" stroke="#24292e" />
      <line x1="82.5" y1="240" x2="82.5" y2="240" stroke="#005cc5" />
      <line x1="92.5" y1="240" x2="92.5" y2="240" stroke="#24292e" />
      <line x1="97.5" y1="240" x2="97.5" y2="240" stroke="#005cc5" />
      <line x1="102.5" y1="240" x2="102.5" y2="240" stroke="#24292e" />
      <line x1="107.5" y1="240" x2="107.5" y2="240" stroke="#005cc5" />
      <line x1="112.5" y1="240" x2="112.5" y2="240" stroke="#24292e" />
      <line x1="117.5" y1="240" x2="117.5" y2="240" stroke="#005cc5" />
      <line x1="122.5" y1="240" x2="122.5" y2="240" stroke="#24292e" />
      <line x1="127.5" y1="240" x2="127.5" y2="240" stroke="#24292e" />
      <line x1="137.5" y1="240" x2="137.5" y2="240" stroke="#24292e" />
      <line x1="142.5" y1="240" x2="142.5" y2="240" stroke="#24292e" />
      <line x1="147.5" y1="240" x2="147.5" y2="240" stroke="#24292e" />
      <line x1="157.5" y1="240" x2="167.5" y2="240" stroke="#24292e" />
      <line x1="172.5" y1="240" x2="172.5" y2="240" stroke="#24292e" />
      <line x1="177.5" y1="240" x2="177.5" y2="240" stroke="#24292e" />
      <line x1="187.5" y1="240" x2="187.5" y2="240" stroke="#005cc5" />
      <line x1="197.5" y1="240" x2="197.5" y2="240" stroke="#24292e" />
      <line x1="202.5" y1="240" x2="212.5" y2="240" stroke="#24292e" />
      <line x1="217.5" y1="240" x2="217.5" y2="240" stroke="#24292e" />
      <line x1="222.5" y1="240" x2="222.5" y2="240" stroke="#24292e" />
      <line x1="227.5" y1="240" x2="227.5" y2="240" stroke="#005cc5" />
      <line x1="232.5" y1="240" x2="232.5" y2="240" stroke="#24292e" />
      <line x1="237.5" y1="240" x2="237.5" y2="240" stroke="#24292e" />
    </g>
    <g class="code line">
      <line x1="47.5" y1="260" x2="92.5" y2="260" stroke="#d73a49" />
      <line x1="97.5" y1="260" x2="107.5" y2="260" stroke="#6f42c1" />
      <line x1="112.5" y1="260" x2="112.5" y2="260" stroke="#24292e" />
      <line x1="117.5" y1="260" x2="117.5" y2="260" stroke="#24292e" />
      <line x1="122.5" y1="260" x2="122.5" y2="260" stroke="#24292e" />
      <line x1="132.5" y1="260" x2="132.5" y2="260" stroke="#24292e" />
      <line x1="142.5" y1="260" x2="152.5" y2="260" stroke="#d73a49" />
      <line x1="162.5" y1="260" x2="162.5" y2="260" stroke="#24292e" />
      <line x1="172.5" y1="260" x2="172.5" y2="260" stroke="#005cc5" />
      <line x1="182.5" y1="260" x2="182.5" y2="260" stroke="#24292e" />
      <line x1="187.5" y1="260" x2="187.5" y2="260" stroke="#24292e" />
      <line x1="192.5" y1="260" x2="192.5" y2="260" stroke="#005cc5" />
      <line x1="197.5" y1="260" x2="197.5" y2="260" stroke="#24292e" />
      <line x1="207.5" y1="260" x2="207.5" y2="260" stroke="#24292e" />
      <line x1="217.5" y1="260" x2="217.5" y2="260" stroke="#005cc5" />
      <line x1="227.5" y1="260" x2="227.5" y2="260" stroke="#24292e" />
      <line x1="232.5" y1="260" x2="232.5" y2="260" stroke="#24292e" />
      <line x1="237.5" y1="260" x2="237.5" y2="260" stroke="#005cc5" />
      <line x1="242.5" y1="260" x2="242.5" y2="260" stroke="#24292e" />
      <line x1="252.5" y1="260" x2="252.5" y2="260" stroke="#24292e" />
      <line x1="257.5" y1="260" x2="257.5" y2="260" stroke="#24292e" />
      <line x1="267.5" y1="260" x2="267.5" y2="260" stroke="#24292e" />
      <line x1="272.5" y1="260" x2="272.5" y2="260" stroke="#24292e" />
      <line x1="282.5" y1="260" x2="292.5" y2="260" stroke="#6f42c1" />
      <line x1="297.5" y1="260" x2="297.5" y2="260" stroke="#24292e" />
      <line x1="307.5" y1="260" x2="307.5" y2="260" stroke="#24292e" />
      <line x1="312.5" y1="260" x2="312.5" y2="260" stroke="#005cc5" />
      <line x1="317.5" y1="260" x2="317.5" y2="260" stroke="#24292e" />
      <line x1="322.5" y1="260" x2="322.5" y2="260" stroke="#005cc5" />
      <line x1="327.5" y1="260" x2="327.5" y2="260" stroke="#24292e" />
      <line x1="332.5" y1="260" x2="332.5" y2="260" stroke="#005cc5" />
      <line x1="337.5" y1="260" x2="337.5" y2="260" stroke="#24292e" />
      <line x1="342.5" y1="260" x2="347.5" y2="260" stroke="#005cc5" />
      <line x1="352.5" y1="260" x2="352.5" y2="260" stroke="#24292e" />
      <line x1="362.5" y1="260" x2="362.5" y2="260" stroke="#24292e" />
      <line x1="367.5" y1="260" x2="367.5" y2="260" stroke="#24292e" />
    </g>
    <g class="code line">
      <line x1="47.5" y1="270" x2="92.5" y2="270" stroke="#d73a49" />
      <line x1="97.5" y1="270" x2="107.5" y2="270" stroke="#6f42c1" />
      <line x1="112.5" y1="270" x2="112.5" y2="270" stroke="#24292e" />
      <line x1="117.5" y1="270" x2="117.5" y2="270" stroke="#24292e" />
      <line x1="122.5" y1="270" x2="122.5" y2="270" stroke="#24292e" />
      <line x1="127.5" y1="270" x2="127.5" y2="270" stroke="#24292e" />
      <line x1="132.5" y1="270" x2="132.5" y2="270" stroke="#24292e" />
      <line x1="137.5" y1="270" x2="137.5" y2="270" stroke="#24292e" />
      <line x1="142.5" y1="270" x2="142.5" y2="270" stroke="#24292e" />
      <line x1="152.5" y1="270" x2="152.5" y2="270" stroke="#24292e" />
      <line x1="162.5" y1="270" x2="162.5" y2="270" stroke="#24292e" />
      <line x1="167.5" y1="270" x2="167.5" y2="270" stroke="#24292e" />
      <line x1="177.5" y1="270" x2="177.5" y2="270" stroke="#24292e" />
      <line x1="182.5" y1="270" x2="182.5" y2="270" stroke="#24292e" />
      <line x1="192.5" y1="270" x2="202.5" y2="270" stroke="#6f42c1" />
      <line x1="207.5" y1="270" x2="207.5" y2="270" stroke="#24292e" />
      <line x1="217.5" y1="270" x2="217.5" y2="270" stroke="#24292e" />
      <line x1="222.5" y1="270" x2="222.5" y2="270" stroke="#005cc5" />
      <line x1="227.5" y1="270" x2="227.5" y2="270" stroke="#24292e" />
      <line x1="232.5" y1="270" x2="232.5" y2="270" stroke="#005cc5" />
      <line x1="237.5" y1="270" x2="237.5" y2="270" stroke="#24292e" />
      <line x1="242.5" y1="270" x2="242.5" y2="270" stroke="#005cc5" />
      <line x1="247.5" y1="270" x2="247.5" y2="270" stroke="#24292e" />
      <line x1="252.5" y1="270" x2="257.5" y2="270" stroke="#005cc5" />
      <line x1="262.5" y1="270" x2="262.5" y2="270" stroke="#24292e" />
      <line x1="272.5" y1="270" x2="272.5" y2="270" stroke="#24292e" />
      <line x1="277.5" y1="270" x2="277.5" y2="270" stroke="#24292e" />
    </g>
  </g>  <g class="line numbers" stroke="#444d56" stroke-linecap="square" stroke-width="5">
      <line x1="32.5" y1="50" x2="32.5" y2="50" />
      <line x1="32.5" y1="60" x2="32.5" y2="60" />
      <line x1="32.5" y1="70" x2="32.5" y2="70" />
      <line x1="32.5" y1="80" x2="32.5" y2="80" />
      <line x1="32.5" y1="90" x2="32.5" y2="90" />
      <line x1="32.5" y1="100" x2="32.5" y2="100" />
      <line x1="32.5" y1="110" x2="32.5" y2="110" />
      <line x1="32.5" y1="120" x2="32.5" y2="120" />
      <line x1="32.5" y1="130" x2="32.5" y2="130" />
      <line x1="32.5" y1="140" x2="27.5" y2="140" />
      <line x1="32.5" y1="150" x2="27.5" y2="150" />
      <line x1="32.5" y1="160" x2="27.5" y2="160" />
      <line x1="32.5" y1="170" x2="27.5" y2="170" />
      <line x1="32.5" y1="180" x2="27.5" y2="180" />
      <line x1="32.5" y1="190" x2="27.5" y2="190" />
      <line x1="32.5" y1="200" x2="27.5" y2="200" />
      <line x1="32.5" y1="210" x2="27.5" y2="210" />
      <line x1="32.5" y1="220" x2="27.5" y2="220" />
      <line x1="32.5" y1="230" x2="27.5" y2="230" />
      <line x1="32.5" y1="240" x2="27.5" y2="240" />
      <line x1="32.5" y1="250" x2="27.5" y2="250" />
      <line x1="32.5" y1="260" x2="27.5" y2="260" />
      <line x1="32.5" y1="270" x2="27.5" y2="270" />
  </g>
</svg>