<svg class="faux code" xmlns="http://www.w3.org/2000/svg" xmlns:xlink="http://www.w3.org/1999/xlink" width="1300" height="865" viewBox="0 0 1300 865">
  <rect x="0" y="0" width="1300" height="865" fill="none" />
  <g class="code block" stroke-linecap="square" stroke-width="8">
    <g class="code line">
      <line x1="46" y1="50" x2="142" y2="50" stroke="#959da5" />
    </g>
    <g class="code line">
      <line x1="46" y1="80" x2="62" y2="80" stroke="#959da5" />
      <line x1="70" y1="80" x2="102" y2="80" stroke="#959da5" />
      <line x1="118" y1="80" x2="126" y2="80" stroke="#959da5" />
      <line x1="142" y1="80" x2="382" y2="80" stroke="#959da5" />
    </g>
    <g class="code line">
      <line x1="46" y1="110" x2="62" y2="110" stroke="#959da5" />
      <line x1="70" y1="110" x2="78" y2="110" stroke="#959da5" />
      <line x1="94" y1="110" x2="134" y2="110" stroke="#959da5" />
    </g>
    <g class="code line">
      <line x1="46" y1="125" x2="86" y2="125" stroke="#79b8ff" />
      <line x1="94" y1="125" x2="102" y2="125" stroke="#d1d5da" />
      <line x1="118" y1="125" x2="118" y2="125" stroke="#ffab70" />
      <line x1="134" y1="125" x2="134" y2="125" stroke="#ffab70" />
    </g>
    <g class="code line">
      <line x1="46" y1="140" x2="86" y2="140" stroke="#79b8ff" />
      <line x1="94" y1="140" x2="102" y2="140" stroke="#d1d5da" />
      <line x1="118" y1="140" x2="118" y2="140" stroke="#ffab70" />
      <line x1="134" y1="140" x2="134" y2="140" stroke="#ffab70" />
      <line x1="158" y1="140" x2="182" y2="140" stroke="#ffab70" />
      <line x1="206" y1="140" x2="206" y2="140" stroke="#ffab70" />
      <line x1="246" y1="140" x2="486" y2="140" stroke="#ffab70" />
    </g>
    <g class="code line">
      <line x1="46" y1="155" x2="86" y2="155" stroke="#79b8ff" />
      <line x1="94" y1="155" x2="102" y2="155" stroke="#d1d5da" />
      <line x1="118" y1="155" x2="118" y2="155" stroke="#ffab70" />
      <line x1="134" y1="155" x2="142" y2="155" stroke="#ffab70" />
      <line x1="198" y1="155" x2="206" y2="155" stroke="#ffab70" />
      <line x1="238" y1="155" x2="238" y2="155" stroke="#ffab70" />
      <line x1="486" y1="155" x2="494" y2="155" stroke="#ffab70" />
    </g>
    <g class="code line">
      <line x1="46" y1="170" x2="86" y2="170" stroke="#79b8ff" />
      <line x1="94" y1="170" x2="102" y2="170" stroke="#d1d5da" />
      <line x1="118" y1="170" x2="134" y2="170" stroke="#ffab70" />
      <line x1="150" y1="170" x2="214" y2="170" stroke="#ffab70" />
      <line x1="254" y1="170" x2="302" y2="170" stroke="#ffab70" />
      <line x1="318" y1="170" x2="326" y2="170" stroke="#ffab70" />
      <line x1="350" y1="170" x2="350" y2="170" stroke="#ffab70" />
      <line x1="366" y1="170" x2="374" y2="170" stroke="#ffab70" />
      <line x1="390" y1="170" x2="422" y2="170" stroke="#ffab70" />
      <line x1="438" y1="170" x2="478" y2="170" stroke="#ffab70" />
      <line x1="494" y1="170" x2="534" y2="170" stroke="#ffab70" />
      <line x1="550" y1="170" x2="582" y2="170" stroke="#ffab70" />
      <line x1="598" y1="170" x2="606" y2="170" stroke="#ffab70" />
    </g>
    <g class="code line">
      <line x1="46" y1="185" x2="86" y2="185" stroke="#79b8ff" />
      <line x1="94" y1="185" x2="102" y2="185" stroke="#d1d5da" />
      <line x1="118" y1="185" x2="118" y2="185" stroke="#ffab70" />
      <line x1="134" y1="185" x2="206" y2="185" stroke="#ffab70" />
      <line x1="230" y1="185" x2="230" y2="185" stroke="#ffab70" />
      <line x1="366" y1="185" x2="366" y2="185" stroke="#ffab70" />
      <line x1="382" y1="185" x2="430" y2="185" stroke="#ffab70" />
      <line x1="446" y1="185" x2="470" y2="185" stroke="#ffab70" />
      <line x1="486" y1="185" x2="494" y2="185" stroke="#ffab70" />
    </g>
    <g class="code line">
      <line x1="46" y1="200" x2="86" y2="200" stroke="#79b8ff" />
      <line x1="94" y1="200" x2="102" y2="200" stroke="#d1d5da" />
      <line x1="118" y1="200" x2="118" y2="200" stroke="#ffab70" />
      <line x1="238" y1="200" x2="494" y2="200" stroke="#ffab70" />
    </g>
    <g class="code line">
      <line x1="46" y1="215" x2="86" y2="215" stroke="#79b8ff" />
      <line x1="94" y1="215" x2="102" y2="215" stroke="#d1d5da" />
      <line x1="118" y1="215" x2="118" y2="215" stroke="#ffab70" />
      <line x1="134" y1="215" x2="134" y2="215" stroke="#ffab70" />
    </g>
    <g class="code line">
      <line x1="46" y1="245" x2="62" y2="245" stroke="#959da5" />
      <line x1="70" y1="245" x2="102" y2="245" stroke="#959da5" />
      <line x1="118" y1="245" x2="182" y2="245" stroke="#959da5" />
    </g>
    <g class="code line">
      <line x1="46" y1="260" x2="134" y2="260" stroke="#d1d5da" />
      <line x1="134" y1="260" x2="238" y2="260" stroke="#ffab70" />
    </g>
    <g class="code line">
      <line x1="46" y1="275" x2="110" y2="275" stroke="#d1d5da" />
      <line x1="110" y1="275" x2="238" y2="275" stroke="#ffab70" />
    </g>
    <g class="code line">
      <line x1="46" y1="305" x2="62" y2="305" stroke="#959da5" />
      <line x1="70" y1="305" x2="134" y2="305" stroke="#959da5" />
      <line x1="150" y1="305" x2="214" y2="305" stroke="#959da5" />
      <line x1="230" y1="305" x2="246" y2="305" stroke="#959da5" />
      <line x1="262" y1="305" x2="326" y2="305" stroke="#959da5" />
    </g>
    <g class="code line">
      <line x1="46" y1="320" x2="102" y2="320" stroke="#d1d5da" />
      <line x1="102" y1="320" x2="134" y2="320" stroke="#ffab70" />
      <line x1="150" y1="320" x2="174" y2="320" stroke="#ffab70" />
      <line x1="190" y1="320" x2="190" y2="320" stroke="#ffab70" />
      <line x1="206" y1="320" x2="214" y2="320" stroke="#ffab70" />
      <line x1="230" y1="320" x2="238" y2="320" stroke="#ffab70" />
      <line x1="254" y1="320" x2="262" y2="320" stroke="#ffab70" />
      <line x1="278" y1="320" x2="286" y2="320" stroke="#ffab70" />
      <line x1="302" y1="320" x2="302" y2="320" stroke="#ffab70" />
      <line x1="318" y1="320" x2="358" y2="320" stroke="#ffab70" />
    </g>
    <g class="code line">
      <line x1="46" y1="350" x2="62" y2="350" stroke="#959da5" />
      <line x1="70" y1="350" x2="94" y2="350" stroke="#959da5" />
      <line x1="110" y1="350" x2="126" y2="350" stroke="#959da5" />
      <line x1="142" y1="350" x2="158" y2="350" stroke="#959da5" />
      <line x1="174" y1="350" x2="238" y2="350" stroke="#959da5" />
    </g>
    <g class="code line">
      <line x1="46" y1="365" x2="134" y2="365" stroke="#d1d5da" />
      <line x1="134" y1="365" x2="174" y2="365" stroke="#ffab70" />
      <line x1="190" y1="365" x2="198" y2="365" stroke="#ffab70" />
      <line x1="214" y1="365" x2="238" y2="365" stroke="#ffab70" />
      <line x1="254" y1="365" x2="342" y2="365" stroke="#ffab70" />
      <line x1="358" y1="365" x2="366" y2="365" stroke="#ffab70" />
      <line x1="382" y1="365" x2="414" y2="365" stroke="#ffab70" />
      <line x1="430" y1="365" x2="510" y2="365" stroke="#ffab70" />
      <line x1="526" y1="365" x2="526" y2="365" stroke="#ffab70" />
      <line x1="542" y1="365" x2="550" y2="365" stroke="#ffab70" />
      <line x1="566" y1="365" x2="574" y2="365" stroke="#ffab70" />
      <line x1="590" y1="365" x2="598" y2="365" stroke="#ffab70" />
      <line x1="614" y1="365" x2="614" y2="365" stroke="#ffab70" />
      <line x1="630" y1="365" x2="630" y2="365" stroke="#ffab70" />
      <line x1="646" y1="365" x2="670" y2="365" stroke="#ffab70" />
      <line x1="686" y1="365" x2="694" y2="365" stroke="#ffab70" />
      <line x1="710" y1="365" x2="1246" y2="365" stroke="#ffab70" />
    </g>
    <g class="code line">
      <line x1="46" y1="395" x2="62" y2="395" stroke="#959da5" />
      <line x1="70" y1="395" x2="126" y2="395" stroke="#959da5" />
    </g>
    <g class="code line">
      <line x1="46" y1="410" x2="86" y2="410" stroke="#79b8ff" />
      <line x1="94" y1="410" x2="102" y2="410" stroke="#d1d5da" />
      <line x1="118" y1="410" x2="174" y2="410" stroke="#ffab70" />
      <line x1="190" y1="410" x2="198" y2="410" stroke="#ffab70" />
      <line x1="214" y1="410" x2="446" y2="410" stroke="#ffab70" />
    </g>
    <g class="code line">
      <line x1="46" y1="440" x2="62" y2="440" stroke="#959da5" />
      <line x1="70" y1="440" x2="94" y2="440" stroke="#959da5" />
      <line x1="110" y1="440" x2="126" y2="440" stroke="#959da5" />
      <line x1="142" y1="440" x2="206" y2="440" stroke="#959da5" />
    </g>
    <g class="code line">
      <line x1="46" y1="455" x2="78" y2="455" stroke="#f97583" />
      <line x1="86" y1="455" x2="94" y2="455" stroke="#d1d5da" />
      <line x1="110" y1="455" x2="118" y2="455" stroke="#f97583" />
      <line x1="134" y1="455" x2="206" y2="455" stroke="#d1d5da" />
      <line x1="214" y1="455" x2="214" y2="455" stroke="#f97583" />
      <line x1="230" y1="455" x2="238" y2="455" stroke="#f97583" />
    </g>
    <g class="code line">
      <line x1="70" y1="485" x2="70" y2="485" stroke="#959da5" />
      <line x1="86" y1="485" x2="126" y2="485" stroke="#959da5" />
      <line x1="142" y1="485" x2="158" y2="485" stroke="#959da5" />
      <line x1="174" y1="485" x2="238" y2="485" stroke="#959da5" />
    </g>
    <g class="code line">
      <line x1="70" y1="500" x2="134" y2="500" stroke="#d1d5da" />
      <line x1="142" y1="500" x2="190" y2="500" stroke="#ffab70" />
      <line x1="206" y1="500" x2="206" y2="500" stroke="#ffab70" />
      <line x1="222" y1="500" x2="302" y2="500" stroke="#ffab70" />
    </g>
    <g class="code line">
      <line x1="70" y1="515" x2="126" y2="515" stroke="#d1d5da" />
      <line x1="134" y1="515" x2="254" y2="515" stroke="#ffab70" />
    </g>
    <g class="code line">
      <line x1="70" y1="530" x2="118" y2="530" stroke="#d1d5da" />
      <line x1="126" y1="530" x2="326" y2="530" stroke="#ffab70" />
    </g>
    <g class="code line">
      <line x1="70" y1="560" x2="70" y2="560" stroke="#959da5" />
      <line x1="86" y1="560" x2="142" y2="560" stroke="#959da5" />
    </g>
    <g class="code line">
      <line x1="70" y1="575" x2="94" y2="575" stroke="#79b8ff" />
      <line x1="110" y1="575" x2="118" y2="575" stroke="#d1d5da" />
      <line x1="134" y1="575" x2="278" y2="575" stroke="#ffab70" />
    </g>
    <g class="code line">
      <line x1="70" y1="605" x2="70" y2="605" stroke="#959da5" />
      <line x1="86" y1="605" x2="110" y2="605" stroke="#959da5" />
      <line x1="126" y1="605" x2="142" y2="605" stroke="#959da5" />
      <line x1="158" y1="605" x2="174" y2="605" stroke="#959da5" />
    </g>
    <g class="code line">
      <line x1="70" y1="620" x2="94" y2="620" stroke="#79b8ff" />
      <line x1="110" y1="620" x2="118" y2="620" stroke="#d1d5da" />
      <line x1="134" y1="620" x2="134" y2="620" stroke="#ffab70" />
      <line x1="158" y1="620" x2="214" y2="620" stroke="#ffab70" />
      <line x1="230" y1="620" x2="406" y2="620" stroke="#ffab70" />
    </g>
    <g class="code line">
      <line x1="70" y1="635" x2="134" y2="635" stroke="#d1d5da" />
      <line x1="150" y1="635" x2="158" y2="635" stroke="#d1d5da" />
      <line x1="174" y1="635" x2="198" y2="635" stroke="#d1d5da" />
      <line x1="214" y1="635" x2="222" y2="635" stroke="#d1d5da" />
      <line x1="230" y1="635" x2="302" y2="635" stroke="#d1d5da" />
      <line x1="318" y1="635" x2="366" y2="635" stroke="#d1d5da" />
      <line x1="382" y1="635" x2="414" y2="635" stroke="#d1d5da" />
      <line x1="430" y1="635" x2="510" y2="635" stroke="#d1d5da" />
      <line x1="526" y1="635" x2="558" y2="635" stroke="#ffab70" />
      <line x1="574" y1="635" x2="574" y2="635" stroke="#f97583" />
      <line x1="590" y1="635" x2="614" y2="635" stroke="#d1d5da" />
      <line x1="630" y1="635" x2="638" y2="635" stroke="#d1d5da" />
      <line x1="654" y1="635" x2="654" y2="635" stroke="#f97583" />
      <line x1="670" y1="635" x2="742" y2="635" stroke="#ffab70" />
    </g>
    <g class="code line">
      <line x1="70" y1="665" x2="70" y2="665" stroke="#959da5" />
      <line x1="86" y1="665" x2="126" y2="665" stroke="#959da5" />
    </g>
    <g class="code line">
      <line x1="70" y1="680" x2="94" y2="680" stroke="#79b8ff" />
      <line x1="110" y1="680" x2="118" y2="680" stroke="#d1d5da" />
      <line x1="134" y1="680" x2="134" y2="680" stroke="#ffab70" />
      <line x1="158" y1="680" x2="254" y2="680" stroke="#ffab70" />
    </g>
    <g class="code line">
      <line x1="70" y1="695" x2="102" y2="695" stroke="#d1d5da" />
      <line x1="118" y1="695" x2="134" y2="695" stroke="#d1d5da" />
      <line x1="150" y1="695" x2="222" y2="695" stroke="#ffab70" />
      <line x1="238" y1="695" x2="302" y2="695" stroke="#ffab70" />
    </g>
    <g class="code line">
      <line x1="70" y1="725" x2="70" y2="725" stroke="#959da5" />
      <line x1="86" y1="725" x2="126" y2="725" stroke="#959da5" />
    </g>
    <g class="code line">
      <line x1="70" y1="740" x2="78" y2="740" stroke="#d1d5da" />
      <line x1="94" y1="740" x2="102" y2="740" stroke="#d1d5da" />
      <line x1="118" y1="740" x2="190" y2="740" stroke="#ffab70" />
    </g>
    <g class="code line">
      <line x1="46" y1="770" x2="86" y2="770" stroke="#f97583" />
      <line x1="86" y1="770" x2="86" y2="770" stroke="#f97583" />
    </g>
    <g class="code line">
      <line x1="46" y1="800" x2="62" y2="800" stroke="#959da5" />
      <line x1="70" y1="800" x2="94" y2="800" stroke="#959da5" />
      <line x1="110" y1="800" x2="110" y2="800" stroke="#959da5" />
      <line x1="126" y1="800" x2="166" y2="800" stroke="#959da5" />
    </g>
    <g class="code line">
      <line x1="46" y1="815" x2="86" y2="815" stroke="#79b8ff" />
      <line x1="94" y1="815" x2="102" y2="815" stroke="#d1d5da" />
      <line x1="118" y1="815" x2="214" y2="815" stroke="#ffab70" />
      <line x1="230" y1="815" x2="230" y2="815" stroke="#ffab70" />
      <line x1="246" y1="815" x2="342" y2="815" stroke="#ffab70" />
    </g>
  </g></svg>