<svg class="faux code" xmlns="http://www.w3.org/2000/svg" xmlns:xlink="http://www.w3.org/1999/xlink" width="1332" height="835" viewBox="0 0 1332 835">
  <rect x="0" y="0" width="1332" height="835" fill="none" />
  <g class="code block" stroke-linecap="square" stroke-width="8">
    <g class="code line">
      <line x1="46" y1="50" x2="62" y2="50" stroke="#959da5" />
      <line x1="70" y1="50" x2="118" y2="50" stroke="#959da5" />
      <line x1="134" y1="50" x2="166" y2="50" stroke="#959da5" />
    </g>
    <g class="code line">
      <line x1="46" y1="65" x2="134" y2="65" stroke="#ffab70" />
      <line x1="142" y1="65" x2="142" y2="65" stroke="#ffab70" />
      <line x1="158" y1="65" x2="174" y2="65" stroke="#ffab70" />
      <line x1="190" y1="65" x2="238" y2="65" stroke="#ffab70" />
      <line x1="254" y1="65" x2="262" y2="65" stroke="#ffab70" />
      <line x1="278" y1="65" x2="302" y2="65" stroke="#ffab70" />
      <line x1="318" y1="65" x2="390" y2="65" stroke="#ffab70" />
      <line x1="406" y1="65" x2="438" y2="65" stroke="#ffab70" />
      <line x1="454" y1="65" x2="470" y2="65" stroke="#ffab70" />
      <line x1="486" y1="65" x2="526" y2="65" stroke="#ffab70" />
      <line x1="542" y1="65" x2="566" y2="65" stroke="#ffab70" />
      <line x1="582" y1="65" x2="598" y2="65" stroke="#ffab70" />
      <line x1="614" y1="65" x2="638" y2="65" stroke="#ffab70" />
      <line x1="654" y1="65" x2="662" y2="65" stroke="#ffab70" />
      <line x1="678" y1="65" x2="702" y2="65" stroke="#ffab70" />
      <line x1="718" y1="65" x2="750" y2="65" stroke="#ffab70" />
      <line x1="766" y1="65" x2="846" y2="65" stroke="#ffab70" />
    </g>
    <g class="code line">
      <line x1="46" y1="95" x2="102" y2="95" stroke="#f97583" />
      <line x1="110" y1="95" x2="126" y2="95" stroke="#d1d5da" />
    </g>
    <g class="code line">
      <line x1="46" y1="110" x2="70" y2="110" stroke="#f97583" />
      <line x1="78" y1="110" x2="94" y2="110" stroke="#d1d5da" />
      <line x1="102" y1="110" x2="102" y2="110" stroke="#d1d5da" />
      <line x1="110" y1="110" x2="198" y2="110" stroke="#d1d5da" />
      <line x1="206" y1="110" x2="206" y2="110" stroke="#d1d5da" />
      <line x1="214" y1="110" x2="214" y2="110" stroke="#79b8ff" />
      <line x1="222" y1="110" x2="222" y2="110" stroke="#d1d5da" />
      <line x1="238" y1="110" x2="246" y2="110" stroke="#79b8ff" />
      <line x1="262" y1="110" x2="262" y2="110" stroke="#79b8ff" />
      <line x1="270" y1="110" x2="270" y2="110" stroke="#d1d5da" />
    </g>
    <g class="code line">
      <line x1="46" y1="125" x2="62" y2="125" stroke="#d1d5da" />
      <line x1="62" y1="125" x2="86" y2="125" stroke="#f97583" />
      <line x1="102" y1="125" x2="126" y2="125" stroke="#d1d5da" />
      <line x1="134" y1="125" x2="134" y2="125" stroke="#d1d5da" />
      <line x1="142" y1="125" x2="182" y2="125" stroke="#d1d5da" />
      <line x1="198" y1="125" x2="238" y2="125" stroke="#f97583" />
      <line x1="254" y1="125" x2="438" y2="125" stroke="#b392f0" />
      <line x1="446" y1="125" x2="446" y2="125" stroke="#d1d5da" />
      <line x1="462" y1="125" x2="534" y2="125" stroke="#b392f0" />
    </g>
    <g class="code line">
      <line x1="46" y1="140" x2="86" y2="140" stroke="#f97583" />
      <line x1="86" y1="140" x2="86" y2="140" stroke="#d1d5da" />
    </g>
    <g class="code line">
      <line x1="46" y1="155" x2="62" y2="155" stroke="#d1d5da" />
      <line x1="62" y1="155" x2="86" y2="155" stroke="#f97583" />
      <line x1="102" y1="155" x2="222" y2="155" stroke="#b392f0" />
      <line x1="238" y1="155" x2="278" y2="155" stroke="#f97583" />
      <line x1="294" y1="155" x2="478" y2="155" stroke="#b392f0" />
    </g>
    <g class="code line">
      <line x1="46" y1="170" x2="62" y2="170" stroke="#d1d5da" />
      <line x1="62" y1="170" x2="86" y2="170" stroke="#f97583" />
      <line x1="102" y1="170" x2="206" y2="170" stroke="#b392f0" />
      <line x1="222" y1="170" x2="262" y2="170" stroke="#f97583" />
      <line x1="278" y1="170" x2="350" y2="170" stroke="#b392f0" />
    </g>
    <g class="code line">
      <line x1="46" y1="200" x2="102" y2="200" stroke="#f97583" />
      <line x1="110" y1="200" x2="118" y2="200" stroke="#d1d5da" />
      <line x1="126" y1="200" x2="126" y2="200" stroke="#d1d5da" />
      <line x1="142" y1="200" x2="182" y2="200" stroke="#d1d5da" />
      <line x1="190" y1="200" x2="190" y2="200" stroke="#d1d5da" />
      <line x1="206" y1="200" x2="262" y2="200" stroke="#d1d5da" />
      <line x1="270" y1="200" x2="270" y2="200" stroke="#d1d5da" />
      <line x1="286" y1="200" x2="334" y2="200" stroke="#d1d5da" />
    </g>
    <g class="code line">
      <line x1="46" y1="215" x2="102" y2="215" stroke="#f97583" />
      <line x1="110" y1="215" x2="150" y2="215" stroke="#d1d5da" />
    </g>
    <g class="code line">
      <line x1="46" y1="245" x2="86" y2="245" stroke="#b392f0" />
      <line x1="94" y1="245" x2="94" y2="245" stroke="#79b8ff" />
      <line x1="110" y1="245" x2="134" y2="245" stroke="#79b8ff" />
    </g>
    <g class="code line">
      <line x1="46" y1="275" x2="78" y2="275" stroke="#f97583" />
      <line x1="86" y1="275" x2="190" y2="275" stroke="#b392f0" />
      <line x1="198" y1="275" x2="214" y2="275" stroke="#d1d5da" />
    </g>
    <g class="code line">
      <line x1="46" y1="290" x2="62" y2="290" stroke="#d1d5da" />
      <line x1="62" y1="290" x2="62" y2="290" stroke="#d1d5da" />
      <line x1="78" y1="290" x2="78" y2="290" stroke="#79b8ff" />
      <line x1="94" y1="290" x2="134" y2="290" stroke="#d1d5da" />
      <line x1="142" y1="290" x2="142" y2="290" stroke="#d1d5da" />
      <line x1="150" y1="290" x2="190" y2="290" stroke="#b392f0" />
      <line x1="198" y1="290" x2="198" y2="290" stroke="#d1d5da" />
      <line x1="206" y1="290" x2="246" y2="290" stroke="#d1d5da" />
      <line x1="254" y1="290" x2="254" y2="290" stroke="#d1d5da" />
      <line x1="262" y1="290" x2="310" y2="290" stroke="#b392f0" />
      <line x1="318" y1="290" x2="318" y2="290" stroke="#d1d5da" />
      <line x1="334" y1="290" x2="374" y2="290" stroke="#d1d5da" />
      <line x1="382" y1="290" x2="382" y2="290" stroke="#d1d5da" />
      <line x1="390" y1="290" x2="462" y2="290" stroke="#b392f0" />
      <line x1="470" y1="290" x2="470" y2="290" stroke="#d1d5da" />
    </g>
    <g class="code line">
      <line x1="46" y1="305" x2="62" y2="305" stroke="#d1d5da" />
      <line x1="62" y1="305" x2="62" y2="305" stroke="#d1d5da" />
      <line x1="70" y1="305" x2="70" y2="305" stroke="#d1d5da" />
      <line x1="78" y1="305" x2="126" y2="305" stroke="#b392f0" />
      <line x1="134" y1="305" x2="142" y2="305" stroke="#d1d5da" />
      <line x1="150" y1="305" x2="238" y2="305" stroke="#ffab70" />
      <line x1="246" y1="305" x2="246" y2="305" stroke="#d1d5da" />
      <line x1="262" y1="305" x2="270" y2="305" stroke="#79b8ff" />
      <line x1="278" y1="305" x2="286" y2="305" stroke="#d1d5da" />
    </g>
    <g class="code line">
      <line x1="46" y1="320" x2="62" y2="320" stroke="#d1d5da" />
      <line x1="62" y1="320" x2="134" y2="320" stroke="#d1d5da" />
      <line x1="150" y1="320" x2="150" y2="320" stroke="#79b8ff" />
      <line x1="166" y1="320" x2="166" y2="320" stroke="#d1d5da" />
      <line x1="174" y1="320" x2="174" y2="320" stroke="#d1d5da" />
      <line x1="182" y1="320" x2="262" y2="320" stroke="#b392f0" />
      <line x1="270" y1="320" x2="286" y2="320" stroke="#d1d5da" />
      <line x1="294" y1="320" x2="294" y2="320" stroke="#79b8ff" />
      <line x1="302" y1="320" x2="302" y2="320" stroke="#d1d5da" />
    </g>
    <g class="code line">
      <line x1="46" y1="335" x2="62" y2="335" stroke="#d1d5da" />
      <line x1="62" y1="335" x2="62" y2="335" stroke="#d1d5da" />
      <line x1="70" y1="335" x2="70" y2="335" stroke="#d1d5da" />
      <line x1="78" y1="335" x2="110" y2="335" stroke="#b392f0" />
      <line x1="118" y1="335" x2="126" y2="335" stroke="#d1d5da" />
    </g>
    <g class="code line">
      <line x1="46" y1="350" x2="62" y2="350" stroke="#d1d5da" />
      <line x1="62" y1="350" x2="102" y2="350" stroke="#f97583" />
      <line x1="118" y1="350" x2="190" y2="350" stroke="#d1d5da" />
    </g>
    <g class="code line">
      <line x1="46" y1="380" x2="78" y2="380" stroke="#f97583" />
      <line x1="86" y1="380" x2="110" y2="380" stroke="#b392f0" />
      <line x1="118" y1="380" x2="134" y2="380" stroke="#d1d5da" />
    </g>
    <g class="code line">
      <line x1="46" y1="395" x2="62" y2="395" stroke="#d1d5da" />
      <line x1="62" y1="395" x2="118" y2="395" stroke="#d1d5da" />
      <line x1="134" y1="395" x2="134" y2="395" stroke="#79b8ff" />
      <line x1="150" y1="395" x2="158" y2="395" stroke="#d1d5da" />
      <line x1="166" y1="395" x2="166" y2="395" stroke="#d1d5da" />
      <line x1="174" y1="395" x2="198" y2="395" stroke="#d1d5da" />
      <line x1="206" y1="395" x2="206" y2="395" stroke="#d1d5da" />
      <line x1="214" y1="395" x2="286" y2="395" stroke="#b392f0" />
      <line x1="294" y1="395" x2="294" y2="395" stroke="#d1d5da" />
      <line x1="302" y1="395" x2="398" y2="395" stroke="#ffab70" />
      <line x1="406" y1="395" x2="406" y2="395" stroke="#d1d5da" />
    </g>
    <g class="code line">
      <line x1="46" y1="410" x2="62" y2="410" stroke="#d1d5da" />
      <line x1="62" y1="410" x2="70" y2="410" stroke="#d1d5da" />
      <line x1="78" y1="410" x2="78" y2="410" stroke="#d1d5da" />
      <line x1="86" y1="410" x2="118" y2="410" stroke="#b392f0" />
      <line x1="126" y1="410" x2="126" y2="410" stroke="#d1d5da" />
      <line x1="134" y1="410" x2="190" y2="410" stroke="#d1d5da" />
      <line x1="198" y1="410" x2="198" y2="410" stroke="#d1d5da" />
    </g>
    <g class="code line">
      <line x1="46" y1="425" x2="62" y2="425" stroke="#d1d5da" />
      <line x1="62" y1="425" x2="142" y2="425" stroke="#d1d5da" />
      <line x1="158" y1="425" x2="158" y2="425" stroke="#79b8ff" />
      <line x1="174" y1="425" x2="182" y2="425" stroke="#d1d5da" />
      <line x1="190" y1="425" x2="190" y2="425" stroke="#d1d5da" />
      <line x1="198" y1="425" x2="222" y2="425" stroke="#d1d5da" />
      <line x1="230" y1="425" x2="230" y2="425" stroke="#d1d5da" />
      <line x1="238" y1="425" x2="262" y2="425" stroke="#b392f0" />
      <line x1="270" y1="425" x2="270" y2="425" stroke="#d1d5da" />
      <line x1="278" y1="425" x2="334" y2="425" stroke="#d1d5da" />
      <line x1="342" y1="425" x2="342" y2="425" stroke="#d1d5da" />
      <line x1="358" y1="425" x2="446" y2="425" stroke="#ffab70" />
      <line x1="454" y1="425" x2="454" y2="425" stroke="#d1d5da" />
    </g>
    <g class="code line">
      <line x1="46" y1="440" x2="62" y2="440" stroke="#d1d5da" />
      <line x1="62" y1="440" x2="70" y2="440" stroke="#f97583" />
      <line x1="86" y1="440" x2="94" y2="440" stroke="#d1d5da" />
      <line x1="102" y1="440" x2="102" y2="440" stroke="#d1d5da" />
      <line x1="110" y1="440" x2="134" y2="440" stroke="#d1d5da" />
      <line x1="142" y1="440" x2="142" y2="440" stroke="#d1d5da" />
      <line x1="150" y1="440" x2="190" y2="440" stroke="#b392f0" />
      <line x1="198" y1="440" x2="198" y2="440" stroke="#d1d5da" />
      <line x1="206" y1="440" x2="286" y2="440" stroke="#d1d5da" />
      <line x1="294" y1="440" x2="302" y2="440" stroke="#d1d5da" />
    </g>
    <g class="code line">
      <line x1="46" y1="455" x2="70" y2="455" stroke="#d1d5da" />
      <line x1="70" y1="455" x2="78" y2="455" stroke="#d1d5da" />
      <line x1="86" y1="455" x2="86" y2="455" stroke="#d1d5da" />
      <line x1="94" y1="455" x2="134" y2="455" stroke="#b392f0" />
      <line x1="142" y1="455" x2="142" y2="455" stroke="#d1d5da" />
      <line x1="150" y1="455" x2="230" y2="455" stroke="#d1d5da" />
      <line x1="238" y1="455" x2="238" y2="455" stroke="#d1d5da" />
    </g>
    <g class="code line">
      <line x1="46" y1="470" x2="62" y2="470" stroke="#d1d5da" />
      <line x1="62" y1="470" x2="94" y2="470" stroke="#b392f0" />
      <line x1="102" y1="470" x2="102" y2="470" stroke="#d1d5da" />
      <line x1="110" y1="470" x2="174" y2="470" stroke="#ffab70" />
      <line x1="190" y1="470" x2="230" y2="470" stroke="#ffab70" />
      <line x1="246" y1="470" x2="326" y2="470" stroke="#ffab70" />
      <line x1="334" y1="470" x2="334" y2="470" stroke="#d1d5da" />
    </g>
    <g class="code line">
      <line x1="46" y1="485" x2="62" y2="485" stroke="#d1d5da" />
      <line x1="62" y1="485" x2="102" y2="485" stroke="#d1d5da" />
      <line x1="110" y1="485" x2="110" y2="485" stroke="#d1d5da" />
      <line x1="118" y1="485" x2="206" y2="485" stroke="#b392f0" />
      <line x1="214" y1="485" x2="214" y2="485" stroke="#d1d5da" />
      <line x1="222" y1="485" x2="230" y2="485" stroke="#d1d5da" />
      <line x1="238" y1="485" x2="238" y2="485" stroke="#d1d5da" />
      <line x1="246" y1="485" x2="270" y2="485" stroke="#d1d5da" />
      <line x1="278" y1="485" x2="278" y2="485" stroke="#d1d5da" />
      <line x1="286" y1="485" x2="310" y2="485" stroke="#b392f0" />
      <line x1="318" y1="485" x2="318" y2="485" stroke="#d1d5da" />
      <line x1="326" y1="485" x2="382" y2="485" stroke="#d1d5da" />
      <line x1="390" y1="485" x2="390" y2="485" stroke="#d1d5da" />
      <line x1="398" y1="485" x2="470" y2="485" stroke="#b392f0" />
      <line x1="478" y1="485" x2="494" y2="485" stroke="#d1d5da" />
      <line x1="510" y1="485" x2="566" y2="485" stroke="#ffab70" />
      <line x1="574" y1="485" x2="582" y2="485" stroke="#d1d5da" />
      <line x1="598" y1="485" x2="630" y2="485" stroke="#ffab70" />
      <line x1="638" y1="485" x2="638" y2="485" stroke="#d1d5da" />
    </g>
    <g class="code line">
      <line x1="46" y1="500" x2="62" y2="500" stroke="#d1d5da" />
      <line x1="62" y1="500" x2="102" y2="500" stroke="#d1d5da" />
      <line x1="110" y1="500" x2="110" y2="500" stroke="#d1d5da" />
      <line x1="118" y1="500" x2="142" y2="500" stroke="#b392f0" />
      <line x1="150" y1="500" x2="150" y2="500" stroke="#d1d5da" />
      <line x1="158" y1="500" x2="166" y2="500" stroke="#d1d5da" />
      <line x1="174" y1="500" x2="174" y2="500" stroke="#d1d5da" />
      <line x1="182" y1="500" x2="206" y2="500" stroke="#d1d5da" />
      <line x1="214" y1="500" x2="214" y2="500" stroke="#d1d5da" />
      <line x1="222" y1="500" x2="246" y2="500" stroke="#b392f0" />
      <line x1="254" y1="500" x2="254" y2="500" stroke="#d1d5da" />
      <line x1="262" y1="500" x2="318" y2="500" stroke="#d1d5da" />
      <line x1="326" y1="500" x2="326" y2="500" stroke="#d1d5da" />
      <line x1="334" y1="500" x2="406" y2="500" stroke="#b392f0" />
      <line x1="414" y1="500" x2="430" y2="500" stroke="#d1d5da" />
      <line x1="446" y1="500" x2="534" y2="500" stroke="#ffab70" />
      <line x1="542" y1="500" x2="550" y2="500" stroke="#d1d5da" />
      <line x1="566" y1="500" x2="646" y2="500" stroke="#d1d5da" />
      <line x1="654" y1="500" x2="654" y2="500" stroke="#d1d5da" />
    </g>
    <g class="code line">
      <line x1="46" y1="515" x2="62" y2="515" stroke="#d1d5da" />
      <line x1="62" y1="515" x2="94" y2="515" stroke="#b392f0" />
      <line x1="102" y1="515" x2="102" y2="515" stroke="#d1d5da" />
      <line x1="110" y1="515" x2="158" y2="515" stroke="#ffab70" />
      <line x1="174" y1="515" x2="222" y2="515" stroke="#ffab70" />
      <line x1="238" y1="515" x2="294" y2="515" stroke="#ffab70" />
      <line x1="310" y1="515" x2="366" y2="515" stroke="#ffab70" />
      <line x1="382" y1="515" x2="406" y2="515" stroke="#ffab70" />
      <line x1="422" y1="515" x2="510" y2="515" stroke="#ffab70" />
      <line x1="518" y1="515" x2="518" y2="515" stroke="#d1d5da" />
    </g>
    <g class="code line">
      <line x1="46" y1="530" x2="62" y2="530" stroke="#d1d5da" />
      <line x1="62" y1="530" x2="126" y2="530" stroke="#d1d5da" />
      <line x1="142" y1="530" x2="142" y2="530" stroke="#79b8ff" />
      <line x1="158" y1="530" x2="406" y2="530" stroke="#ffab70" />
      <line x1="422" y1="530" x2="422" y2="530" stroke="#79b8ff" />
      <line x1="438" y1="530" x2="438" y2="530" stroke="#d1d5da" />
      <line x1="446" y1="530" x2="470" y2="530" stroke="#b392f0" />
      <line x1="478" y1="530" x2="486" y2="530" stroke="#d1d5da" />
    </g>
    <g class="code line">
      <line x1="46" y1="545" x2="62" y2="545" stroke="#d1d5da" />
      <line x1="62" y1="545" x2="118" y2="545" stroke="#d1d5da" />
      <line x1="134" y1="545" x2="134" y2="545" stroke="#79b8ff" />
      <line x1="150" y1="545" x2="342" y2="545" stroke="#ffab70" />
      <line x1="358" y1="545" x2="358" y2="545" stroke="#79b8ff" />
      <line x1="374" y1="545" x2="374" y2="545" stroke="#d1d5da" />
      <line x1="382" y1="545" x2="486" y2="545" stroke="#b392f0" />
      <line x1="494" y1="545" x2="510" y2="545" stroke="#d1d5da" />
      <line x1="526" y1="545" x2="550" y2="545" stroke="#b392f0" />
      <line x1="558" y1="545" x2="558" y2="545" stroke="#d1d5da" />
    </g>
    <g class="code line">
      <line x1="46" y1="560" x2="62" y2="560" stroke="#d1d5da" />
      <line x1="62" y1="560" x2="102" y2="560" stroke="#d1d5da" />
      <line x1="118" y1="560" x2="118" y2="560" stroke="#79b8ff" />
      <line x1="134" y1="560" x2="206" y2="560" stroke="#b392f0" />
      <line x1="214" y1="560" x2="222" y2="560" stroke="#d1d5da" />
      <line x1="230" y1="560" x2="238" y2="560" stroke="#ffab70" />
      <line x1="246" y1="560" x2="246" y2="560" stroke="#d1d5da" />
      <line x1="262" y1="560" x2="286" y2="560" stroke="#b392f0" />
      <line x1="294" y1="560" x2="302" y2="560" stroke="#d1d5da" />
      <line x1="318" y1="560" x2="502" y2="560" stroke="#b392f0" />
      <line x1="510" y1="560" x2="510" y2="560" stroke="#d1d5da" />
    </g>
    <g class="code line">
      <line x1="46" y1="575" x2="62" y2="575" stroke="#d1d5da" />
      <line x1="62" y1="575" x2="110" y2="575" stroke="#d1d5da" />
      <line x1="118" y1="575" x2="118" y2="575" stroke="#d1d5da" />
      <line x1="126" y1="575" x2="158" y2="575" stroke="#b392f0" />
      <line x1="166" y1="575" x2="174" y2="575" stroke="#d1d5da" />
    </g>
    <g class="code line">
      <line x1="46" y1="590" x2="62" y2="590" stroke="#d1d5da" />
      <line x1="62" y1="590" x2="94" y2="590" stroke="#b392f0" />
      <line x1="102" y1="590" x2="102" y2="590" stroke="#d1d5da" />
      <line x1="110" y1="590" x2="134" y2="590" stroke="#ffab70" />
      <line x1="150" y1="590" x2="166" y2="590" stroke="#ffab70" />
      <line x1="182" y1="590" x2="198" y2="590" stroke="#ffab70" />
      <line x1="214" y1="590" x2="230" y2="590" stroke="#ffab70" />
      <line x1="246" y1="590" x2="310" y2="590" stroke="#ffab70" />
      <line x1="326" y1="590" x2="350" y2="590" stroke="#ffab70" />
      <line x1="366" y1="590" x2="374" y2="590" stroke="#ffab70" />
      <line x1="390" y1="590" x2="414" y2="590" stroke="#ffab70" />
      <line x1="430" y1="590" x2="446" y2="590" stroke="#ffab70" />
      <line x1="462" y1="590" x2="502" y2="590" stroke="#ffab70" />
      <line x1="518" y1="590" x2="534" y2="590" stroke="#ffab70" />
      <line x1="550" y1="590" x2="598" y2="590" stroke="#ffab70" />
      <line x1="614" y1="590" x2="622" y2="590" stroke="#ffab70" />
      <line x1="638" y1="590" x2="678" y2="590" stroke="#ffab70" />
      <line x1="694" y1="590" x2="726" y2="590" stroke="#ffab70" />
      <line x1="742" y1="590" x2="774" y2="590" stroke="#ffab70" />
      <line x1="790" y1="590" x2="806" y2="590" stroke="#ffab70" />
      <line x1="822" y1="590" x2="838" y2="590" stroke="#ffab70" />
      <line x1="854" y1="590" x2="910" y2="590" stroke="#ffab70" />
      <line x1="926" y1="590" x2="934" y2="590" stroke="#ffab70" />
      <line x1="950" y1="590" x2="958" y2="590" stroke="#ffab70" />
      <line x1="974" y1="590" x2="1006" y2="590" stroke="#ffab70" />
      <line x1="1022" y1="590" x2="1046" y2="590" stroke="#ffab70" />
      <line x1="1062" y1="590" x2="1070" y2="590" stroke="#ffab70" />
      <line x1="1086" y1="590" x2="1110" y2="590" stroke="#ffab70" />
      <line x1="1126" y1="590" x2="1190" y2="590" stroke="#ffab70" />
      <line x1="1198" y1="590" x2="1198" y2="590" stroke="#d1d5da" />
    </g>
    <g class="code line">
      <line x1="46" y1="605" x2="62" y2="605" stroke="#d1d5da" />
      <line x1="62" y1="605" x2="110" y2="605" stroke="#d1d5da" />
      <line x1="118" y1="605" x2="118" y2="605" stroke="#d1d5da" />
      <line x1="126" y1="605" x2="198" y2="605" stroke="#b392f0" />
      <line x1="206" y1="605" x2="206" y2="605" stroke="#d1d5da" />
      <line x1="214" y1="605" x2="278" y2="605" stroke="#d1d5da" />
      <line x1="294" y1="605" x2="294" y2="605" stroke="#79b8ff" />
      <line x1="310" y1="605" x2="334" y2="605" stroke="#ffab70" />
      <line x1="342" y1="605" x2="342" y2="605" stroke="#d1d5da" />
      <line x1="358" y1="605" x2="422" y2="605" stroke="#ffab70" />
      <line x1="438" y1="605" x2="438" y2="605" stroke="#79b8ff" />
      <line x1="454" y1="605" x2="518" y2="605" stroke="#d1d5da" />
      <line x1="526" y1="605" x2="526" y2="605" stroke="#d1d5da" />
    </g>
    <g class="code line">
      <line x1="46" y1="620" x2="62" y2="620" stroke="#d1d5da" />
      <line x1="62" y1="620" x2="94" y2="620" stroke="#b392f0" />
      <line x1="102" y1="620" x2="102" y2="620" stroke="#d1d5da" />
      <line x1="110" y1="620" x2="142" y2="620" stroke="#ffab70" />
      <line x1="158" y1="620" x2="174" y2="620" stroke="#ffab70" />
      <line x1="190" y1="620" x2="214" y2="620" stroke="#ffab70" />
      <line x1="230" y1="620" x2="238" y2="620" stroke="#ffab70" />
      <line x1="254" y1="620" x2="310" y2="620" stroke="#ffab70" />
      <line x1="326" y1="620" x2="342" y2="620" stroke="#ffab70" />
      <line x1="358" y1="620" x2="398" y2="620" stroke="#ffab70" />
      <line x1="414" y1="620" x2="422" y2="620" stroke="#ffab70" />
      <line x1="438" y1="620" x2="486" y2="620" stroke="#ffab70" />
      <line x1="502" y1="620" x2="542" y2="620" stroke="#ffab70" />
      <line x1="558" y1="620" x2="566" y2="620" stroke="#ffab70" />
      <line x1="582" y1="620" x2="606" y2="620" stroke="#ffab70" />
      <line x1="622" y1="620" x2="654" y2="620" stroke="#ffab70" />
      <line x1="670" y1="620" x2="694" y2="620" stroke="#ffab70" />
      <line x1="710" y1="620" x2="766" y2="620" stroke="#ffab70" />
      <line x1="782" y1="620" x2="814" y2="620" stroke="#ffab70" />
      <line x1="830" y1="620" x2="846" y2="620" stroke="#ffab70" />
      <line x1="862" y1="620" x2="926" y2="620" stroke="#ffab70" />
      <line x1="942" y1="620" x2="958" y2="620" stroke="#ffab70" />
      <line x1="974" y1="620" x2="982" y2="620" stroke="#ffab70" />
      <line x1="998" y1="620" x2="998" y2="620" stroke="#ffab70" />
      <line x1="1014" y1="620" x2="1030" y2="620" stroke="#ffab70" />
      <line x1="1046" y1="620" x2="1094" y2="620" stroke="#ffab70" />
      <line x1="1110" y1="620" x2="1118" y2="620" stroke="#ffab70" />
      <line x1="1134" y1="620" x2="1150" y2="620" stroke="#ffab70" />
      <line x1="1166" y1="620" x2="1198" y2="620" stroke="#ffab70" />
      <line x1="1214" y1="620" x2="1270" y2="620" stroke="#ffab70" />
      <line x1="1278" y1="620" x2="1278" y2="620" stroke="#d1d5da" />
    </g>
    <g class="code line">
      <line x1="46" y1="635" x2="62" y2="635" stroke="#d1d5da" />
      <line x1="62" y1="635" x2="94" y2="635" stroke="#b392f0" />
      <line x1="102" y1="635" x2="102" y2="635" stroke="#d1d5da" />
      <line x1="110" y1="635" x2="166" y2="635" stroke="#d1d5da" />
      <line x1="174" y1="635" x2="174" y2="635" stroke="#d1d5da" />
    </g>
    <g class="code line">
      <line x1="46" y1="650" x2="62" y2="650" stroke="#d1d5da" />
      <line x1="62" y1="650" x2="94" y2="650" stroke="#b392f0" />
      <line x1="102" y1="650" x2="102" y2="650" stroke="#d1d5da" />
      <line x1="110" y1="650" x2="198" y2="650" stroke="#ffab70" />
      <line x1="214" y1="650" x2="230" y2="650" stroke="#ffab70" />
      <line x1="246" y1="650" x2="270" y2="650" stroke="#ffab70" />
      <line x1="286" y1="650" x2="326" y2="650" stroke="#ffab70" />
      <line x1="342" y1="650" x2="350" y2="650" stroke="#ffab70" />
      <line x1="366" y1="650" x2="382" y2="650" stroke="#ffab70" />
      <line x1="398" y1="650" x2="438" y2="650" stroke="#ffab70" />
      <line x1="454" y1="650" x2="462" y2="650" stroke="#ffab70" />
      <line x1="478" y1="650" x2="526" y2="650" stroke="#ffab70" />
      <line x1="542" y1="650" x2="566" y2="650" stroke="#ffab70" />
      <line x1="582" y1="650" x2="630" y2="650" stroke="#ffab70" />
      <line x1="646" y1="650" x2="686" y2="650" stroke="#ffab70" />
      <line x1="694" y1="650" x2="694" y2="650" stroke="#d1d5da" />
    </g>
    <g class="code line">
      <line x1="46" y1="665" x2="62" y2="665" stroke="#d1d5da" />
      <line x1="62" y1="665" x2="78" y2="665" stroke="#f97583" />
      <line x1="86" y1="665" x2="86" y2="665" stroke="#d1d5da" />
    </g>
    <g class="code line">
      <line x1="46" y1="680" x2="70" y2="680" stroke="#d1d5da" />
      <line x1="70" y1="680" x2="110" y2="680" stroke="#d1d5da" />
      <line x1="118" y1="680" x2="118" y2="680" stroke="#d1d5da" />
      <line x1="126" y1="680" x2="222" y2="680" stroke="#b392f0" />
      <line x1="230" y1="680" x2="238" y2="680" stroke="#d1d5da" />
    </g>
    <g class="code line">
      <line x1="46" y1="695" x2="62" y2="695" stroke="#d1d5da" />
      <line x1="62" y1="695" x2="102" y2="695" stroke="#f97583" />
      <line x1="118" y1="695" x2="246" y2="695" stroke="#b392f0" />
      <line x1="254" y1="695" x2="254" y2="695" stroke="#d1d5da" />
    </g>
    <g class="code line">
      <line x1="46" y1="710" x2="70" y2="710" stroke="#d1d5da" />
      <line x1="70" y1="710" x2="110" y2="710" stroke="#d1d5da" />
      <line x1="118" y1="710" x2="118" y2="710" stroke="#d1d5da" />
      <line x1="126" y1="710" x2="182" y2="710" stroke="#b392f0" />
      <line x1="190" y1="710" x2="198" y2="710" stroke="#d1d5da" />
    </g>
    <g class="code line">
      <line x1="46" y1="725" x2="70" y2="725" stroke="#d1d5da" />
      <line x1="70" y1="725" x2="110" y2="725" stroke="#d1d5da" />
      <line x1="118" y1="725" x2="118" y2="725" stroke="#d1d5da" />
      <line x1="126" y1="725" x2="166" y2="725" stroke="#d1d5da" />
      <line x1="174" y1="725" x2="174" y2="725" stroke="#d1d5da" />
      <line x1="182" y1="725" x2="214" y2="725" stroke="#b392f0" />
      <line x1="222" y1="725" x2="230" y2="725" stroke="#d1d5da" />
    </g>
    <g class="code line">
      <line x1="46" y1="740" x2="70" y2="740" stroke="#d1d5da" />
      <line x1="70" y1="740" x2="102" y2="740" stroke="#b392f0" />
      <line x1="110" y1="740" x2="110" y2="740" stroke="#d1d5da" />
      <line x1="118" y1="740" x2="166" y2="740" stroke="#ffab70" />
      <line x1="182" y1="740" x2="238" y2="740" stroke="#ffab70" />
      <line x1="246" y1="740" x2="246" y2="740" stroke="#d1d5da" />
    </g>
    <g class="code line">
      <line x1="46" y1="770" x2="70" y2="770" stroke="#f97583" />
      <line x1="78" y1="770" x2="134" y2="770" stroke="#d1d5da" />
      <line x1="150" y1="770" x2="158" y2="770" stroke="#79b8ff" />
      <line x1="174" y1="770" x2="246" y2="770" stroke="#ffab70" />
      <line x1="254" y1="770" x2="254" y2="770" stroke="#d1d5da" />
    </g>
    <g class="code line">
      <line x1="46" y1="785" x2="62" y2="785" stroke="#d1d5da" />
      <line x1="62" y1="785" x2="86" y2="785" stroke="#b392f0" />
      <line x1="94" y1="785" x2="102" y2="785" stroke="#d1d5da" />
    </g>
  </g></svg>