<svg class="faux code" xmlns="http://www.w3.org/2000/svg" xmlns:xlink="http://www.w3.org/1999/xlink" width="692" height="265" viewBox="0 0 692 265">
  <rect x="0" y="0" width="692" height="265" fill="none" />
  <g class="code block" stroke-linecap="square" stroke-width="8">
    <g class="code line">
      <line x1="46" y1="50" x2="78" y2="50" stroke="#66D9EF" />
      <line x1="86" y1="50" x2="150" y2="50" stroke="#6f42c1" />
      <line x1="158" y1="50" x2="158" y2="50" stroke="#F92772" />
      <line x1="166" y1="50" x2="166" y2="50" stroke="#F92772" />
      <line x1="174" y1="50" x2="182" y2="50" stroke="#F92772" />
    </g>
    <g class="code line">
      <line x1="86" y1="65" x2="134" y2="65" stroke="#F92772" />
      <line x1="150" y1="65" x2="150" y2="65" stroke="#99E403" />
      <line x1="166" y1="65" x2="166" y2="65" stroke="#F92772" />
      <line x1="174" y1="65" x2="174" y2="65" stroke="#F92772" />
      <line x1="182" y1="65" x2="246" y2="65" stroke="#F92772" />
      <line x1="254" y1="65" x2="254" y2="65" stroke="#F92772" />
      <line x1="262" y1="65" x2="390" y2="65" stroke="#6f42c1" />
      <line x1="398" y1="65" x2="406" y2="65" stroke="#F92772" />
      <line x1="414" y1="65" x2="438" y2="65" stroke="#F92772" />
      <line x1="446" y1="65" x2="446" y2="65" stroke="#F92772" />
      <line x1="454" y1="65" x2="486" y2="65" stroke="#6f42c1" />
      <line x1="494" y1="65" x2="526" y2="65" stroke="#F92772" />
      <line x1="534" y1="65" x2="590" y2="65" stroke="#6f42c1" />
      <line x1="598" y1="65" x2="598" y2="65" stroke="#F92772" />
      <line x1="606" y1="65" x2="630" y2="65" stroke="#99E403" />
      <line x1="638" y1="65" x2="638" y2="65" stroke="#F92772" />
    </g>
    <g class="code line">
      <line x1="86" y1="80" x2="118" y2="80" stroke="#F92772" />
      <line x1="134" y1="80" x2="134" y2="80" stroke="#99E403" />
      <line x1="150" y1="80" x2="150" y2="80" stroke="#F92772" />
      <line x1="158" y1="80" x2="158" y2="80" stroke="#F92772" />
      <line x1="166" y1="80" x2="214" y2="80" stroke="#F92772" />
      <line x1="222" y1="80" x2="222" y2="80" stroke="#F92772" />
      <line x1="230" y1="80" x2="278" y2="80" stroke="#6f42c1" />
      <line x1="286" y1="80" x2="286" y2="80" stroke="#F92772" />
      <line x1="294" y1="80" x2="342" y2="80" stroke="#F92772" />
      <line x1="350" y1="80" x2="358" y2="80" stroke="#F92772" />
      <line x1="366" y1="80" x2="406" y2="80" stroke="#6f42c1" />
      <line x1="414" y1="80" x2="422" y2="80" stroke="#F92772" />
    </g>
    <g class="code line">
      <line x1="86" y1="95" x2="126" y2="95" stroke="#66D9EF" />
      <line x1="142" y1="95" x2="174" y2="95" stroke="#F92772" />
    </g>
    <g class="code line">
      <line x1="46" y1="125" x2="62" y2="125" stroke="#F92772" />
      <line x1="70" y1="125" x2="70" y2="125" stroke="#99E403" />
      <line x1="86" y1="125" x2="134" y2="125" stroke="#F92772" />
      <line x1="142" y1="125" x2="142" y2="125" stroke="#F92772" />
      <line x1="150" y1="125" x2="182" y2="125" stroke="#6f42c1" />
      <line x1="190" y1="125" x2="190" y2="125" stroke="#F92772" />
      <line x1="198" y1="125" x2="262" y2="125" stroke="#E6DB74" />
      <line x1="270" y1="125" x2="278" y2="125" stroke="#F92772" />
      <line x1="286" y1="125" x2="326" y2="125" stroke="#6f42c1" />
      <line x1="334" y1="125" x2="374" y2="125" stroke="#F92772" />
      <line x1="382" y1="125" x2="438" y2="125" stroke="#6f42c1" />
      <line x1="446" y1="125" x2="478" y2="125" stroke="#F92772" />
    </g>
    <g class="code line">
      <line x1="46" y1="155" x2="62" y2="155" stroke="#6a737d" />
      <line x1="70" y1="155" x2="102" y2="155" stroke="#6a737d" />
      <line x1="118" y1="155" x2="158" y2="155" stroke="#6a737d" />
      <line x1="174" y1="155" x2="230" y2="155" stroke="#6a737d" />
      <line x1="246" y1="155" x2="270" y2="155" stroke="#6a737d" />
      <line x1="286" y1="155" x2="334" y2="155" stroke="#6a737d" />
      <line x1="350" y1="155" x2="366" y2="155" stroke="#6a737d" />
      <line x1="382" y1="155" x2="406" y2="155" stroke="#6a737d" />
      <line x1="422" y1="155" x2="486" y2="155" stroke="#6a737d" />
      <line x1="502" y1="155" x2="534" y2="155" stroke="#6a737d" />
      <line x1="550" y1="155" x2="574" y2="155" stroke="#6a737d" />
      <line x1="590" y1="155" x2="606" y2="155" stroke="#6a737d" />
    </g>
    <g class="code line">
      <line x1="46" y1="170" x2="94" y2="170" stroke="#66D9EF" />
      <line x1="102" y1="170" x2="102" y2="170" stroke="#F92772" />
      <line x1="110" y1="170" x2="110" y2="170" stroke="#F92772" />
      <line x1="118" y1="170" x2="150" y2="170" stroke="#6f42c1" />
      <line x1="158" y1="170" x2="166" y2="170" stroke="#F92772" />
    </g>
    <g class="code line">
      <line x1="46" y1="200" x2="62" y2="200" stroke="#6a737d" />
      <line x1="70" y1="200" x2="102" y2="200" stroke="#6a737d" />
      <line x1="118" y1="200" x2="158" y2="200" stroke="#6a737d" />
      <line x1="174" y1="200" x2="230" y2="200" stroke="#6a737d" />
      <line x1="246" y1="200" x2="270" y2="200" stroke="#6a737d" />
      <line x1="286" y1="200" x2="350" y2="200" stroke="#6a737d" />
      <line x1="366" y1="200" x2="398" y2="200" stroke="#6a737d" />
      <line x1="414" y1="200" x2="430" y2="200" stroke="#6a737d" />
    </g>
    <g class="code line">
      <line x1="46" y1="215" x2="94" y2="215" stroke="#66D9EF" />
      <line x1="102" y1="215" x2="166" y2="215" stroke="#6f42c1" />
      <line x1="174" y1="215" x2="174" y2="215" stroke="#F92772" />
      <line x1="182" y1="215" x2="182" y2="215" stroke="#F92772" />
      <line x1="190" y1="215" x2="190" y2="215" stroke="#F92772" />
    </g>
  </g></svg>