<svg class="faux code" xmlns="http://www.w3.org/2000/svg" xmlns:xlink="http://www.w3.org/1999/xlink" width="780" height="430" viewBox="0 0 780 430">
  <rect x="0" y="0" width="780" height="430" fill="none" />
  <g class="code block" stroke-linecap="square" stroke-width="8">
    <g class="code line">
      <line x1="46" y1="50" x2="118" y2="50" stroke="#f97583" />
      <line x1="126" y1="50" x2="142" y2="50" stroke="#b392f0" />
      <line x1="150" y1="50" x2="150" y2="50" stroke="#d1d5da" />
      <line x1="158" y1="50" x2="158" y2="50" stroke="#d1d5da" />
      <line x1="166" y1="50" x2="166" y2="50" stroke="#d1d5da" />
      <line x1="182" y1="50" x2="182" y2="50" stroke="#d1d5da" />
      <line x1="198" y1="50" x2="198" y2="50" stroke="#d1d5da" />
      <line x1="214" y1="50" x2="214" y2="50" stroke="#79b8ff" />
      <line x1="230" y1="50" x2="230" y2="50" stroke="#d1d5da" />
      <line x1="238" y1="50" x2="278" y2="50" stroke="#f97583" />
      <line x1="294" y1="50" x2="294" y2="50" stroke="#d1d5da" />
      <line x1="310" y1="50" x2="318" y2="50" stroke="#79b8ff" />
      <line x1="334" y1="50" x2="414" y2="50" stroke="#ffab70" />
      <line x1="422" y1="50" x2="422" y2="50" stroke="#d1d5da" />
      <line x1="438" y1="50" x2="438" y2="50" stroke="#d1d5da" />
      <line x1="454" y1="50" x2="454" y2="50" stroke="#d1d5da" />
      <line x1="470" y1="50" x2="470" y2="50" stroke="#d1d5da" />
      <line x1="486" y1="50" x2="494" y2="50" stroke="#79b8ff" />
      <line x1="502" y1="50" x2="502" y2="50" stroke="#d1d5da" />
      <line x1="518" y1="50" x2="518" y2="50" stroke="#d1d5da" />
      <line x1="526" y1="50" x2="526" y2="50" stroke="#d1d5da" />
      <line x1="542" y1="50" x2="542" y2="50" stroke="#d1d5da" />
    </g>
    <g class="code line">
      <line x1="46" y1="65" x2="118" y2="65" stroke="#f97583" />
      <line x1="126" y1="65" x2="142" y2="65" stroke="#b392f0" />
      <line x1="150" y1="65" x2="150" y2="65" stroke="#d1d5da" />
      <line x1="158" y1="65" x2="158" y2="65" stroke="#d1d5da" />
      <line x1="174" y1="65" x2="174" y2="65" stroke="#79b8ff" />
      <line x1="190" y1="65" x2="198" y2="65" stroke="#79b8ff" />
      <line x1="206" y1="65" x2="206" y2="65" stroke="#d1d5da" />
      <line x1="222" y1="65" x2="222" y2="65" stroke="#d1d5da" />
      <line x1="238" y1="65" x2="238" y2="65" stroke="#d1d5da" />
      <line x1="246" y1="65" x2="246" y2="65" stroke="#d1d5da" />
      <line x1="262" y1="65" x2="262" y2="65" stroke="#d1d5da" />
    </g>
    <g class="code line">
      <line x1="46" y1="95" x2="118" y2="95" stroke="#f97583" />
      <line x1="126" y1="95" x2="142" y2="95" stroke="#b392f0" />
      <line x1="150" y1="95" x2="150" y2="95" stroke="#d1d5da" />
      <line x1="158" y1="95" x2="158" y2="95" stroke="#d1d5da" />
      <line x1="166" y1="95" x2="166" y2="95" stroke="#d1d5da" />
      <line x1="174" y1="95" x2="174" y2="95" stroke="#d1d5da" />
      <line x1="182" y1="95" x2="182" y2="95" stroke="#d1d5da" />
      <line x1="190" y1="95" x2="190" y2="95" stroke="#d1d5da" />
      <line x1="198" y1="95" x2="198" y2="95" stroke="#d1d5da" />
      <line x1="214" y1="95" x2="214" y2="95" stroke="#d1d5da" />
      <line x1="230" y1="95" x2="230" y2="95" stroke="#d1d5da" />
      <line x1="238" y1="95" x2="238" y2="95" stroke="#d1d5da" />
      <line x1="254" y1="95" x2="254" y2="95" stroke="#d1d5da" />
      <line x1="262" y1="95" x2="262" y2="95" stroke="#d1d5da" />
      <line x1="278" y1="95" x2="294" y2="95" stroke="#d1d5da" />
      <line x1="302" y1="95" x2="302" y2="95" stroke="#d1d5da" />
      <line x1="310" y1="95" x2="342" y2="95" stroke="#b392f0" />
      <line x1="350" y1="95" x2="350" y2="95" stroke="#d1d5da" />
      <line x1="358" y1="95" x2="382" y2="95" stroke="#79b8ff" />
      <line x1="390" y1="95" x2="390" y2="95" stroke="#d1d5da" />
      <line x1="398" y1="95" x2="398" y2="95" stroke="#d1d5da" />
      <line x1="406" y1="95" x2="406" y2="95" stroke="#79b8ff" />
      <line x1="414" y1="95" x2="414" y2="95" stroke="#d1d5da" />
      <line x1="422" y1="95" x2="422" y2="95" stroke="#79b8ff" />
      <line x1="430" y1="95" x2="430" y2="95" stroke="#d1d5da" />
      <line x1="438" y1="95" x2="438" y2="95" stroke="#79b8ff" />
      <line x1="446" y1="95" x2="446" y2="95" stroke="#d1d5da" />
      <line x1="454" y1="95" x2="454" y2="95" stroke="#d1d5da" />
      <line x1="462" y1="95" x2="462" y2="95" stroke="#d1d5da" />
    </g>
    <g class="code line">
      <line x1="46" y1="110" x2="118" y2="110" stroke="#f97583" />
      <line x1="126" y1="110" x2="142" y2="110" stroke="#b392f0" />
      <line x1="150" y1="110" x2="150" y2="110" stroke="#d1d5da" />
      <line x1="158" y1="110" x2="158" y2="110" stroke="#d1d5da" />
      <line x1="166" y1="110" x2="166" y2="110" stroke="#d1d5da" />
      <line x1="174" y1="110" x2="174" y2="110" stroke="#d1d5da" />
      <line x1="182" y1="110" x2="182" y2="110" stroke="#d1d5da" />
      <line x1="190" y1="110" x2="190" y2="110" stroke="#d1d5da" />
      <line x1="198" y1="110" x2="198" y2="110" stroke="#d1d5da" />
      <line x1="214" y1="110" x2="214" y2="110" stroke="#d1d5da" />
      <line x1="230" y1="110" x2="230" y2="110" stroke="#d1d5da" />
      <line x1="238" y1="110" x2="238" y2="110" stroke="#d1d5da" />
      <line x1="254" y1="110" x2="254" y2="110" stroke="#d1d5da" />
      <line x1="262" y1="110" x2="262" y2="110" stroke="#d1d5da" />
      <line x1="278" y1="110" x2="294" y2="110" stroke="#b392f0" />
      <line x1="302" y1="110" x2="302" y2="110" stroke="#d1d5da" />
      <line x1="310" y1="110" x2="326" y2="110" stroke="#d1d5da" />
      <line x1="334" y1="110" x2="334" y2="110" stroke="#d1d5da" />
      <line x1="342" y1="110" x2="342" y2="110" stroke="#79b8ff" />
      <line x1="350" y1="110" x2="350" y2="110" stroke="#d1d5da" />
      <line x1="358" y1="110" x2="358" y2="110" stroke="#79b8ff" />
      <line x1="366" y1="110" x2="366" y2="110" stroke="#d1d5da" />
      <line x1="374" y1="110" x2="374" y2="110" stroke="#79b8ff" />
      <line x1="382" y1="110" x2="382" y2="110" stroke="#d1d5da" />
      <line x1="390" y1="110" x2="390" y2="110" stroke="#d1d5da" />
      <line x1="398" y1="110" x2="398" y2="110" stroke="#d1d5da" />
    </g>
    <g class="code line">
      <line x1="46" y1="140" x2="118" y2="140" stroke="#f97583" />
      <line x1="126" y1="140" x2="142" y2="140" stroke="#b392f0" />
      <line x1="150" y1="140" x2="150" y2="140" stroke="#d1d5da" />
      <line x1="158" y1="140" x2="158" y2="140" stroke="#d1d5da" />
      <line x1="174" y1="140" x2="174" y2="140" stroke="#d1d5da" />
      <line x1="190" y1="140" x2="206" y2="140" stroke="#f97583" />
      <line x1="222" y1="140" x2="246" y2="140" stroke="#d1d5da" />
      <line x1="262" y1="140" x2="262" y2="140" stroke="#79b8ff" />
      <line x1="278" y1="140" x2="278" y2="140" stroke="#d1d5da" />
      <line x1="286" y1="140" x2="286" y2="140" stroke="#d1d5da" />
      <line x1="294" y1="140" x2="294" y2="140" stroke="#d1d5da" />
      <line x1="302" y1="140" x2="334" y2="140" stroke="#79b8ff" />
      <line x1="342" y1="140" x2="342" y2="140" stroke="#d1d5da" />
      <line x1="350" y1="140" x2="374" y2="140" stroke="#b392f0" />
      <line x1="382" y1="140" x2="382" y2="140" stroke="#d1d5da" />
      <line x1="390" y1="140" x2="454" y2="140" stroke="#d1d5da" />
      <line x1="462" y1="140" x2="462" y2="140" stroke="#d1d5da" />
      <line x1="470" y1="140" x2="470" y2="140" stroke="#d1d5da" />
      <line x1="486" y1="140" x2="486" y2="140" stroke="#d1d5da" />
      <line x1="494" y1="140" x2="494" y2="140" stroke="#d1d5da" />
      <line x1="510" y1="140" x2="510" y2="140" stroke="#d1d5da" />
    </g>
    <g class="code line">
      <line x1="46" y1="155" x2="118" y2="155" stroke="#f97583" />
      <line x1="126" y1="155" x2="142" y2="155" stroke="#b392f0" />
      <line x1="150" y1="155" x2="150" y2="155" stroke="#d1d5da" />
      <line x1="158" y1="155" x2="174" y2="155" stroke="#d1d5da" />
      <line x1="182" y1="155" x2="206" y2="155" stroke="#d1d5da" />
      <line x1="214" y1="155" x2="214" y2="155" stroke="#d1d5da" />
      <line x1="230" y1="155" x2="230" y2="155" stroke="#d1d5da" />
      <line x1="246" y1="155" x2="246" y2="155" stroke="#d1d5da" />
      <line x1="254" y1="155" x2="254" y2="155" stroke="#d1d5da" />
      <line x1="270" y1="155" x2="270" y2="155" stroke="#d1d5da" />
    </g>
    <g class="code line">
      <line x1="46" y1="185" x2="78" y2="185" stroke="#f97583" />
      <line x1="86" y1="185" x2="86" y2="185" stroke="#d1d5da" />
      <line x1="102" y1="185" x2="102" y2="185" stroke="#79b8ff" />
      <line x1="118" y1="185" x2="118" y2="185" stroke="#d1d5da" />
      <line x1="134" y1="185" x2="134" y2="185" stroke="#79b8ff" />
      <line x1="142" y1="185" x2="142" y2="185" stroke="#d1d5da" />
      <line x1="158" y1="185" x2="158" y2="185" stroke="#79b8ff" />
      <line x1="166" y1="185" x2="166" y2="185" stroke="#d1d5da" />
      <line x1="182" y1="185" x2="182" y2="185" stroke="#79b8ff" />
      <line x1="190" y1="185" x2="190" y2="185" stroke="#d1d5da" />
      <line x1="206" y1="185" x2="206" y2="185" stroke="#79b8ff" />
      <line x1="222" y1="185" x2="222" y2="185" stroke="#d1d5da" />
      <line x1="230" y1="185" x2="230" y2="185" stroke="#d1d5da" />
      <line x1="246" y1="185" x2="246" y2="185" stroke="#d1d5da" />
      <line x1="262" y1="185" x2="262" y2="185" stroke="#79b8ff" />
      <line x1="278" y1="185" x2="278" y2="185" stroke="#d1d5da" />
      <line x1="286" y1="185" x2="286" y2="185" stroke="#d1d5da" />
      <line x1="294" y1="185" x2="294" y2="185" stroke="#79b8ff" />
      <line x1="302" y1="185" x2="302" y2="185" stroke="#d1d5da" />
      <line x1="318" y1="185" x2="318" y2="185" stroke="#d1d5da" />
      <line x1="334" y1="185" x2="334" y2="185" stroke="#79b8ff" />
      <line x1="350" y1="185" x2="350" y2="185" stroke="#d1d5da" />
      <line x1="358" y1="185" x2="358" y2="185" stroke="#d1d5da" />
      <line x1="366" y1="185" x2="366" y2="185" stroke="#79b8ff" />
      <line x1="374" y1="185" x2="374" y2="185" stroke="#d1d5da" />
      <line x1="390" y1="185" x2="390" y2="185" stroke="#d1d5da" />
      <line x1="406" y1="185" x2="406" y2="185" stroke="#79b8ff" />
      <line x1="422" y1="185" x2="422" y2="185" stroke="#d1d5da" />
      <line x1="430" y1="185" x2="470" y2="185" stroke="#f97583" />
      <line x1="486" y1="185" x2="486" y2="185" stroke="#d1d5da" />
      <line x1="494" y1="185" x2="494" y2="185" stroke="#d1d5da" />
      <line x1="502" y1="185" x2="502" y2="185" stroke="#79b8ff" />
      <line x1="518" y1="185" x2="526" y2="185" stroke="#79b8ff" />
      <line x1="542" y1="185" x2="622" y2="185" stroke="#ffab70" />
      <line x1="630" y1="185" x2="630" y2="185" stroke="#d1d5da" />
      <line x1="646" y1="185" x2="646" y2="185" stroke="#d1d5da" />
      <line x1="662" y1="185" x2="662" y2="185" stroke="#d1d5da" />
      <line x1="670" y1="185" x2="670" y2="185" stroke="#d1d5da" />
      <line x1="678" y1="185" x2="678" y2="185" stroke="#79b8ff" />
      <line x1="694" y1="185" x2="694" y2="185" stroke="#d1d5da" />
      <line x1="710" y1="185" x2="718" y2="185" stroke="#79b8ff" />
      <line x1="726" y1="185" x2="726" y2="185" stroke="#d1d5da" />
    </g>
    <g class="code line">
      <line x1="46" y1="200" x2="78" y2="200" stroke="#f97583" />
      <line x1="86" y1="200" x2="86" y2="200" stroke="#d1d5da" />
      <line x1="102" y1="200" x2="102" y2="200" stroke="#d1d5da" />
      <line x1="110" y1="200" x2="110" y2="200" stroke="#d1d5da" />
      <line x1="126" y1="200" x2="126" y2="200" stroke="#d1d5da" />
      <line x1="134" y1="200" x2="134" y2="200" stroke="#d1d5da" />
      <line x1="150" y1="200" x2="150" y2="200" stroke="#d1d5da" />
      <line x1="166" y1="200" x2="166" y2="200" stroke="#79b8ff" />
      <line x1="182" y1="200" x2="190" y2="200" stroke="#79b8ff" />
      <line x1="206" y1="200" x2="206" y2="200" stroke="#d1d5da" />
      <line x1="222" y1="200" x2="222" y2="200" stroke="#79b8ff" />
      <line x1="238" y1="200" x2="238" y2="200" stroke="#d1d5da" />
      <line x1="254" y1="200" x2="254" y2="200" stroke="#79b8ff" />
      <line x1="262" y1="200" x2="262" y2="200" stroke="#d1d5da" />
      <line x1="278" y1="200" x2="278" y2="200" stroke="#79b8ff" />
      <line x1="286" y1="200" x2="286" y2="200" stroke="#d1d5da" />
      <line x1="302" y1="200" x2="302" y2="200" stroke="#79b8ff" />
      <line x1="310" y1="200" x2="310" y2="200" stroke="#d1d5da" />
      <line x1="326" y1="200" x2="326" y2="200" stroke="#79b8ff" />
      <line x1="342" y1="200" x2="342" y2="200" stroke="#d1d5da" />
      <line x1="350" y1="200" x2="350" y2="200" stroke="#d1d5da" />
    </g>
    <g class="code line">
      <line x1="46" y1="230" x2="78" y2="230" stroke="#f97583" />
      <line x1="86" y1="230" x2="86" y2="230" stroke="#d1d5da" />
      <line x1="102" y1="230" x2="102" y2="230" stroke="#79b8ff" />
      <line x1="118" y1="230" x2="118" y2="230" stroke="#d1d5da" />
      <line x1="126" y1="230" x2="126" y2="230" stroke="#79b8ff" />
      <line x1="134" y1="230" x2="134" y2="230" stroke="#d1d5da" />
      <line x1="142" y1="230" x2="142" y2="230" stroke="#79b8ff" />
      <line x1="150" y1="230" x2="150" y2="230" stroke="#d1d5da" />
      <line x1="158" y1="230" x2="158" y2="230" stroke="#d1d5da" />
      <line x1="174" y1="230" x2="174" y2="230" stroke="#d1d5da" />
      <line x1="190" y1="230" x2="190" y2="230" stroke="#79b8ff" />
      <line x1="206" y1="230" x2="206" y2="230" stroke="#d1d5da" />
      <line x1="214" y1="230" x2="214" y2="230" stroke="#d1d5da" />
      <line x1="222" y1="230" x2="222" y2="230" stroke="#79b8ff" />
      <line x1="230" y1="230" x2="230" y2="230" stroke="#d1d5da" />
      <line x1="238" y1="230" x2="238" y2="230" stroke="#d1d5da" />
      <line x1="254" y1="230" x2="254" y2="230" stroke="#d1d5da" />
      <line x1="270" y1="230" x2="270" y2="230" stroke="#79b8ff" />
      <line x1="286" y1="230" x2="286" y2="230" stroke="#d1d5da" />
      <line x1="294" y1="230" x2="294" y2="230" stroke="#d1d5da" />
      <line x1="302" y1="230" x2="302" y2="230" stroke="#79b8ff" />
      <line x1="310" y1="230" x2="310" y2="230" stroke="#d1d5da" />
      <line x1="318" y1="230" x2="318" y2="230" stroke="#d1d5da" />
      <line x1="334" y1="230" x2="334" y2="230" stroke="#d1d5da" />
      <line x1="350" y1="230" x2="350" y2="230" stroke="#79b8ff" />
      <line x1="366" y1="230" x2="366" y2="230" stroke="#d1d5da" />
      <line x1="374" y1="230" x2="414" y2="230" stroke="#f97583" />
      <line x1="430" y1="230" x2="430" y2="230" stroke="#d1d5da" />
      <line x1="438" y1="230" x2="438" y2="230" stroke="#d1d5da" />
      <line x1="446" y1="230" x2="446" y2="230" stroke="#79b8ff" />
      <line x1="454" y1="230" x2="454" y2="230" stroke="#d1d5da" />
      <line x1="470" y1="230" x2="478" y2="230" stroke="#79b8ff" />
      <line x1="494" y1="230" x2="574" y2="230" stroke="#ffab70" />
      <line x1="582" y1="230" x2="582" y2="230" stroke="#d1d5da" />
      <line x1="598" y1="230" x2="598" y2="230" stroke="#d1d5da" />
      <line x1="614" y1="230" x2="614" y2="230" stroke="#d1d5da" />
      <line x1="622" y1="230" x2="622" y2="230" stroke="#d1d5da" />
      <line x1="630" y1="230" x2="630" y2="230" stroke="#79b8ff" />
      <line x1="638" y1="230" x2="638" y2="230" stroke="#d1d5da" />
      <line x1="654" y1="230" x2="654" y2="230" stroke="#d1d5da" />
      <line x1="670" y1="230" x2="678" y2="230" stroke="#79b8ff" />
      <line x1="686" y1="230" x2="686" y2="230" stroke="#d1d5da" />
    </g>
    <g class="code line">
      <line x1="46" y1="245" x2="78" y2="245" stroke="#f97583" />
      <line x1="86" y1="245" x2="86" y2="245" stroke="#d1d5da" />
      <line x1="94" y1="245" x2="94" y2="245" stroke="#d1d5da" />
      <line x1="102" y1="245" x2="102" y2="245" stroke="#d1d5da" />
      <line x1="110" y1="245" x2="110" y2="245" stroke="#d1d5da" />
      <line x1="118" y1="245" x2="118" y2="245" stroke="#d1d5da" />
      <line x1="126" y1="245" x2="126" y2="245" stroke="#d1d5da" />
      <line x1="142" y1="245" x2="142" y2="245" stroke="#79b8ff" />
      <line x1="158" y1="245" x2="166" y2="245" stroke="#79b8ff" />
      <line x1="174" y1="245" x2="174" y2="245" stroke="#d1d5da" />
      <line x1="190" y1="245" x2="190" y2="245" stroke="#79b8ff" />
      <line x1="206" y1="245" x2="206" y2="245" stroke="#d1d5da" />
      <line x1="214" y1="245" x2="214" y2="245" stroke="#79b8ff" />
      <line x1="222" y1="245" x2="222" y2="245" stroke="#d1d5da" />
      <line x1="230" y1="245" x2="230" y2="245" stroke="#79b8ff" />
      <line x1="238" y1="245" x2="238" y2="245" stroke="#d1d5da" />
      <line x1="246" y1="245" x2="246" y2="245" stroke="#d1d5da" />
    </g>
    <g class="code line">
      <line x1="46" y1="275" x2="78" y2="275" stroke="#f97583" />
      <line x1="86" y1="275" x2="86" y2="275" stroke="#d1d5da" />
      <line x1="102" y1="275" x2="102" y2="275" stroke="#79b8ff" />
      <line x1="118" y1="275" x2="126" y2="275" stroke="#79b8ff" />
      <line x1="134" y1="275" x2="134" y2="275" stroke="#d1d5da" />
      <line x1="150" y1="275" x2="150" y2="275" stroke="#d1d5da" />
      <line x1="166" y1="275" x2="166" y2="275" stroke="#79b8ff" />
      <line x1="182" y1="275" x2="190" y2="275" stroke="#79b8ff" />
      <line x1="198" y1="275" x2="198" y2="275" stroke="#d1d5da" />
      <line x1="214" y1="275" x2="230" y2="275" stroke="#d1d5da" />
      <line x1="246" y1="275" x2="246" y2="275" stroke="#79b8ff" />
      <line x1="262" y1="275" x2="262" y2="275" stroke="#d1d5da" />
      <line x1="270" y1="275" x2="270" y2="275" stroke="#d1d5da" />
      <line x1="286" y1="275" x2="286" y2="275" stroke="#d1d5da" />
      <line x1="302" y1="275" x2="302" y2="275" stroke="#79b8ff" />
      <line x1="318" y1="275" x2="318" y2="275" stroke="#d1d5da" />
      <line x1="326" y1="275" x2="326" y2="275" stroke="#d1d5da" />
      <line x1="342" y1="275" x2="342" y2="275" stroke="#d1d5da" />
      <line x1="358" y1="275" x2="358" y2="275" stroke="#79b8ff" />
      <line x1="374" y1="275" x2="390" y2="275" stroke="#d1d5da" />
      <line x1="398" y1="275" x2="398" y2="275" stroke="#d1d5da" />
    </g>
    <g class="code line">
      <line x1="46" y1="290" x2="78" y2="290" stroke="#f97583" />
      <line x1="86" y1="290" x2="86" y2="290" stroke="#d1d5da" />
      <line x1="102" y1="290" x2="102" y2="290" stroke="#79b8ff" />
      <line x1="118" y1="290" x2="126" y2="290" stroke="#79b8ff" />
      <line x1="134" y1="290" x2="134" y2="290" stroke="#d1d5da" />
      <line x1="150" y1="290" x2="150" y2="290" stroke="#d1d5da" />
      <line x1="166" y1="290" x2="166" y2="290" stroke="#79b8ff" />
      <line x1="182" y1="290" x2="190" y2="290" stroke="#79b8ff" />
      <line x1="198" y1="290" x2="198" y2="290" stroke="#d1d5da" />
      <line x1="214" y1="290" x2="214" y2="290" stroke="#d1d5da" />
      <line x1="222" y1="290" x2="222" y2="290" stroke="#d1d5da" />
      <line x1="230" y1="290" x2="230" y2="290" stroke="#d1d5da" />
      <line x1="238" y1="290" x2="238" y2="290" stroke="#d1d5da" />
      <line x1="246" y1="290" x2="246" y2="290" stroke="#d1d5da" />
      <line x1="262" y1="290" x2="262" y2="290" stroke="#79b8ff" />
      <line x1="278" y1="290" x2="278" y2="290" stroke="#d1d5da" />
      <line x1="286" y1="290" x2="286" y2="290" stroke="#d1d5da" />
      <line x1="294" y1="290" x2="294" y2="290" stroke="#d1d5da" />
      <line x1="302" y1="290" x2="302" y2="290" stroke="#d1d5da" />
      <line x1="310" y1="290" x2="310" y2="290" stroke="#d1d5da" />
      <line x1="318" y1="290" x2="318" y2="290" stroke="#d1d5da" />
    </g>
    <g class="code line">
      <line x1="46" y1="320" x2="78" y2="320" stroke="#f97583" />
      <line x1="86" y1="320" x2="86" y2="320" stroke="#d1d5da" />
      <line x1="102" y1="320" x2="102" y2="320" stroke="#79b8ff" />
      <line x1="118" y1="320" x2="118" y2="320" stroke="#d1d5da" />
      <line x1="126" y1="320" x2="126" y2="320" stroke="#79b8ff" />
      <line x1="134" y1="320" x2="134" y2="320" stroke="#d1d5da" />
      <line x1="142" y1="320" x2="142" y2="320" stroke="#79b8ff" />
      <line x1="150" y1="320" x2="150" y2="320" stroke="#d1d5da" />
      <line x1="158" y1="320" x2="158" y2="320" stroke="#79b8ff" />
      <line x1="166" y1="320" x2="166" y2="320" stroke="#d1d5da" />
      <line x1="174" y1="320" x2="174" y2="320" stroke="#d1d5da" />
      <line x1="190" y1="320" x2="190" y2="320" stroke="#d1d5da" />
      <line x1="206" y1="320" x2="206" y2="320" stroke="#79b8ff" />
      <line x1="222" y1="320" x2="222" y2="320" stroke="#d1d5da" />
      <line x1="230" y1="320" x2="230" y2="320" stroke="#d1d5da" />
      <line x1="238" y1="320" x2="254" y2="320" stroke="#b392f0" />
      <line x1="262" y1="320" x2="262" y2="320" stroke="#d1d5da" />
      <line x1="270" y1="320" x2="270" y2="320" stroke="#d1d5da" />
      <line x1="278" y1="320" x2="278" y2="320" stroke="#d1d5da" />
      <line x1="294" y1="320" x2="294" y2="320" stroke="#d1d5da" />
      <line x1="310" y1="320" x2="310" y2="320" stroke="#79b8ff" />
      <line x1="326" y1="320" x2="326" y2="320" stroke="#d1d5da" />
      <line x1="334" y1="320" x2="334" y2="320" stroke="#d1d5da" />
      <line x1="342" y1="320" x2="382" y2="320" stroke="#b392f0" />
      <line x1="390" y1="320" x2="390" y2="320" stroke="#d1d5da" />
      <line x1="398" y1="320" x2="398" y2="320" stroke="#d1d5da" />
      <line x1="406" y1="320" x2="406" y2="320" stroke="#79b8ff" />
      <line x1="414" y1="320" x2="414" y2="320" stroke="#d1d5da" />
      <line x1="422" y1="320" x2="422" y2="320" stroke="#d1d5da" />
      <line x1="430" y1="320" x2="430" y2="320" stroke="#d1d5da" />
      <line x1="446" y1="320" x2="446" y2="320" stroke="#d1d5da" />
      <line x1="454" y1="320" x2="454" y2="320" stroke="#d1d5da" />
      <line x1="470" y1="320" x2="478" y2="320" stroke="#959da5" />
      <line x1="494" y1="320" x2="542" y2="320" stroke="#959da5" />
    </g>
    <g class="code line">
      <line x1="46" y1="335" x2="78" y2="335" stroke="#f97583" />
      <line x1="86" y1="335" x2="86" y2="335" stroke="#d1d5da" />
      <line x1="102" y1="335" x2="102" y2="335" stroke="#79b8ff" />
      <line x1="118" y1="335" x2="118" y2="335" stroke="#d1d5da" />
      <line x1="126" y1="335" x2="126" y2="335" stroke="#79b8ff" />
      <line x1="134" y1="335" x2="134" y2="335" stroke="#d1d5da" />
      <line x1="142" y1="335" x2="142" y2="335" stroke="#79b8ff" />
      <line x1="150" y1="335" x2="150" y2="335" stroke="#d1d5da" />
      <line x1="158" y1="335" x2="158" y2="335" stroke="#79b8ff" />
      <line x1="166" y1="335" x2="166" y2="335" stroke="#d1d5da" />
      <line x1="174" y1="335" x2="174" y2="335" stroke="#d1d5da" />
      <line x1="190" y1="335" x2="190" y2="335" stroke="#d1d5da" />
      <line x1="198" y1="335" x2="198" y2="335" stroke="#d1d5da" />
      <line x1="206" y1="335" x2="206" y2="335" stroke="#d1d5da" />
      <line x1="222" y1="335" x2="238" y2="335" stroke="#d1d5da" />
      <line x1="246" y1="335" x2="246" y2="335" stroke="#d1d5da" />
      <line x1="254" y1="335" x2="254" y2="335" stroke="#d1d5da" />
      <line x1="270" y1="335" x2="270" y2="335" stroke="#79b8ff" />
      <line x1="286" y1="335" x2="286" y2="335" stroke="#d1d5da" />
      <line x1="294" y1="335" x2="310" y2="335" stroke="#d1d5da" />
      <line x1="318" y1="335" x2="318" y2="335" stroke="#d1d5da" />
      <line x1="326" y1="335" x2="326" y2="335" stroke="#d1d5da" />
      <line x1="334" y1="335" x2="334" y2="335" stroke="#79b8ff" />
      <line x1="342" y1="335" x2="342" y2="335" stroke="#d1d5da" />
      <line x1="350" y1="335" x2="350" y2="335" stroke="#d1d5da" />
    </g>
    <g class="code line">
      <line x1="46" y1="365" x2="118" y2="365" stroke="#f97583" />
      <line x1="126" y1="365" x2="142" y2="365" stroke="#b392f0" />
      <line x1="150" y1="365" x2="150" y2="365" stroke="#d1d5da" />
      <line x1="158" y1="365" x2="158" y2="365" stroke="#d1d5da" />
      <line x1="166" y1="365" x2="166" y2="365" stroke="#d1d5da" />
      <line x1="182" y1="365" x2="182" y2="365" stroke="#d1d5da" />
      <line x1="198" y1="365" x2="214" y2="365" stroke="#f97583" />
      <line x1="230" y1="365" x2="230" y2="365" stroke="#d1d5da" />
      <line x1="246" y1="365" x2="246" y2="365" stroke="#79b8ff" />
      <line x1="262" y1="365" x2="262" y2="365" stroke="#d1d5da" />
      <line x1="270" y1="365" x2="270" y2="365" stroke="#d1d5da" />
      <line x1="278" y1="365" x2="278" y2="365" stroke="#79b8ff" />
      <line x1="286" y1="365" x2="286" y2="365" stroke="#d1d5da" />
      <line x1="302" y1="365" x2="302" y2="365" stroke="#d1d5da" />
      <line x1="318" y1="365" x2="318" y2="365" stroke="#79b8ff" />
      <line x1="334" y1="365" x2="334" y2="365" stroke="#d1d5da" />
      <line x1="342" y1="365" x2="342" y2="365" stroke="#d1d5da" />
      <line x1="350" y1="365" x2="350" y2="365" stroke="#79b8ff" />
      <line x1="358" y1="365" x2="358" y2="365" stroke="#d1d5da" />
      <line x1="374" y1="365" x2="374" y2="365" stroke="#d1d5da" />
      <line x1="382" y1="365" x2="382" y2="365" stroke="#d1d5da" />
      <line x1="398" y1="365" x2="398" y2="365" stroke="#d1d5da" />
      <line x1="406" y1="365" x2="406" y2="365" stroke="#d1d5da" />
      <line x1="422" y1="365" x2="438" y2="365" stroke="#b392f0" />
      <line x1="446" y1="365" x2="446" y2="365" stroke="#d1d5da" />
      <line x1="462" y1="365" x2="462" y2="365" stroke="#d1d5da" />
      <line x1="470" y1="365" x2="470" y2="365" stroke="#79b8ff" />
      <line x1="478" y1="365" x2="478" y2="365" stroke="#d1d5da" />
      <line x1="486" y1="365" x2="486" y2="365" stroke="#79b8ff" />
      <line x1="494" y1="365" x2="494" y2="365" stroke="#d1d5da" />
      <line x1="502" y1="365" x2="502" y2="365" stroke="#79b8ff" />
      <line x1="510" y1="365" x2="510" y2="365" stroke="#d1d5da" />
      <line x1="518" y1="365" x2="526" y2="365" stroke="#79b8ff" />
      <line x1="534" y1="365" x2="534" y2="365" stroke="#d1d5da" />
      <line x1="550" y1="365" x2="550" y2="365" stroke="#d1d5da" />
      <line x1="558" y1="365" x2="558" y2="365" stroke="#d1d5da" />
    </g>
    <g class="code line">
      <line x1="46" y1="380" x2="118" y2="380" stroke="#f97583" />
      <line x1="126" y1="380" x2="142" y2="380" stroke="#b392f0" />
      <line x1="150" y1="380" x2="150" y2="380" stroke="#d1d5da" />
      <line x1="158" y1="380" x2="158" y2="380" stroke="#d1d5da" />
      <line x1="166" y1="380" x2="166" y2="380" stroke="#d1d5da" />
      <line x1="174" y1="380" x2="174" y2="380" stroke="#d1d5da" />
      <line x1="182" y1="380" x2="182" y2="380" stroke="#d1d5da" />
      <line x1="190" y1="380" x2="190" y2="380" stroke="#d1d5da" />
      <line x1="198" y1="380" x2="198" y2="380" stroke="#d1d5da" />
      <line x1="214" y1="380" x2="214" y2="380" stroke="#d1d5da" />
      <line x1="230" y1="380" x2="230" y2="380" stroke="#d1d5da" />
      <line x1="238" y1="380" x2="238" y2="380" stroke="#d1d5da" />
      <line x1="254" y1="380" x2="254" y2="380" stroke="#d1d5da" />
      <line x1="262" y1="380" x2="262" y2="380" stroke="#d1d5da" />
      <line x1="278" y1="380" x2="294" y2="380" stroke="#b392f0" />
      <line x1="302" y1="380" x2="302" y2="380" stroke="#d1d5da" />
      <line x1="318" y1="380" x2="318" y2="380" stroke="#d1d5da" />
      <line x1="326" y1="380" x2="326" y2="380" stroke="#79b8ff" />
      <line x1="334" y1="380" x2="334" y2="380" stroke="#d1d5da" />
      <line x1="342" y1="380" x2="342" y2="380" stroke="#79b8ff" />
      <line x1="350" y1="380" x2="350" y2="380" stroke="#d1d5da" />
      <line x1="358" y1="380" x2="358" y2="380" stroke="#79b8ff" />
      <line x1="366" y1="380" x2="366" y2="380" stroke="#d1d5da" />
      <line x1="374" y1="380" x2="382" y2="380" stroke="#79b8ff" />
      <line x1="390" y1="380" x2="390" y2="380" stroke="#d1d5da" />
      <line x1="406" y1="380" x2="406" y2="380" stroke="#d1d5da" />
      <line x1="414" y1="380" x2="414" y2="380" stroke="#d1d5da" />
    </g>
  </g></svg>