<svg class="faux code" xmlns="http://www.w3.org/2000/svg" xmlns:xlink="http://www.w3.org/1999/xlink" width="2102" height="590" viewBox="0 0 2102 590">
  <rect x="0" y="0" width="2102" height="590" fill="#24292e" />
  <g class="code block" stroke-linecap="square" stroke-width="13">
    <g class="code line">
      <line x1="43.5" y1="50" x2="69.5" y2="50" stroke="#959da5" />
      <line x1="82.5" y1="50" x2="160.5" y2="50" stroke="#959da5" />
      <line x1="186.5" y1="50" x2="238.5" y2="50" stroke="#959da5" />
    </g>
    <g class="code line">
      <line x1="43.5" y1="60" x2="186.5" y2="60" stroke="#ffab70" />
      <line x1="199.5" y1="60" x2="199.5" y2="60" stroke="#ffab70" />
      <line x1="225.5" y1="60" x2="251.5" y2="60" stroke="#ffab70" />
      <line x1="277.5" y1="60" x2="355.5" y2="60" stroke="#ffab70" />
      <line x1="381.5" y1="60" x2="394.5" y2="60" stroke="#ffab70" />
      <line x1="420.5" y1="60" x2="459.5" y2="60" stroke="#ffab70" />
      <line x1="485.5" y1="60" x2="602.5" y2="60" stroke="#ffab70" />
      <line x1="628.5" y1="60" x2="680.5" y2="60" stroke="#ffab70" />
      <line x1="706.5" y1="60" x2="732.5" y2="60" stroke="#ffab70" />
      <line x1="758.5" y1="60" x2="823.5" y2="60" stroke="#ffab70" />
      <line x1="849.5" y1="60" x2="888.5" y2="60" stroke="#ffab70" />
      <line x1="914.5" y1="60" x2="940.5" y2="60" stroke="#ffab70" />
      <line x1="966.5" y1="60" x2="1005.5" y2="60" stroke="#ffab70" />
      <line x1="1031.5" y1="60" x2="1044.5" y2="60" stroke="#ffab70" />
      <line x1="1070.5" y1="60" x2="1109.5" y2="60" stroke="#ffab70" />
      <line x1="1135.5" y1="60" x2="1187.5" y2="60" stroke="#ffab70" />
      <line x1="1213.5" y1="60" x2="1343.5" y2="60" stroke="#ffab70" />
    </g>
    <g class="code line">
      <line x1="43.5" y1="80" x2="134.5" y2="80" stroke="#f97583" />
      <line x1="147.5" y1="80" x2="173.5" y2="80" stroke="#d1d5da" />
    </g>
    <g class="code line">
      <line x1="43.5" y1="90" x2="82.5" y2="90" stroke="#f97583" />
      <line x1="95.5" y1="90" x2="121.5" y2="90" stroke="#d1d5da" />
      <line x1="134.5" y1="90" x2="134.5" y2="90" stroke="#d1d5da" />
      <line x1="147.5" y1="90" x2="290.5" y2="90" stroke="#d1d5da" />
      <line x1="303.5" y1="90" x2="303.5" y2="90" stroke="#d1d5da" />
      <line x1="316.5" y1="90" x2="316.5" y2="90" stroke="#79b8ff" />
      <line x1="329.5" y1="90" x2="329.5" y2="90" stroke="#d1d5da" />
      <line x1="355.5" y1="90" x2="368.5" y2="90" stroke="#79b8ff" />
      <line x1="394.5" y1="90" x2="394.5" y2="90" stroke="#79b8ff" />
      <line x1="407.5" y1="90" x2="407.5" y2="90" stroke="#d1d5da" />
    </g>
    <g class="code line">
      <line x1="43.5" y1="100" x2="69.5" y2="100" stroke="#d1d5da" />
      <line x1="69.5" y1="100" x2="108.5" y2="100" stroke="#f97583" />
      <line x1="134.5" y1="100" x2="173.5" y2="100" stroke="#d1d5da" />
      <line x1="186.5" y1="100" x2="186.5" y2="100" stroke="#d1d5da" />
      <line x1="199.5" y1="100" x2="264.5" y2="100" stroke="#d1d5da" />
      <line x1="290.5" y1="100" x2="355.5" y2="100" stroke="#f97583" />
      <line x1="381.5" y1="100" x2="680.5" y2="100" stroke="#b392f0" />
      <line x1="693.5" y1="100" x2="693.5" y2="100" stroke="#d1d5da" />
      <line x1="719.5" y1="100" x2="836.5" y2="100" stroke="#b392f0" />
    </g>
    <g class="code line">
      <line x1="43.5" y1="110" x2="108.5" y2="110" stroke="#f97583" />
      <line x1="108.5" y1="110" x2="108.5" y2="110" stroke="#d1d5da" />
    </g>
    <g class="code line">
      <line x1="43.5" y1="120" x2="69.5" y2="120" stroke="#d1d5da" />
      <line x1="69.5" y1="120" x2="108.5" y2="120" stroke="#f97583" />
      <line x1="134.5" y1="120" x2="329.5" y2="120" stroke="#b392f0" />
      <line x1="355.5" y1="120" x2="420.5" y2="120" stroke="#f97583" />
      <line x1="446.5" y1="120" x2="745.5" y2="120" stroke="#b392f0" />
    </g>
    <g class="code line">
      <line x1="43.5" y1="130" x2="69.5" y2="130" stroke="#d1d5da" />
      <line x1="69.5" y1="130" x2="108.5" y2="130" stroke="#f97583" />
      <line x1="134.5" y1="130" x2="303.5" y2="130" stroke="#b392f0" />
      <line x1="329.5" y1="130" x2="394.5" y2="130" stroke="#f97583" />
      <line x1="420.5" y1="130" x2="537.5" y2="130" stroke="#b392f0" />
    </g>
    <g class="code line">
      <line x1="43.5" y1="150" x2="134.5" y2="150" stroke="#f97583" />
      <line x1="147.5" y1="150" x2="160.5" y2="150" stroke="#d1d5da" />
      <line x1="173.5" y1="150" x2="173.5" y2="150" stroke="#d1d5da" />
      <line x1="199.5" y1="150" x2="264.5" y2="150" stroke="#d1d5da" />
      <line x1="277.5" y1="150" x2="277.5" y2="150" stroke="#d1d5da" />
      <line x1="303.5" y1="150" x2="394.5" y2="150" stroke="#d1d5da" />
      <line x1="407.5" y1="150" x2="407.5" y2="150" stroke="#d1d5da" />
      <line x1="433.5" y1="150" x2="511.5" y2="150" stroke="#d1d5da" />
    </g>
    <g class="code line">
      <line x1="43.5" y1="160" x2="134.5" y2="160" stroke="#f97583" />
      <line x1="147.5" y1="160" x2="212.5" y2="160" stroke="#d1d5da" />
    </g>
    <g class="code line">
      <line x1="43.5" y1="180" x2="108.5" y2="180" stroke="#b392f0" />
      <line x1="121.5" y1="180" x2="121.5" y2="180" stroke="#79b8ff" />
      <line x1="147.5" y1="180" x2="186.5" y2="180" stroke="#79b8ff" />
    </g>
    <g class="code line">
      <line x1="43.5" y1="200" x2="95.5" y2="200" stroke="#f97583" />
      <line x1="108.5" y1="200" x2="277.5" y2="200" stroke="#b392f0" />
      <line x1="290.5" y1="200" x2="316.5" y2="200" stroke="#d1d5da" />
    </g>
    <g class="code line">
      <line x1="43.5" y1="210" x2="69.5" y2="210" stroke="#d1d5da" />
      <line x1="69.5" y1="210" x2="69.5" y2="210" stroke="#d1d5da" />
      <line x1="95.5" y1="210" x2="95.5" y2="210" stroke="#79b8ff" />
      <line x1="121.5" y1="210" x2="186.5" y2="210" stroke="#d1d5da" />
      <line x1="199.5" y1="210" x2="199.5" y2="210" stroke="#d1d5da" />
      <line x1="212.5" y1="210" x2="277.5" y2="210" stroke="#b392f0" />
      <line x1="290.5" y1="210" x2="290.5" y2="210" stroke="#d1d5da" />
      <line x1="303.5" y1="210" x2="368.5" y2="210" stroke="#d1d5da" />
      <line x1="381.5" y1="210" x2="381.5" y2="210" stroke="#d1d5da" />
      <line x1="394.5" y1="210" x2="472.5" y2="210" stroke="#b392f0" />
      <line x1="485.5" y1="210" x2="485.5" y2="210" stroke="#d1d5da" />
      <line x1="511.5" y1="210" x2="576.5" y2="210" stroke="#d1d5da" />
      <line x1="589.5" y1="210" x2="589.5" y2="210" stroke="#d1d5da" />
      <line x1="602.5" y1="210" x2="719.5" y2="210" stroke="#b392f0" />
      <line x1="732.5" y1="210" x2="732.5" y2="210" stroke="#d1d5da" />
    </g>
    <g class="code line">
      <line x1="43.5" y1="220" x2="69.5" y2="220" stroke="#d1d5da" />
      <line x1="69.5" y1="220" x2="69.5" y2="220" stroke="#d1d5da" />
      <line x1="82.5" y1="220" x2="82.5" y2="220" stroke="#d1d5da" />
      <line x1="95.5" y1="220" x2="173.5" y2="220" stroke="#b392f0" />
      <line x1="186.5" y1="220" x2="199.5" y2="220" stroke="#d1d5da" />
      <line x1="212.5" y1="220" x2="355.5" y2="220" stroke="#ffab70" />
      <line x1="368.5" y1="220" x2="368.5" y2="220" stroke="#d1d5da" />
      <line x1="394.5" y1="220" x2="407.5" y2="220" stroke="#79b8ff" />
      <line x1="420.5" y1="220" x2="433.5" y2="220" stroke="#d1d5da" />
    </g>
    <g class="code line">
      <line x1="43.5" y1="230" x2="69.5" y2="230" stroke="#d1d5da" />
      <line x1="69.5" y1="230" x2="186.5" y2="230" stroke="#d1d5da" />
      <line x1="212.5" y1="230" x2="212.5" y2="230" stroke="#79b8ff" />
      <line x1="238.5" y1="230" x2="238.5" y2="230" stroke="#d1d5da" />
      <line x1="251.5" y1="230" x2="251.5" y2="230" stroke="#d1d5da" />
      <line x1="264.5" y1="230" x2="394.5" y2="230" stroke="#b392f0" />
      <line x1="407.5" y1="230" x2="433.5" y2="230" stroke="#d1d5da" />
      <line x1="446.5" y1="230" x2="446.5" y2="230" stroke="#79b8ff" />
      <line x1="459.5" y1="230" x2="459.5" y2="230" stroke="#d1d5da" />
    </g>
    <g class="code line">
      <line x1="43.5" y1="240" x2="69.5" y2="240" stroke="#d1d5da" />
      <line x1="69.5" y1="240" x2="69.5" y2="240" stroke="#d1d5da" />
      <line x1="82.5" y1="240" x2="82.5" y2="240" stroke="#d1d5da" />
      <line x1="95.5" y1="240" x2="147.5" y2="240" stroke="#b392f0" />
      <line x1="160.5" y1="240" x2="173.5" y2="240" stroke="#d1d5da" />
    </g>
    <g class="code line">
      <line x1="43.5" y1="250" x2="69.5" y2="250" stroke="#d1d5da" />
      <line x1="69.5" y1="250" x2="134.5" y2="250" stroke="#f97583" />
      <line x1="160.5" y1="250" x2="277.5" y2="250" stroke="#d1d5da" />
    </g>
    <g class="code line">
      <line x1="43.5" y1="270" x2="95.5" y2="270" stroke="#f97583" />
      <line x1="108.5" y1="270" x2="147.5" y2="270" stroke="#b392f0" />
      <line x1="160.5" y1="270" x2="186.5" y2="270" stroke="#d1d5da" />
    </g>
    <g class="code line">
      <line x1="43.5" y1="280" x2="69.5" y2="280" stroke="#d1d5da" />
      <line x1="69.5" y1="280" x2="160.5" y2="280" stroke="#d1d5da" />
      <line x1="186.5" y1="280" x2="186.5" y2="280" stroke="#79b8ff" />
      <line x1="212.5" y1="280" x2="225.5" y2="280" stroke="#d1d5da" />
      <line x1="238.5" y1="280" x2="238.5" y2="280" stroke="#d1d5da" />
      <line x1="251.5" y1="280" x2="290.5" y2="280" stroke="#d1d5da" />
      <line x1="303.5" y1="280" x2="303.5" y2="280" stroke="#d1d5da" />
      <line x1="316.5" y1="280" x2="433.5" y2="280" stroke="#b392f0" />
      <line x1="446.5" y1="280" x2="446.5" y2="280" stroke="#d1d5da" />
      <line x1="459.5" y1="280" x2="615.5" y2="280" stroke="#ffab70" />
      <line x1="628.5" y1="280" x2="628.5" y2="280" stroke="#d1d5da" />
    </g>
    <g class="code line">
      <line x1="43.5" y1="290" x2="69.5" y2="290" stroke="#d1d5da" />
      <line x1="69.5" y1="290" x2="82.5" y2="290" stroke="#d1d5da" />
      <line x1="95.5" y1="290" x2="95.5" y2="290" stroke="#d1d5da" />
      <line x1="108.5" y1="290" x2="160.5" y2="290" stroke="#b392f0" />
      <line x1="173.5" y1="290" x2="173.5" y2="290" stroke="#d1d5da" />
      <line x1="186.5" y1="290" x2="277.5" y2="290" stroke="#d1d5da" />
      <line x1="290.5" y1="290" x2="290.5" y2="290" stroke="#d1d5da" />
    </g>
    <g class="code line">
      <line x1="43.5" y1="300" x2="69.5" y2="300" stroke="#d1d5da" />
      <line x1="69.5" y1="300" x2="199.5" y2="300" stroke="#d1d5da" />
      <line x1="225.5" y1="300" x2="225.5" y2="300" stroke="#79b8ff" />
      <line x1="251.5" y1="300" x2="264.5" y2="300" stroke="#d1d5da" />
      <line x1="277.5" y1="300" x2="277.5" y2="300" stroke="#d1d5da" />
      <line x1="290.5" y1="300" x2="329.5" y2="300" stroke="#d1d5da" />
      <line x1="342.5" y1="300" x2="342.5" y2="300" stroke="#d1d5da" />
      <line x1="355.5" y1="300" x2="394.5" y2="300" stroke="#b392f0" />
      <line x1="407.5" y1="300" x2="407.5" y2="300" stroke="#d1d5da" />
      <line x1="420.5" y1="300" x2="511.5" y2="300" stroke="#d1d5da" />
      <line x1="524.5" y1="300" x2="524.5" y2="300" stroke="#d1d5da" />
      <line x1="550.5" y1="300" x2="693.5" y2="300" stroke="#ffab70" />
      <line x1="706.5" y1="300" x2="706.5" y2="300" stroke="#d1d5da" />
    </g>
    <g class="code line">
      <line x1="43.5" y1="310" x2="69.5" y2="310" stroke="#d1d5da" />
      <line x1="69.5" y1="310" x2="82.5" y2="310" stroke="#f97583" />
      <line x1="108.5" y1="310" x2="121.5" y2="310" stroke="#d1d5da" />
      <line x1="134.5" y1="310" x2="134.5" y2="310" stroke="#d1d5da" />
      <line x1="147.5" y1="310" x2="186.5" y2="310" stroke="#d1d5da" />
      <line x1="199.5" y1="310" x2="199.5" y2="310" stroke="#d1d5da" />
      <line x1="212.5" y1="310" x2="277.5" y2="310" stroke="#b392f0" />
      <line x1="290.5" y1="310" x2="290.5" y2="310" stroke="#d1d5da" />
      <line x1="303.5" y1="310" x2="433.5" y2="310" stroke="#d1d5da" />
      <line x1="446.5" y1="310" x2="459.5" y2="310" stroke="#d1d5da" />
    </g>
    <g class="code line">
      <line x1="43.5" y1="320" x2="82.5" y2="320" stroke="#d1d5da" />
      <line x1="82.5" y1="320" x2="95.5" y2="320" stroke="#d1d5da" />
      <line x1="108.5" y1="320" x2="108.5" y2="320" stroke="#d1d5da" />
      <line x1="121.5" y1="320" x2="186.5" y2="320" stroke="#b392f0" />
      <line x1="199.5" y1="320" x2="199.5" y2="320" stroke="#d1d5da" />
      <line x1="212.5" y1="320" x2="342.5" y2="320" stroke="#d1d5da" />
      <line x1="355.5" y1="320" x2="355.5" y2="320" stroke="#d1d5da" />
    </g>
    <g class="code line">
      <line x1="43.5" y1="330" x2="69.5" y2="330" stroke="#d1d5da" />
      <line x1="69.5" y1="330" x2="121.5" y2="330" stroke="#b392f0" />
      <line x1="134.5" y1="330" x2="134.5" y2="330" stroke="#d1d5da" />
      <line x1="147.5" y1="330" x2="251.5" y2="330" stroke="#ffab70" />
      <line x1="277.5" y1="330" x2="342.5" y2="330" stroke="#ffab70" />
      <line x1="368.5" y1="330" x2="498.5" y2="330" stroke="#ffab70" />
      <line x1="511.5" y1="330" x2="511.5" y2="330" stroke="#d1d5da" />
    </g>
    <g class="code line">
      <line x1="43.5" y1="340" x2="69.5" y2="340" stroke="#d1d5da" />
      <line x1="69.5" y1="340" x2="134.5" y2="340" stroke="#d1d5da" />
      <line x1="147.5" y1="340" x2="147.5" y2="340" stroke="#d1d5da" />
      <line x1="160.5" y1="340" x2="303.5" y2="340" stroke="#b392f0" />
      <line x1="316.5" y1="340" x2="316.5" y2="340" stroke="#d1d5da" />
      <line x1="329.5" y1="340" x2="342.5" y2="340" stroke="#d1d5da" />
      <line x1="355.5" y1="340" x2="355.5" y2="340" stroke="#d1d5da" />
      <line x1="368.5" y1="340" x2="407.5" y2="340" stroke="#d1d5da" />
      <line x1="420.5" y1="340" x2="420.5" y2="340" stroke="#d1d5da" />
      <line x1="433.5" y1="340" x2="472.5" y2="340" stroke="#b392f0" />
      <line x1="485.5" y1="340" x2="485.5" y2="340" stroke="#d1d5da" />
      <line x1="498.5" y1="340" x2="589.5" y2="340" stroke="#d1d5da" />
      <line x1="602.5" y1="340" x2="602.5" y2="340" stroke="#d1d5da" />
      <line x1="615.5" y1="340" x2="732.5" y2="340" stroke="#b392f0" />
      <line x1="745.5" y1="340" x2="771.5" y2="340" stroke="#d1d5da" />
      <line x1="797.5" y1="340" x2="888.5" y2="340" stroke="#ffab70" />
      <line x1="901.5" y1="340" x2="914.5" y2="340" stroke="#d1d5da" />
      <line x1="940.5" y1="340" x2="992.5" y2="340" stroke="#ffab70" />
      <line x1="1005.5" y1="340" x2="1005.5" y2="340" stroke="#d1d5da" />
    </g>
    <g class="code line">
      <line x1="43.5" y1="350" x2="69.5" y2="350" stroke="#d1d5da" />
      <line x1="69.5" y1="350" x2="134.5" y2="350" stroke="#d1d5da" />
      <line x1="147.5" y1="350" x2="147.5" y2="350" stroke="#d1d5da" />
      <line x1="160.5" y1="350" x2="199.5" y2="350" stroke="#b392f0" />
      <line x1="212.5" y1="350" x2="212.5" y2="350" stroke="#d1d5da" />
      <line x1="225.5" y1="350" x2="238.5" y2="350" stroke="#d1d5da" />
      <line x1="251.5" y1="350" x2="251.5" y2="350" stroke="#d1d5da" />
      <line x1="264.5" y1="350" x2="303.5" y2="350" stroke="#d1d5da" />
      <line x1="316.5" y1="350" x2="316.5" y2="350" stroke="#d1d5da" />
      <line x1="329.5" y1="350" x2="368.5" y2="350" stroke="#b392f0" />
      <line x1="381.5" y1="350" x2="381.5" y2="350" stroke="#d1d5da" />
      <line x1="394.5" y1="350" x2="485.5" y2="350" stroke="#d1d5da" />
      <line x1="498.5" y1="350" x2="498.5" y2="350" stroke="#d1d5da" />
      <line x1="511.5" y1="350" x2="628.5" y2="350" stroke="#b392f0" />
      <line x1="641.5" y1="350" x2="667.5" y2="350" stroke="#d1d5da" />
      <line x1="693.5" y1="350" x2="836.5" y2="350" stroke="#ffab70" />
      <line x1="849.5" y1="350" x2="862.5" y2="350" stroke="#d1d5da" />
      <line x1="888.5" y1="350" x2="1018.5" y2="350" stroke="#d1d5da" />
      <line x1="1031.5" y1="350" x2="1031.5" y2="350" stroke="#d1d5da" />
    </g>
    <g class="code line">
      <line x1="43.5" y1="360" x2="69.5" y2="360" stroke="#d1d5da" />
      <line x1="69.5" y1="360" x2="121.5" y2="360" stroke="#b392f0" />
      <line x1="134.5" y1="360" x2="134.5" y2="360" stroke="#d1d5da" />
      <line x1="147.5" y1="360" x2="225.5" y2="360" stroke="#ffab70" />
      <line x1="251.5" y1="360" x2="329.5" y2="360" stroke="#ffab70" />
      <line x1="355.5" y1="360" x2="446.5" y2="360" stroke="#ffab70" />
      <line x1="472.5" y1="360" x2="563.5" y2="360" stroke="#ffab70" />
      <line x1="589.5" y1="360" x2="628.5" y2="360" stroke="#ffab70" />
      <line x1="654.5" y1="360" x2="797.5" y2="360" stroke="#ffab70" />
      <line x1="810.5" y1="360" x2="810.5" y2="360" stroke="#d1d5da" />
    </g>
    <g class="code line">
      <line x1="43.5" y1="370" x2="69.5" y2="370" stroke="#d1d5da" />
      <line x1="69.5" y1="370" x2="173.5" y2="370" stroke="#d1d5da" />
      <line x1="199.5" y1="370" x2="199.5" y2="370" stroke="#79b8ff" />
      <line x1="225.5" y1="370" x2="628.5" y2="370" stroke="#ffab70" />
      <line x1="654.5" y1="370" x2="654.5" y2="370" stroke="#79b8ff" />
      <line x1="680.5" y1="370" x2="680.5" y2="370" stroke="#d1d5da" />
      <line x1="693.5" y1="370" x2="732.5" y2="370" stroke="#b392f0" />
      <line x1="745.5" y1="370" x2="758.5" y2="370" stroke="#d1d5da" />
    </g>
    <g class="code line">
      <line x1="43.5" y1="380" x2="69.5" y2="380" stroke="#d1d5da" />
      <line x1="69.5" y1="380" x2="160.5" y2="380" stroke="#d1d5da" />
      <line x1="186.5" y1="380" x2="186.5" y2="380" stroke="#79b8ff" />
      <line x1="212.5" y1="380" x2="524.5" y2="380" stroke="#ffab70" />
      <line x1="550.5" y1="380" x2="550.5" y2="380" stroke="#79b8ff" />
      <line x1="576.5" y1="380" x2="576.5" y2="380" stroke="#d1d5da" />
      <line x1="589.5" y1="380" x2="758.5" y2="380" stroke="#b392f0" />
      <line x1="771.5" y1="380" x2="797.5" y2="380" stroke="#d1d5da" />
      <line x1="823.5" y1="380" x2="862.5" y2="380" stroke="#b392f0" />
      <line x1="875.5" y1="380" x2="875.5" y2="380" stroke="#d1d5da" />
    </g>
    <g class="code line">
      <line x1="43.5" y1="390" x2="69.5" y2="390" stroke="#d1d5da" />
      <line x1="69.5" y1="390" x2="134.5" y2="390" stroke="#d1d5da" />
      <line x1="160.5" y1="390" x2="160.5" y2="390" stroke="#79b8ff" />
      <line x1="186.5" y1="390" x2="303.5" y2="390" stroke="#b392f0" />
      <line x1="316.5" y1="390" x2="329.5" y2="390" stroke="#d1d5da" />
      <line x1="342.5" y1="390" x2="355.5" y2="390" stroke="#ffab70" />
      <line x1="368.5" y1="390" x2="368.5" y2="390" stroke="#d1d5da" />
      <line x1="394.5" y1="390" x2="433.5" y2="390" stroke="#b392f0" />
      <line x1="446.5" y1="390" x2="459.5" y2="390" stroke="#d1d5da" />
      <line x1="485.5" y1="390" x2="784.5" y2="390" stroke="#b392f0" />
      <line x1="797.5" y1="390" x2="797.5" y2="390" stroke="#d1d5da" />
    </g>
    <g class="code line">
      <line x1="43.5" y1="400" x2="69.5" y2="400" stroke="#d1d5da" />
      <line x1="69.5" y1="400" x2="147.5" y2="400" stroke="#d1d5da" />
      <line x1="160.5" y1="400" x2="160.5" y2="400" stroke="#d1d5da" />
      <line x1="173.5" y1="400" x2="225.5" y2="400" stroke="#b392f0" />
      <line x1="238.5" y1="400" x2="251.5" y2="400" stroke="#d1d5da" />
    </g>
    <g class="code line">
      <line x1="43.5" y1="410" x2="69.5" y2="410" stroke="#d1d5da" />
      <line x1="69.5" y1="410" x2="121.5" y2="410" stroke="#b392f0" />
      <line x1="134.5" y1="410" x2="134.5" y2="410" stroke="#d1d5da" />
      <line x1="147.5" y1="410" x2="186.5" y2="410" stroke="#ffab70" />
      <line x1="212.5" y1="410" x2="238.5" y2="410" stroke="#ffab70" />
      <line x1="264.5" y1="410" x2="290.5" y2="410" stroke="#ffab70" />
      <line x1="316.5" y1="410" x2="342.5" y2="410" stroke="#ffab70" />
      <line x1="368.5" y1="410" x2="472.5" y2="410" stroke="#ffab70" />
      <line x1="498.5" y1="410" x2="537.5" y2="410" stroke="#ffab70" />
      <line x1="563.5" y1="410" x2="576.5" y2="410" stroke="#ffab70" />
      <line x1="602.5" y1="410" x2="641.5" y2="410" stroke="#ffab70" />
      <line x1="667.5" y1="410" x2="693.5" y2="410" stroke="#ffab70" />
      <line x1="719.5" y1="410" x2="784.5" y2="410" stroke="#ffab70" />
      <line x1="810.5" y1="410" x2="836.5" y2="410" stroke="#ffab70" />
      <line x1="862.5" y1="410" x2="940.5" y2="410" stroke="#ffab70" />
      <line x1="966.5" y1="410" x2="979.5" y2="410" stroke="#ffab70" />
      <line x1="1005.5" y1="410" x2="1070.5" y2="410" stroke="#ffab70" />
      <line x1="1096.5" y1="410" x2="1148.5" y2="410" stroke="#ffab70" />
      <line x1="1174.5" y1="410" x2="1226.5" y2="410" stroke="#ffab70" />
      <line x1="1252.5" y1="410" x2="1278.5" y2="410" stroke="#ffab70" />
      <line x1="1304.5" y1="410" x2="1330.5" y2="410" stroke="#ffab70" />
      <line x1="1356.5" y1="410" x2="1447.5" y2="410" stroke="#ffab70" />
      <line x1="1473.5" y1="410" x2="1486.5" y2="410" stroke="#ffab70" />
      <line x1="1512.5" y1="410" x2="1525.5" y2="410" stroke="#ffab70" />
      <line x1="1551.5" y1="410" x2="1603.5" y2="410" stroke="#ffab70" />
      <line x1="1629.5" y1="410" x2="1668.5" y2="410" stroke="#ffab70" />
      <line x1="1694.5" y1="410" x2="1707.5" y2="410" stroke="#ffab70" />
      <line x1="1733.5" y1="410" x2="1772.5" y2="410" stroke="#ffab70" />
      <line x1="1798.5" y1="410" x2="1902.5" y2="410" stroke="#ffab70" />
      <line x1="1915.5" y1="410" x2="1915.5" y2="410" stroke="#d1d5da" />
    </g>
    <g class="code line">
      <line x1="43.5" y1="420" x2="69.5" y2="420" stroke="#d1d5da" />
      <line x1="69.5" y1="420" x2="147.5" y2="420" stroke="#d1d5da" />
      <line x1="160.5" y1="420" x2="160.5" y2="420" stroke="#d1d5da" />
      <line x1="173.5" y1="420" x2="290.5" y2="420" stroke="#b392f0" />
      <line x1="303.5" y1="420" x2="303.5" y2="420" stroke="#d1d5da" />
      <line x1="316.5" y1="420" x2="420.5" y2="420" stroke="#d1d5da" />
      <line x1="446.5" y1="420" x2="446.5" y2="420" stroke="#79b8ff" />
      <line x1="472.5" y1="420" x2="511.5" y2="420" stroke="#ffab70" />
      <line x1="524.5" y1="420" x2="524.5" y2="420" stroke="#d1d5da" />
      <line x1="550.5" y1="420" x2="654.5" y2="420" stroke="#ffab70" />
      <line x1="680.5" y1="420" x2="680.5" y2="420" stroke="#79b8ff" />
      <line x1="706.5" y1="420" x2="810.5" y2="420" stroke="#d1d5da" />
      <line x1="823.5" y1="420" x2="823.5" y2="420" stroke="#d1d5da" />
    </g>
    <g class="code line">
      <line x1="43.5" y1="430" x2="69.5" y2="430" stroke="#d1d5da" />
      <line x1="69.5" y1="430" x2="121.5" y2="430" stroke="#b392f0" />
      <line x1="134.5" y1="430" x2="134.5" y2="430" stroke="#d1d5da" />
      <line x1="147.5" y1="430" x2="199.5" y2="430" stroke="#ffab70" />
      <line x1="225.5" y1="430" x2="251.5" y2="430" stroke="#ffab70" />
      <line x1="277.5" y1="430" x2="316.5" y2="430" stroke="#ffab70" />
      <line x1="342.5" y1="430" x2="355.5" y2="430" stroke="#ffab70" />
      <line x1="381.5" y1="430" x2="472.5" y2="430" stroke="#ffab70" />
      <line x1="498.5" y1="430" x2="524.5" y2="430" stroke="#ffab70" />
      <line x1="550.5" y1="430" x2="615.5" y2="430" stroke="#ffab70" />
      <line x1="641.5" y1="430" x2="654.5" y2="430" stroke="#ffab70" />
      <line x1="680.5" y1="430" x2="758.5" y2="430" stroke="#ffab70" />
      <line x1="784.5" y1="430" x2="849.5" y2="430" stroke="#ffab70" />
      <line x1="875.5" y1="430" x2="888.5" y2="430" stroke="#ffab70" />
      <line x1="914.5" y1="430" x2="953.5" y2="430" stroke="#ffab70" />
      <line x1="979.5" y1="430" x2="1031.5" y2="430" stroke="#ffab70" />
      <line x1="1057.5" y1="430" x2="1096.5" y2="430" stroke="#ffab70" />
      <line x1="1122.5" y1="430" x2="1213.5" y2="430" stroke="#ffab70" />
      <line x1="1239.5" y1="430" x2="1291.5" y2="430" stroke="#ffab70" />
      <line x1="1317.5" y1="430" x2="1343.5" y2="430" stroke="#ffab70" />
      <line x1="1369.5" y1="430" x2="1473.5" y2="430" stroke="#ffab70" />
      <line x1="1499.5" y1="430" x2="1525.5" y2="430" stroke="#ffab70" />
      <line x1="1551.5" y1="430" x2="1564.5" y2="430" stroke="#ffab70" />
      <line x1="1590.5" y1="430" x2="1590.5" y2="430" stroke="#ffab70" />
      <line x1="1616.5" y1="430" x2="1642.5" y2="430" stroke="#ffab70" />
      <line x1="1668.5" y1="430" x2="1746.5" y2="430" stroke="#ffab70" />
      <line x1="1772.5" y1="430" x2="1785.5" y2="430" stroke="#ffab70" />
      <line x1="1811.5" y1="430" x2="1837.5" y2="430" stroke="#ffab70" />
      <line x1="1863.5" y1="430" x2="1915.5" y2="430" stroke="#ffab70" />
      <line x1="1941.5" y1="430" x2="2032.5" y2="430" stroke="#ffab70" />
      <line x1="2045.5" y1="430" x2="2045.5" y2="430" stroke="#d1d5da" />
    </g>
    <g class="code line">
      <line x1="43.5" y1="440" x2="69.5" y2="440" stroke="#d1d5da" />
      <line x1="69.5" y1="440" x2="121.5" y2="440" stroke="#b392f0" />
      <line x1="134.5" y1="440" x2="134.5" y2="440" stroke="#d1d5da" />
      <line x1="147.5" y1="440" x2="238.5" y2="440" stroke="#d1d5da" />
      <line x1="251.5" y1="440" x2="251.5" y2="440" stroke="#d1d5da" />
    </g>
    <g class="code line">
      <line x1="43.5" y1="450" x2="69.5" y2="450" stroke="#d1d5da" />
      <line x1="69.5" y1="450" x2="121.5" y2="450" stroke="#b392f0" />
      <line x1="134.5" y1="450" x2="134.5" y2="450" stroke="#d1d5da" />
      <line x1="147.5" y1="450" x2="290.5" y2="450" stroke="#ffab70" />
      <line x1="316.5" y1="450" x2="342.5" y2="450" stroke="#ffab70" />
      <line x1="368.5" y1="450" x2="407.5" y2="450" stroke="#ffab70" />
      <line x1="433.5" y1="450" x2="498.5" y2="450" stroke="#ffab70" />
      <line x1="524.5" y1="450" x2="537.5" y2="450" stroke="#ffab70" />
      <line x1="563.5" y1="450" x2="589.5" y2="450" stroke="#ffab70" />
      <line x1="615.5" y1="450" x2="680.5" y2="450" stroke="#ffab70" />
      <line x1="706.5" y1="450" x2="719.5" y2="450" stroke="#ffab70" />
      <line x1="745.5" y1="450" x2="823.5" y2="450" stroke="#ffab70" />
      <line x1="849.5" y1="450" x2="888.5" y2="450" stroke="#ffab70" />
      <line x1="914.5" y1="450" x2="992.5" y2="450" stroke="#ffab70" />
      <line x1="1018.5" y1="450" x2="1083.5" y2="450" stroke="#ffab70" />
      <line x1="1096.5" y1="450" x2="1096.5" y2="450" stroke="#d1d5da" />
    </g>
    <g class="code line">
      <line x1="43.5" y1="460" x2="69.5" y2="460" stroke="#d1d5da" />
      <line x1="69.5" y1="460" x2="95.5" y2="460" stroke="#f97583" />
      <line x1="108.5" y1="460" x2="108.5" y2="460" stroke="#d1d5da" />
    </g>
    <g class="code line">
      <line x1="43.5" y1="470" x2="82.5" y2="470" stroke="#d1d5da" />
      <line x1="82.5" y1="470" x2="147.5" y2="470" stroke="#d1d5da" />
      <line x1="160.5" y1="470" x2="160.5" y2="470" stroke="#d1d5da" />
      <line x1="173.5" y1="470" x2="329.5" y2="470" stroke="#b392f0" />
      <line x1="342.5" y1="470" x2="355.5" y2="470" stroke="#d1d5da" />
    </g>
    <g class="code line">
      <line x1="43.5" y1="480" x2="69.5" y2="480" stroke="#d1d5da" />
      <line x1="69.5" y1="480" x2="134.5" y2="480" stroke="#f97583" />
      <line x1="160.5" y1="480" x2="368.5" y2="480" stroke="#b392f0" />
      <line x1="381.5" y1="480" x2="381.5" y2="480" stroke="#d1d5da" />
    </g>
    <g class="code line">
      <line x1="43.5" y1="490" x2="82.5" y2="490" stroke="#d1d5da" />
      <line x1="82.5" y1="490" x2="147.5" y2="490" stroke="#d1d5da" />
      <line x1="160.5" y1="490" x2="160.5" y2="490" stroke="#d1d5da" />
      <line x1="173.5" y1="490" x2="264.5" y2="490" stroke="#b392f0" />
      <line x1="277.5" y1="490" x2="290.5" y2="490" stroke="#d1d5da" />
    </g>
    <g class="code line">
      <line x1="43.5" y1="500" x2="82.5" y2="500" stroke="#d1d5da" />
      <line x1="82.5" y1="500" x2="147.5" y2="500" stroke="#d1d5da" />
      <line x1="160.5" y1="500" x2="160.5" y2="500" stroke="#d1d5da" />
      <line x1="173.5" y1="500" x2="238.5" y2="500" stroke="#d1d5da" />
      <line x1="251.5" y1="500" x2="251.5" y2="500" stroke="#d1d5da" />
      <line x1="264.5" y1="500" x2="316.5" y2="500" stroke="#b392f0" />
      <line x1="329.5" y1="500" x2="342.5" y2="500" stroke="#d1d5da" />
    </g>
    <g class="code line">
      <line x1="43.5" y1="510" x2="82.5" y2="510" stroke="#d1d5da" />
      <line x1="82.5" y1="510" x2="134.5" y2="510" stroke="#b392f0" />
      <line x1="147.5" y1="510" x2="147.5" y2="510" stroke="#d1d5da" />
      <line x1="160.5" y1="510" x2="238.5" y2="510" stroke="#ffab70" />
      <line x1="264.5" y1="510" x2="355.5" y2="510" stroke="#ffab70" />
      <line x1="368.5" y1="510" x2="368.5" y2="510" stroke="#d1d5da" />
    </g>
    <g class="code line">
      <line x1="43.5" y1="530" x2="82.5" y2="530" stroke="#f97583" />
      <line x1="95.5" y1="530" x2="186.5" y2="530" stroke="#d1d5da" />
      <line x1="212.5" y1="530" x2="225.5" y2="530" stroke="#79b8ff" />
      <line x1="251.5" y1="530" x2="368.5" y2="530" stroke="#ffab70" />
      <line x1="381.5" y1="530" x2="381.5" y2="530" stroke="#d1d5da" />
    </g>
    <g class="code line">
      <line x1="43.5" y1="540" x2="69.5" y2="540" stroke="#d1d5da" />
      <line x1="69.5" y1="540" x2="108.5" y2="540" stroke="#b392f0" />
      <line x1="121.5" y1="540" x2="134.5" y2="540" stroke="#d1d5da" />
    </g>
  </g>  <g class="line numbers" stroke="#959da5" stroke-linecap="square" stroke-width="13">
      <line x1="4.5" y1="50" x2="4.5" y2="50" />
      <line x1="4.5" y1="60" x2="4.5" y2="60" />
      <line x1="4.5" y1="70" x2="4.5" y2="70" />
      <line x1="4.5" y1="80" x2="4.5" y2="80" />
      <line x1="4.5" y1="90" x2="4.5" y2="90" />
      <line x1="4.5" y1="100" x2="4.5" y2="100" />
      <line x1="4.5" y1="110" x2="4.5" y2="110" />
      <line x1="4.5" y1="120" x2="4.5" y2="120" />
      <line x1="4.5" y1="130" x2="4.5" y2="130" />
      <line x1="4.5" y1="140" x2="-8.5" y2="140" />
      <line x1="4.5" y1="150" x2="-8.5" y2="150" />
      <line x1="4.5" y1="160" x2="-8.5" y2="160" />
      <line x1="4.5" y1="170" x2="-8.5" y2="170" />
      <line x1="4.5" y1="180" x2="-8.5" y2="180" />
      <line x1="4.5" y1="190" x2="-8.5" y2="190" />
      <line x1="4.5" y1="200" x2="-8.5" y2="200" />
      <line x1="4.5" y1="210" x2="-8.5" y2="210" />
      <line x1="4.5" y1="220" x2="-8.5" y2="220" />
      <line x1="4.5" y1="230" x2="-8.5" y2="230" />
      <line x1="4.5" y1="240" x2="-8.5" y2="240" />
      <line x1="4.5" y1="250" x2="-8.5" y2="250" />
      <line x1="4.5" y1="260" x2="-8.5" y2="260" />
      <line x1="4.5" y1="270" x2="-8.5" y2="270" />
      <line x1="4.5" y1="280" x2="-8.5" y2="280" />
      <line x1="4.5" y1="290" x2="-8.5" y2="290" />
      <line x1="4.5" y1="300" x2="-8.5" y2="300" />
      <line x1="4.5" y1="310" x2="-8.5" y2="310" />
      <line x1="4.5" y1="320" x2="-8.5" y2="320" />
      <line x1="4.5" y1="330" x2="-8.5" y2="330" />
      <line x1="4.5" y1="340" x2="-8.5" y2="340" />
      <line x1="4.5" y1="350" x2="-8.5" y2="350" />
      <line x1="4.5" y1="360" x2="-8.5" y2="360" />
      <line x1="4.5" y1="370" x2="-8.5" y2="370" />
      <line x1="4.5" y1="380" x2="-8.5" y2="380" />
      <line x1="4.5" y1="390" x2="-8.5" y2="390" />
      <line x1="4.5" y1="400" x2="-8.5" y2="400" />
      <line x1="4.5" y1="410" x2="-8.5" y2="410" />
      <line x1="4.5" y1="420" x2="-8.5" y2="420" />
      <line x1="4.5" y1="430" x2="-8.5" y2="430" />
      <line x1="4.5" y1="440" x2="-8.5" y2="440" />
      <line x1="4.5" y1="450" x2="-8.5" y2="450" />
      <line x1="4.5" y1="460" x2="-8.5" y2="460" />
      <line x1="4.5" y1="470" x2="-8.5" y2="470" />
      <line x1="4.5" y1="480" x2="-8.5" y2="480" />
      <line x1="4.5" y1="490" x2="-8.5" y2="490" />
      <line x1="4.5" y1="500" x2="-8.5" y2="500" />
      <line x1="4.5" y1="510" x2="-8.5" y2="510" />
      <line x1="4.5" y1="520" x2="-8.5" y2="520" />
      <line x1="4.5" y1="530" x2="-8.5" y2="530" />
      <line x1="4.5" y1="540" x2="-8.5" y2="540" />
  </g>
</svg>