<svg class="faux code" xmlns="http://www.w3.org/2000/svg" xmlns:xlink="http://www.w3.org/1999/xlink" width="620" height="520" viewBox="0 0 620 520">
  <rect x="0" y="0" width="620" height="520" fill="none" />
  <g class="code block" stroke-linecap="square" stroke-width="8">
    <g class="code line">
      <line x1="46" y1="50" x2="110" y2="50" stroke="#66D9EF" />
      <line x1="118" y1="50" x2="142" y2="50" stroke="#F92772" />
    </g>
    <g class="code line">
      <line x1="46" y1="80" x2="102" y2="80" stroke="#66D9EF" />
      <line x1="110" y1="80" x2="110" y2="80" stroke="#F92772" />
    </g>
    <g class="code line">
      <line x1="46" y1="95" x2="62" y2="95" stroke="#F92772" />
      <line x1="62" y1="95" x2="174" y2="95" stroke="#F92772" />
    </g>
    <g class="code line">
      <line x1="46" y1="110" x2="62" y2="110" stroke="#F92772" />
      <line x1="62" y1="110" x2="94" y2="110" stroke="#F92772" />
    </g>
    <g class="code line">
      <line x1="46" y1="125" x2="62" y2="125" stroke="#F92772" />
      <line x1="62" y1="125" x2="134" y2="125" stroke="#F92772" />
    </g>
    <g class="code line">
      <line x1="46" y1="140" x2="62" y2="140" stroke="#F92772" />
    </g>
    <g class="code line">
      <line x1="46" y1="170" x2="86" y2="170" stroke="#66D9EF" />
      <line x1="94" y1="170" x2="174" y2="170" stroke="#F92772" />
      <line x1="190" y1="170" x2="230" y2="170" stroke="#66D9EF" />
      <line x1="246" y1="170" x2="246" y2="170" stroke="#F92772" />
    </g>
    <g class="code line">
      <line x1="46" y1="185" x2="62" y2="185" stroke="#F92772" />
      <line x1="62" y1="185" x2="86" y2="185" stroke="#99E403" />
      <line x1="102" y1="185" x2="142" y2="185" stroke="#F92772" />
    </g>
    <g class="code line">
      <line x1="46" y1="200" x2="62" y2="200" stroke="#F92772" />
    </g>
    <g class="code line">
      <line x1="46" y1="230" x2="86" y2="230" stroke="#66D9EF" />
      <line x1="94" y1="230" x2="174" y2="230" stroke="#6f42c1" />
      <line x1="182" y1="230" x2="182" y2="230" stroke="#F92772" />
      <line x1="190" y1="230" x2="198" y2="230" stroke="#F92772" />
      <line x1="214" y1="230" x2="246" y2="230" stroke="#F92772" />
      <line x1="254" y1="230" x2="358" y2="230" stroke="#F92772" />
      <line x1="366" y1="230" x2="366" y2="230" stroke="#F92772" />
      <line x1="382" y1="230" x2="430" y2="230" stroke="#F92772" />
      <line x1="446" y1="230" x2="446" y2="230" stroke="#99E403" />
      <line x1="454" y1="230" x2="486" y2="230" stroke="#F92772" />
      <line x1="494" y1="230" x2="542" y2="230" stroke="#F92772" />
      <line x1="550" y1="230" x2="550" y2="230" stroke="#F92772" />
      <line x1="566" y1="230" x2="566" y2="230" stroke="#F92772" />
    </g>
    <g class="code line">
      <line x1="46" y1="245" x2="62" y2="245" stroke="#F92772" />
      <line x1="62" y1="245" x2="110" y2="245" stroke="#F92772" />
      <line x1="126" y1="245" x2="134" y2="245" stroke="#99E403" />
      <line x1="150" y1="245" x2="174" y2="245" stroke="#F92772" />
      <line x1="182" y1="245" x2="182" y2="245" stroke="#F92772" />
      <line x1="190" y1="245" x2="262" y2="245" stroke="#6f42c1" />
      <line x1="270" y1="245" x2="270" y2="245" stroke="#F92772" />
      <line x1="278" y1="245" x2="326" y2="245" stroke="#F92772" />
      <line x1="334" y1="245" x2="334" y2="245" stroke="#F92772" />
      <line x1="342" y1="245" x2="366" y2="245" stroke="#99E403" />
      <line x1="374" y1="245" x2="374" y2="245" stroke="#F92772" />
    </g>
    <g class="code line">
      <line x1="46" y1="275" x2="62" y2="275" stroke="#F92772" />
      <line x1="62" y1="275" x2="78" y2="275" stroke="#66D9EF" />
      <line x1="94" y1="275" x2="94" y2="275" stroke="#F92772" />
      <line x1="110" y1="275" x2="190" y2="275" stroke="#F92772" />
    </g>
    <g class="code line">
      <line x1="46" y1="290" x2="62" y2="290" stroke="#F92772" />
      <line x1="62" y1="290" x2="78" y2="290" stroke="#F92772" />
      <line x1="94" y1="290" x2="102" y2="290" stroke="#99E403" />
      <line x1="118" y1="290" x2="166" y2="290" stroke="#F92772" />
      <line x1="174" y1="290" x2="174" y2="290" stroke="#F92772" />
      <line x1="182" y1="290" x2="222" y2="290" stroke="#6f42c1" />
      <line x1="230" y1="290" x2="230" y2="290" stroke="#F92772" />
      <line x1="238" y1="290" x2="238" y2="290" stroke="#99E403" />
      <line x1="246" y1="290" x2="246" y2="290" stroke="#F92772" />
      <line x1="254" y1="290" x2="254" y2="290" stroke="#F92772" />
    </g>
    <g class="code line">
      <line x1="46" y1="320" x2="62" y2="320" stroke="#F92772" />
      <line x1="62" y1="320" x2="70" y2="320" stroke="#66D9EF" />
      <line x1="86" y1="320" x2="102" y2="320" stroke="#F92772" />
      <line x1="118" y1="320" x2="126" y2="320" stroke="#99E403" />
      <line x1="142" y1="320" x2="158" y2="320" stroke="#99E403" />
      <line x1="174" y1="320" x2="174" y2="320" stroke="#F92772" />
    </g>
    <g class="code line">
      <line x1="46" y1="335" x2="70" y2="335" stroke="#F92772" />
      <line x1="70" y1="335" x2="102" y2="335" stroke="#6f42c1" />
      <line x1="110" y1="335" x2="110" y2="335" stroke="#F92772" />
      <line x1="118" y1="335" x2="134" y2="335" stroke="#F92772" />
      <line x1="142" y1="335" x2="142" y2="335" stroke="#F92772" />
    </g>
    <g class="code line">
      <line x1="46" y1="350" x2="70" y2="350" stroke="#F92772" />
    </g>
    <g class="code line">
      <line x1="46" y1="380" x2="62" y2="380" stroke="#F92772" />
      <line x1="62" y1="380" x2="78" y2="380" stroke="#F92772" />
      <line x1="86" y1="380" x2="86" y2="380" stroke="#F92772" />
      <line x1="94" y1="380" x2="142" y2="380" stroke="#6f42c1" />
      <line x1="150" y1="380" x2="150" y2="380" stroke="#F92772" />
      <line x1="158" y1="380" x2="158" y2="380" stroke="#F92772" />
      <line x1="166" y1="380" x2="166" y2="380" stroke="#F92772" />
      <line x1="174" y1="380" x2="198" y2="380" stroke="#99E403" />
      <line x1="206" y1="380" x2="206" y2="380" stroke="#F92772" />
    </g>
    <g class="code line">
      <line x1="46" y1="395" x2="62" y2="395" stroke="#F92772" />
    </g>
    <g class="code line">
      <line x1="46" y1="425" x2="86" y2="425" stroke="#66D9EF" />
      <line x1="94" y1="425" x2="118" y2="425" stroke="#6f42c1" />
      <line x1="126" y1="425" x2="134" y2="425" stroke="#F92772" />
      <line x1="150" y1="425" x2="150" y2="425" stroke="#F92772" />
    </g>
    <g class="code line">
      <line x1="46" y1="440" x2="62" y2="440" stroke="#F92772" />
      <line x1="62" y1="440" x2="86" y2="440" stroke="#F92772" />
      <line x1="94" y1="440" x2="94" y2="440" stroke="#F92772" />
      <line x1="102" y1="440" x2="174" y2="440" stroke="#6f42c1" />
      <line x1="182" y1="440" x2="182" y2="440" stroke="#F92772" />
      <line x1="190" y1="440" x2="206" y2="440" stroke="#F92772" />
      <line x1="214" y1="440" x2="214" y2="440" stroke="#F92772" />
      <line x1="230" y1="440" x2="310" y2="440" stroke="#F92772" />
      <line x1="318" y1="440" x2="318" y2="440" stroke="#F92772" />
    </g>
    <g class="code line">
      <line x1="46" y1="455" x2="62" y2="455" stroke="#F92772" />
      <line x1="62" y1="455" x2="86" y2="455" stroke="#F92772" />
      <line x1="94" y1="455" x2="94" y2="455" stroke="#F92772" />
      <line x1="102" y1="455" x2="206" y2="455" stroke="#6f42c1" />
      <line x1="214" y1="455" x2="214" y2="455" stroke="#F92772" />
      <line x1="222" y1="455" x2="270" y2="455" stroke="#F92772" />
      <line x1="278" y1="455" x2="278" y2="455" stroke="#F92772" />
      <line x1="294" y1="455" x2="310" y2="455" stroke="#99E403" />
      <line x1="318" y1="455" x2="318" y2="455" stroke="#F92772" />
    </g>
    <g class="code line">
      <line x1="46" y1="470" x2="62" y2="470" stroke="#F92772" />
    </g>
  </g></svg>