<svg class="faux code" xmlns="http://www.w3.org/2000/svg" xmlns:xlink="http://www.w3.org/1999/xlink" width="924" height="1465" viewBox="0 0 924 1465">
  <rect x="0" y="0" width="924" height="1465" fill="none" />
  <g class="code block" stroke-linecap="square" stroke-width="8">
    <g class="code line">
      <line x1="46" y1="50" x2="78" y2="50" stroke="#959da5" />
    </g>
    <g class="code line">
      <line x1="62" y1="65" x2="62" y2="65" stroke="#959da5" />
      <line x1="78" y1="65" x2="166" y2="65" stroke="#959da5" />
      <line x1="182" y1="65" x2="254" y2="65" stroke="#959da5" />
    </g>
    <g class="code line">
      <line x1="62" y1="80" x2="62" y2="80" stroke="#959da5" />
      <line x1="78" y1="80" x2="118" y2="80" stroke="#959da5" />
      <line x1="134" y1="80" x2="246" y2="80" stroke="#959da5" />
      <line x1="262" y1="80" x2="286" y2="80" stroke="#959da5" />
    </g>
    <g class="code line">
      <line x1="62" y1="95" x2="62" y2="95" stroke="#959da5" />
      <line x1="78" y1="95" x2="118" y2="95" stroke="#959da5" />
      <line x1="134" y1="95" x2="190" y2="95" stroke="#959da5" />
      <line x1="206" y1="95" x2="222" y2="95" stroke="#959da5" />
    </g>
    <g class="code line">
      <line x1="62" y1="110" x2="70" y2="110" stroke="#959da5" />
    </g>
    <g class="code line">
      <line x1="46" y1="125" x2="102" y2="125" stroke="#f97583" />
      <line x1="110" y1="125" x2="166" y2="125" stroke="#f97583" />
      <line x1="182" y1="125" x2="262" y2="125" stroke="#b392f0" />
      <line x1="270" y1="125" x2="270" y2="125" stroke="#d1d5da" />
      <line x1="278" y1="125" x2="302" y2="125" stroke="#d1d5da" />
      <line x1="310" y1="125" x2="310" y2="125" stroke="#d1d5da" />
      <line x1="326" y1="125" x2="342" y2="125" stroke="#d1d5da" />
      <line x1="350" y1="125" x2="350" y2="125" stroke="#d1d5da" />
      <line x1="366" y1="125" x2="366" y2="125" stroke="#d1d5da" />
    </g>
    <g class="code line">
      <line x1="70" y1="140" x2="86" y2="140" stroke="#d1d5da" />
      <line x1="102" y1="140" x2="102" y2="140" stroke="#79b8ff" />
      <line x1="118" y1="140" x2="134" y2="140" stroke="#d1d5da" />
      <line x1="150" y1="140" x2="158" y2="140" stroke="#79b8ff" />
      <line x1="174" y1="140" x2="262" y2="140" stroke="#ffab70" />
      <line x1="270" y1="140" x2="270" y2="140" stroke="#d1d5da" />
    </g>
    <g class="code line">
      <line x1="70" y1="155" x2="94" y2="155" stroke="#d1d5da" />
      <line x1="110" y1="155" x2="110" y2="155" stroke="#79b8ff" />
      <line x1="126" y1="155" x2="190" y2="155" stroke="#b392f0" />
      <line x1="198" y1="155" x2="198" y2="155" stroke="#d1d5da" />
      <line x1="206" y1="155" x2="230" y2="155" stroke="#d1d5da" />
      <line x1="238" y1="155" x2="238" y2="155" stroke="#d1d5da" />
      <line x1="246" y1="155" x2="246" y2="155" stroke="#d1d5da" />
    </g>
    <g class="code line">
      <line x1="70" y1="170" x2="86" y2="170" stroke="#f97583" />
      <line x1="102" y1="170" x2="126" y2="170" stroke="#d1d5da" />
      <line x1="142" y1="170" x2="142" y2="170" stroke="#79b8ff" />
      <line x1="158" y1="170" x2="174" y2="170" stroke="#f97583" />
      <line x1="190" y1="170" x2="214" y2="170" stroke="#b392f0" />
      <line x1="222" y1="170" x2="222" y2="170" stroke="#d1d5da" />
      <line x1="230" y1="170" x2="254" y2="170" stroke="#d1d5da" />
      <line x1="262" y1="170" x2="262" y2="170" stroke="#d1d5da" />
      <line x1="270" y1="170" x2="270" y2="170" stroke="#d1d5da" />
    </g>
    <g class="code line">
      <line x1="70" y1="185" x2="78" y2="185" stroke="#f97583" />
      <line x1="94" y1="185" x2="94" y2="185" stroke="#d1d5da" />
      <line x1="102" y1="185" x2="142" y2="185" stroke="#ffab70" />
      <line x1="150" y1="185" x2="150" y2="185" stroke="#d1d5da" />
      <line x1="158" y1="185" x2="182" y2="185" stroke="#b392f0" />
      <line x1="190" y1="185" x2="190" y2="185" stroke="#d1d5da" />
      <line x1="198" y1="185" x2="214" y2="185" stroke="#d1d5da" />
      <line x1="222" y1="185" x2="222" y2="185" stroke="#d1d5da" />
      <line x1="230" y1="185" x2="230" y2="185" stroke="#d1d5da" />
      <line x1="246" y1="185" x2="246" y2="185" stroke="#d1d5da" />
    </g>
    <g class="code line">
      <line x1="86" y1="200" x2="102" y2="200" stroke="#d1d5da" />
      <line x1="118" y1="200" x2="118" y2="200" stroke="#79b8ff" />
      <line x1="134" y1="200" x2="150" y2="200" stroke="#d1d5da" />
      <line x1="158" y1="200" x2="158" y2="200" stroke="#d1d5da" />
      <line x1="166" y1="200" x2="214" y2="200" stroke="#b392f0" />
      <line x1="222" y1="200" x2="222" y2="200" stroke="#d1d5da" />
      <line x1="230" y1="200" x2="270" y2="200" stroke="#b392f0" />
      <line x1="278" y1="200" x2="278" y2="200" stroke="#d1d5da" />
      <line x1="286" y1="200" x2="294" y2="200" stroke="#79b8ff" />
      <line x1="302" y1="200" x2="302" y2="200" stroke="#d1d5da" />
      <line x1="318" y1="200" x2="318" y2="200" stroke="#d1d5da" />
      <line x1="326" y1="200" x2="350" y2="200" stroke="#d1d5da" />
      <line x1="358" y1="200" x2="358" y2="200" stroke="#d1d5da" />
      <line x1="366" y1="200" x2="446" y2="200" stroke="#b392f0" />
      <line x1="454" y1="200" x2="454" y2="200" stroke="#d1d5da" />
      <line x1="462" y1="200" x2="462" y2="200" stroke="#d1d5da" />
      <line x1="478" y1="200" x2="478" y2="200" stroke="#79b8ff" />
      <line x1="494" y1="200" x2="502" y2="200" stroke="#ffab70" />
      <line x1="510" y1="200" x2="510" y2="200" stroke="#d1d5da" />
      <line x1="518" y1="200" x2="518" y2="200" stroke="#d1d5da" />
      <line x1="526" y1="200" x2="566" y2="200" stroke="#b392f0" />
      <line x1="574" y1="200" x2="574" y2="200" stroke="#d1d5da" />
      <line x1="582" y1="200" x2="582" y2="200" stroke="#79b8ff" />
      <line x1="598" y1="200" x2="598" y2="200" stroke="#79b8ff" />
      <line x1="614" y1="200" x2="654" y2="200" stroke="#b392f0" />
      <line x1="662" y1="200" x2="662" y2="200" stroke="#d1d5da" />
      <line x1="670" y1="200" x2="678" y2="200" stroke="#79b8ff" />
      <line x1="686" y1="200" x2="686" y2="200" stroke="#d1d5da" />
      <line x1="694" y1="200" x2="734" y2="200" stroke="#79b8ff" />
      <line x1="742" y1="200" x2="742" y2="200" stroke="#d1d5da" />
      <line x1="750" y1="200" x2="750" y2="200" stroke="#d1d5da" />
      <line x1="758" y1="200" x2="758" y2="200" stroke="#d1d5da" />
    </g>
    <g class="code line">
      <line x1="70" y1="215" x2="70" y2="215" stroke="#d1d5da" />
    </g>
    <g class="code line">
      <line x1="70" y1="230" x2="86" y2="230" stroke="#f97583" />
      <line x1="102" y1="230" x2="102" y2="230" stroke="#d1d5da" />
      <line x1="118" y1="230" x2="118" y2="230" stroke="#79b8ff" />
      <line x1="134" y1="230" x2="134" y2="230" stroke="#d1d5da" />
    </g>
    <g class="code line">
      <line x1="86" y1="245" x2="110" y2="245" stroke="#ffab70" />
      <line x1="118" y1="245" x2="118" y2="245" stroke="#d1d5da" />
      <line x1="134" y1="245" x2="158" y2="245" stroke="#d1d5da" />
      <line x1="166" y1="245" x2="166" y2="245" stroke="#d1d5da" />
      <line x1="174" y1="245" x2="230" y2="245" stroke="#b392f0" />
      <line x1="238" y1="245" x2="238" y2="245" stroke="#d1d5da" />
      <line x1="246" y1="245" x2="246" y2="245" stroke="#d1d5da" />
      <line x1="262" y1="245" x2="262" y2="245" stroke="#79b8ff" />
      <line x1="278" y1="245" x2="278" y2="245" stroke="#79b8ff" />
      <line x1="286" y1="245" x2="286" y2="245" stroke="#d1d5da" />
    </g>
    <g class="code line">
      <line x1="86" y1="260" x2="110" y2="260" stroke="#ffab70" />
      <line x1="118" y1="260" x2="118" y2="260" stroke="#d1d5da" />
      <line x1="134" y1="260" x2="158" y2="260" stroke="#d1d5da" />
      <line x1="166" y1="260" x2="166" y2="260" stroke="#d1d5da" />
      <line x1="174" y1="260" x2="222" y2="260" stroke="#b392f0" />
      <line x1="230" y1="260" x2="230" y2="260" stroke="#d1d5da" />
      <line x1="238" y1="260" x2="238" y2="260" stroke="#d1d5da" />
      <line x1="246" y1="260" x2="246" y2="260" stroke="#d1d5da" />
    </g>
    <g class="code line">
      <line x1="86" y1="275" x2="110" y2="275" stroke="#ffab70" />
      <line x1="118" y1="275" x2="118" y2="275" stroke="#d1d5da" />
      <line x1="134" y1="275" x2="158" y2="275" stroke="#d1d5da" />
      <line x1="166" y1="275" x2="166" y2="275" stroke="#d1d5da" />
      <line x1="174" y1="275" x2="230" y2="275" stroke="#b392f0" />
      <line x1="238" y1="275" x2="238" y2="275" stroke="#d1d5da" />
      <line x1="246" y1="275" x2="246" y2="275" stroke="#d1d5da" />
      <line x1="254" y1="275" x2="254" y2="275" stroke="#d1d5da" />
    </g>
    <g class="code line">
      <line x1="86" y1="290" x2="110" y2="290" stroke="#ffab70" />
      <line x1="118" y1="290" x2="118" y2="290" stroke="#d1d5da" />
      <line x1="134" y1="290" x2="158" y2="290" stroke="#d1d5da" />
      <line x1="166" y1="290" x2="166" y2="290" stroke="#d1d5da" />
      <line x1="174" y1="290" x2="246" y2="290" stroke="#b392f0" />
      <line x1="254" y1="290" x2="254" y2="290" stroke="#d1d5da" />
      <line x1="262" y1="290" x2="262" y2="290" stroke="#d1d5da" />
      <line x1="270" y1="290" x2="270" y2="290" stroke="#d1d5da" />
    </g>
    <g class="code line">
      <line x1="86" y1="305" x2="110" y2="305" stroke="#ffab70" />
      <line x1="118" y1="305" x2="118" y2="305" stroke="#d1d5da" />
      <line x1="134" y1="305" x2="158" y2="305" stroke="#d1d5da" />
      <line x1="166" y1="305" x2="166" y2="305" stroke="#d1d5da" />
      <line x1="174" y1="305" x2="246" y2="305" stroke="#b392f0" />
      <line x1="254" y1="305" x2="254" y2="305" stroke="#d1d5da" />
      <line x1="262" y1="305" x2="262" y2="305" stroke="#d1d5da" />
    </g>
    <g class="code line">
      <line x1="70" y1="320" x2="70" y2="320" stroke="#d1d5da" />
      <line x1="78" y1="320" x2="78" y2="320" stroke="#d1d5da" />
    </g>
    <g class="code line">
      <line x1="70" y1="335" x2="86" y2="335" stroke="#f97583" />
      <line x1="102" y1="335" x2="102" y2="335" stroke="#d1d5da" />
      <line x1="110" y1="335" x2="126" y2="335" stroke="#f97583" />
      <line x1="142" y1="335" x2="142" y2="335" stroke="#d1d5da" />
      <line x1="158" y1="335" x2="166" y2="335" stroke="#f97583" />
      <line x1="182" y1="335" x2="182" y2="335" stroke="#d1d5da" />
      <line x1="190" y1="335" x2="190" y2="335" stroke="#d1d5da" />
      <line x1="206" y1="335" x2="206" y2="335" stroke="#d1d5da" />
    </g>
    <g class="code line">
      <line x1="86" y1="350" x2="102" y2="350" stroke="#f97583" />
      <line x1="118" y1="350" x2="134" y2="350" stroke="#d1d5da" />
      <line x1="150" y1="350" x2="150" y2="350" stroke="#79b8ff" />
      <line x1="166" y1="350" x2="166" y2="350" stroke="#d1d5da" />
      <line x1="174" y1="350" x2="174" y2="350" stroke="#d1d5da" />
      <line x1="182" y1="350" x2="182" y2="350" stroke="#d1d5da" />
      <line x1="190" y1="350" x2="190" y2="350" stroke="#d1d5da" />
      <line x1="206" y1="350" x2="206" y2="350" stroke="#79b8ff" />
      <line x1="222" y1="350" x2="230" y2="350" stroke="#ffab70" />
      <line x1="238" y1="350" x2="238" y2="350" stroke="#d1d5da" />
    </g>
    <g class="code line">
      <line x1="86" y1="365" x2="94" y2="365" stroke="#f97583" />
      <line x1="110" y1="365" x2="110" y2="365" stroke="#d1d5da" />
      <line x1="118" y1="365" x2="134" y2="365" stroke="#f97583" />
      <line x1="150" y1="365" x2="190" y2="365" stroke="#b392f0" />
      <line x1="198" y1="365" x2="198" y2="365" stroke="#d1d5da" />
      <line x1="206" y1="365" x2="262" y2="365" stroke="#ffab70" />
      <line x1="270" y1="365" x2="270" y2="365" stroke="#d1d5da" />
      <line x1="278" y1="365" x2="278" y2="365" stroke="#d1d5da" />
      <line x1="286" y1="365" x2="310" y2="365" stroke="#b392f0" />
      <line x1="318" y1="365" x2="318" y2="365" stroke="#d1d5da" />
      <line x1="326" y1="365" x2="342" y2="365" stroke="#d1d5da" />
      <line x1="350" y1="365" x2="350" y2="365" stroke="#d1d5da" />
      <line x1="358" y1="365" x2="358" y2="365" stroke="#d1d5da" />
      <line x1="374" y1="365" x2="374" y2="365" stroke="#d1d5da" />
    </g>
    <g class="code line">
      <line x1="102" y1="380" x2="118" y2="380" stroke="#d1d5da" />
      <line x1="134" y1="380" x2="134" y2="380" stroke="#79b8ff" />
      <line x1="150" y1="380" x2="166" y2="380" stroke="#d1d5da" />
      <line x1="174" y1="380" x2="174" y2="380" stroke="#d1d5da" />
      <line x1="182" y1="380" x2="230" y2="380" stroke="#b392f0" />
      <line x1="238" y1="380" x2="238" y2="380" stroke="#d1d5da" />
      <line x1="246" y1="380" x2="286" y2="380" stroke="#b392f0" />
      <line x1="294" y1="380" x2="294" y2="380" stroke="#d1d5da" />
      <line x1="302" y1="380" x2="310" y2="380" stroke="#79b8ff" />
      <line x1="318" y1="380" x2="318" y2="380" stroke="#d1d5da" />
      <line x1="334" y1="380" x2="334" y2="380" stroke="#d1d5da" />
      <line x1="342" y1="380" x2="382" y2="380" stroke="#b392f0" />
      <line x1="390" y1="380" x2="390" y2="380" stroke="#d1d5da" />
      <line x1="398" y1="380" x2="406" y2="380" stroke="#79b8ff" />
      <line x1="414" y1="380" x2="414" y2="380" stroke="#d1d5da" />
      <line x1="422" y1="380" x2="462" y2="380" stroke="#79b8ff" />
      <line x1="478" y1="380" x2="494" y2="380" stroke="#79b8ff" />
      <line x1="510" y1="380" x2="510" y2="380" stroke="#79b8ff" />
      <line x1="518" y1="380" x2="518" y2="380" stroke="#d1d5da" />
      <line x1="534" y1="380" x2="534" y2="380" stroke="#d1d5da" />
      <line x1="550" y1="380" x2="566" y2="380" stroke="#d1d5da" />
      <line x1="582" y1="380" x2="582" y2="380" stroke="#d1d5da" />
      <line x1="598" y1="380" x2="678" y2="380" stroke="#b392f0" />
      <line x1="686" y1="380" x2="686" y2="380" stroke="#d1d5da" />
      <line x1="694" y1="380" x2="710" y2="380" stroke="#d1d5da" />
      <line x1="718" y1="380" x2="718" y2="380" stroke="#d1d5da" />
      <line x1="726" y1="380" x2="726" y2="380" stroke="#d1d5da" />
      <line x1="734" y1="380" x2="734" y2="380" stroke="#d1d5da" />
    </g>
    <g class="code line">
      <line x1="86" y1="395" x2="86" y2="395" stroke="#d1d5da" />
    </g>
    <g class="code line">
      <line x1="70" y1="410" x2="70" y2="410" stroke="#d1d5da" />
    </g>
    <g class="code line">
      <line x1="70" y1="425" x2="110" y2="425" stroke="#f97583" />
      <line x1="126" y1="425" x2="142" y2="425" stroke="#d1d5da" />
      <line x1="150" y1="425" x2="150" y2="425" stroke="#d1d5da" />
    </g>
    <g class="code line">
      <line x1="46" y1="440" x2="62" y2="440" stroke="#d1d5da" />
    </g>
    <g class="code line">
      <line x1="46" y1="455" x2="78" y2="455" stroke="#959da5" />
    </g>
    <g class="code line">
      <line x1="62" y1="470" x2="62" y2="470" stroke="#959da5" />
    </g>
    <g class="code line">
      <line x1="62" y1="485" x2="62" y2="485" stroke="#959da5" />
      <line x1="78" y1="485" x2="118" y2="485" stroke="#959da5" />
      <line x1="134" y1="485" x2="246" y2="485" stroke="#959da5" />
      <line x1="262" y1="485" x2="286" y2="485" stroke="#959da5" />
    </g>
    <g class="code line">
      <line x1="62" y1="500" x2="70" y2="500" stroke="#959da5" />
    </g>
    <g class="code line">
      <line x1="46" y1="515" x2="102" y2="515" stroke="#f97583" />
      <line x1="110" y1="515" x2="166" y2="515" stroke="#f97583" />
      <line x1="182" y1="515" x2="238" y2="515" stroke="#b392f0" />
      <line x1="246" y1="515" x2="246" y2="515" stroke="#d1d5da" />
      <line x1="254" y1="515" x2="278" y2="515" stroke="#d1d5da" />
      <line x1="286" y1="515" x2="286" y2="515" stroke="#d1d5da" />
      <line x1="302" y1="515" x2="302" y2="515" stroke="#d1d5da" />
    </g>
    <g class="code line">
      <line x1="70" y1="530" x2="94" y2="530" stroke="#d1d5da" />
      <line x1="110" y1="530" x2="110" y2="530" stroke="#79b8ff" />
      <line x1="126" y1="530" x2="190" y2="530" stroke="#b392f0" />
      <line x1="198" y1="530" x2="198" y2="530" stroke="#d1d5da" />
      <line x1="206" y1="530" x2="230" y2="530" stroke="#d1d5da" />
      <line x1="238" y1="530" x2="238" y2="530" stroke="#d1d5da" />
      <line x1="246" y1="530" x2="246" y2="530" stroke="#d1d5da" />
    </g>
    <g class="code line">
      <line x1="70" y1="545" x2="86" y2="545" stroke="#f97583" />
      <line x1="102" y1="545" x2="126" y2="545" stroke="#d1d5da" />
      <line x1="142" y1="545" x2="142" y2="545" stroke="#79b8ff" />
      <line x1="158" y1="545" x2="174" y2="545" stroke="#f97583" />
      <line x1="190" y1="545" x2="214" y2="545" stroke="#b392f0" />
      <line x1="222" y1="545" x2="222" y2="545" stroke="#d1d5da" />
      <line x1="230" y1="545" x2="254" y2="545" stroke="#d1d5da" />
      <line x1="262" y1="545" x2="262" y2="545" stroke="#d1d5da" />
      <line x1="270" y1="545" x2="270" y2="545" stroke="#d1d5da" />
    </g>
    <g class="code line">
      <line x1="70" y1="560" x2="86" y2="560" stroke="#f97583" />
      <line x1="102" y1="560" x2="134" y2="560" stroke="#d1d5da" />
      <line x1="150" y1="560" x2="150" y2="560" stroke="#79b8ff" />
      <line x1="166" y1="560" x2="190" y2="560" stroke="#d1d5da" />
      <line x1="198" y1="560" x2="198" y2="560" stroke="#d1d5da" />
      <line x1="206" y1="560" x2="262" y2="560" stroke="#b392f0" />
      <line x1="270" y1="560" x2="270" y2="560" stroke="#d1d5da" />
      <line x1="278" y1="560" x2="278" y2="560" stroke="#d1d5da" />
      <line x1="294" y1="560" x2="294" y2="560" stroke="#79b8ff" />
      <line x1="310" y1="560" x2="310" y2="560" stroke="#79b8ff" />
      <line x1="318" y1="560" x2="318" y2="560" stroke="#d1d5da" />
    </g>
    <g class="code line">
      <line x1="70" y1="575" x2="86" y2="575" stroke="#f97583" />
      <line x1="102" y1="575" x2="118" y2="575" stroke="#d1d5da" />
      <line x1="134" y1="575" x2="134" y2="575" stroke="#79b8ff" />
      <line x1="150" y1="575" x2="174" y2="575" stroke="#d1d5da" />
      <line x1="182" y1="575" x2="182" y2="575" stroke="#d1d5da" />
      <line x1="190" y1="575" x2="238" y2="575" stroke="#b392f0" />
      <line x1="246" y1="575" x2="246" y2="575" stroke="#d1d5da" />
      <line x1="254" y1="575" x2="254" y2="575" stroke="#d1d5da" />
      <line x1="262" y1="575" x2="262" y2="575" stroke="#d1d5da" />
    </g>
    <g class="code line">
      <line x1="70" y1="590" x2="86" y2="590" stroke="#f97583" />
      <line x1="102" y1="590" x2="102" y2="590" stroke="#d1d5da" />
      <line x1="118" y1="590" x2="118" y2="590" stroke="#79b8ff" />
      <line x1="134" y1="590" x2="350" y2="590" stroke="#ffab70" />
      <line x1="358" y1="590" x2="358" y2="590" stroke="#d1d5da" />
    </g>
    <g class="code line">
      <line x1="70" y1="605" x2="86" y2="605" stroke="#f97583" />
      <line x1="102" y1="605" x2="118" y2="605" stroke="#d1d5da" />
      <line x1="134" y1="605" x2="134" y2="605" stroke="#79b8ff" />
      <line x1="150" y1="605" x2="150" y2="605" stroke="#d1d5da" />
      <line x1="158" y1="605" x2="166" y2="605" stroke="#79b8ff" />
      <line x1="174" y1="605" x2="174" y2="605" stroke="#d1d5da" />
      <line x1="190" y1="605" x2="198" y2="605" stroke="#79b8ff" />
      <line x1="206" y1="605" x2="206" y2="605" stroke="#d1d5da" />
      <line x1="222" y1="605" x2="230" y2="605" stroke="#79b8ff" />
      <line x1="238" y1="605" x2="238" y2="605" stroke="#d1d5da" />
      <line x1="254" y1="605" x2="262" y2="605" stroke="#79b8ff" />
      <line x1="270" y1="605" x2="270" y2="605" stroke="#d1d5da" />
      <line x1="286" y1="605" x2="294" y2="605" stroke="#79b8ff" />
      <line x1="302" y1="605" x2="302" y2="605" stroke="#d1d5da" />
      <line x1="318" y1="605" x2="326" y2="605" stroke="#79b8ff" />
      <line x1="334" y1="605" x2="334" y2="605" stroke="#d1d5da" />
      <line x1="350" y1="605" x2="358" y2="605" stroke="#79b8ff" />
      <line x1="366" y1="605" x2="366" y2="605" stroke="#d1d5da" />
      <line x1="382" y1="605" x2="390" y2="605" stroke="#79b8ff" />
      <line x1="398" y1="605" x2="398" y2="605" stroke="#d1d5da" />
      <line x1="414" y1="605" x2="422" y2="605" stroke="#79b8ff" />
      <line x1="430" y1="605" x2="430" y2="605" stroke="#d1d5da" />
      <line x1="446" y1="605" x2="454" y2="605" stroke="#79b8ff" />
      <line x1="462" y1="605" x2="462" y2="605" stroke="#d1d5da" />
      <line x1="478" y1="605" x2="486" y2="605" stroke="#79b8ff" />
      <line x1="494" y1="605" x2="494" y2="605" stroke="#d1d5da" />
      <line x1="510" y1="605" x2="518" y2="605" stroke="#79b8ff" />
      <line x1="526" y1="605" x2="526" y2="605" stroke="#d1d5da" />
      <line x1="534" y1="605" x2="534" y2="605" stroke="#d1d5da" />
    </g>
    <g class="code line">
      <line x1="70" y1="620" x2="110" y2="620" stroke="#f97583" />
      <line x1="126" y1="620" x2="126" y2="620" stroke="#d1d5da" />
      <line x1="134" y1="620" x2="134" y2="620" stroke="#d1d5da" />
      <line x1="142" y1="620" x2="182" y2="620" stroke="#b392f0" />
      <line x1="190" y1="620" x2="190" y2="620" stroke="#d1d5da" />
      <line x1="198" y1="620" x2="230" y2="620" stroke="#d1d5da" />
      <line x1="246" y1="620" x2="246" y2="620" stroke="#79b8ff" />
      <line x1="262" y1="620" x2="262" y2="620" stroke="#79b8ff" />
      <line x1="278" y1="620" x2="278" y2="620" stroke="#79b8ff" />
      <line x1="294" y1="620" x2="294" y2="620" stroke="#d1d5da" />
      <line x1="302" y1="620" x2="318" y2="620" stroke="#d1d5da" />
      <line x1="334" y1="620" x2="334" y2="620" stroke="#79b8ff" />
      <line x1="350" y1="620" x2="366" y2="620" stroke="#d1d5da" />
      <line x1="374" y1="620" x2="374" y2="620" stroke="#d1d5da" />
      <line x1="382" y1="620" x2="414" y2="620" stroke="#d1d5da" />
      <line x1="430" y1="620" x2="430" y2="620" stroke="#79b8ff" />
      <line x1="446" y1="620" x2="446" y2="620" stroke="#79b8ff" />
      <line x1="454" y1="620" x2="454" y2="620" stroke="#d1d5da" />
      <line x1="470" y1="620" x2="470" y2="620" stroke="#d1d5da" />
      <line x1="486" y1="620" x2="486" y2="620" stroke="#79b8ff" />
      <line x1="502" y1="620" x2="502" y2="620" stroke="#d1d5da" />
      <line x1="518" y1="620" x2="518" y2="620" stroke="#79b8ff" />
      <line x1="526" y1="620" x2="526" y2="620" stroke="#d1d5da" />
      <line x1="534" y1="620" x2="534" y2="620" stroke="#d1d5da" />
      <line x1="550" y1="620" x2="550" y2="620" stroke="#79b8ff" />
      <line x1="558" y1="620" x2="558" y2="620" stroke="#d1d5da" />
      <line x1="566" y1="620" x2="566" y2="620" stroke="#d1d5da" />
    </g>
    <g class="code line">
      <line x1="46" y1="635" x2="62" y2="635" stroke="#d1d5da" />
    </g>
    <g class="code line">
      <line x1="46" y1="650" x2="78" y2="650" stroke="#959da5" />
    </g>
    <g class="code line">
      <line x1="62" y1="665" x2="62" y2="665" stroke="#959da5" />
      <line x1="78" y1="665" x2="166" y2="665" stroke="#959da5" />
      <line x1="182" y1="665" x2="262" y2="665" stroke="#959da5" />
    </g>
    <g class="code line">
      <line x1="62" y1="680" x2="62" y2="680" stroke="#959da5" />
      <line x1="78" y1="680" x2="118" y2="680" stroke="#959da5" />
      <line x1="134" y1="680" x2="246" y2="680" stroke="#959da5" />
      <line x1="262" y1="680" x2="286" y2="680" stroke="#959da5" />
    </g>
    <g class="code line">
      <line x1="62" y1="695" x2="70" y2="695" stroke="#959da5" />
    </g>
    <g class="code line">
      <line x1="46" y1="710" x2="102" y2="710" stroke="#f97583" />
      <line x1="110" y1="710" x2="166" y2="710" stroke="#f97583" />
      <line x1="182" y1="710" x2="246" y2="710" stroke="#b392f0" />
      <line x1="254" y1="710" x2="254" y2="710" stroke="#d1d5da" />
      <line x1="262" y1="710" x2="286" y2="710" stroke="#d1d5da" />
      <line x1="294" y1="710" x2="294" y2="710" stroke="#d1d5da" />
      <line x1="310" y1="710" x2="310" y2="710" stroke="#d1d5da" />
    </g>
    <g class="code line">
      <line x1="70" y1="725" x2="94" y2="725" stroke="#d1d5da" />
      <line x1="110" y1="725" x2="110" y2="725" stroke="#79b8ff" />
      <line x1="126" y1="725" x2="190" y2="725" stroke="#b392f0" />
      <line x1="198" y1="725" x2="198" y2="725" stroke="#d1d5da" />
      <line x1="206" y1="725" x2="230" y2="725" stroke="#d1d5da" />
      <line x1="238" y1="725" x2="238" y2="725" stroke="#d1d5da" />
      <line x1="246" y1="725" x2="246" y2="725" stroke="#d1d5da" />
    </g>
    <g class="code line">
      <line x1="70" y1="740" x2="110" y2="740" stroke="#f97583" />
      <line x1="126" y1="740" x2="182" y2="740" stroke="#b392f0" />
      <line x1="190" y1="740" x2="190" y2="740" stroke="#d1d5da" />
      <line x1="198" y1="740" x2="198" y2="740" stroke="#d1d5da" />
      <line x1="206" y1="740" x2="222" y2="740" stroke="#f97583" />
      <line x1="238" y1="740" x2="262" y2="740" stroke="#b392f0" />
      <line x1="270" y1="740" x2="270" y2="740" stroke="#d1d5da" />
      <line x1="278" y1="740" x2="278" y2="740" stroke="#d1d5da" />
      <line x1="286" y1="740" x2="286" y2="740" stroke="#d1d5da" />
      <line x1="294" y1="740" x2="342" y2="740" stroke="#b392f0" />
      <line x1="350" y1="740" x2="350" y2="740" stroke="#d1d5da" />
      <line x1="358" y1="740" x2="358" y2="740" stroke="#d1d5da" />
      <line x1="374" y1="740" x2="374" y2="740" stroke="#79b8ff" />
      <line x1="390" y1="740" x2="406" y2="740" stroke="#f97583" />
      <line x1="422" y1="740" x2="446" y2="740" stroke="#b392f0" />
      <line x1="454" y1="740" x2="454" y2="740" stroke="#d1d5da" />
      <line x1="462" y1="740" x2="486" y2="740" stroke="#d1d5da" />
      <line x1="494" y1="740" x2="494" y2="740" stroke="#d1d5da" />
      <line x1="502" y1="740" x2="502" y2="740" stroke="#d1d5da" />
      <line x1="510" y1="740" x2="558" y2="740" stroke="#b392f0" />
      <line x1="566" y1="740" x2="566" y2="740" stroke="#d1d5da" />
      <line x1="574" y1="740" x2="574" y2="740" stroke="#d1d5da" />
      <line x1="582" y1="740" x2="582" y2="740" stroke="#d1d5da" />
      <line x1="598" y1="740" x2="598" y2="740" stroke="#79b8ff" />
      <line x1="614" y1="740" x2="670" y2="740" stroke="#79b8ff" />
      <line x1="678" y1="740" x2="678" y2="740" stroke="#d1d5da" />
      <line x1="686" y1="740" x2="686" y2="740" stroke="#d1d5da" />
      <line x1="702" y1="740" x2="750" y2="740" stroke="#959da5" />
      <line x1="766" y1="740" x2="766" y2="740" stroke="#959da5" />
      <line x1="782" y1="740" x2="790" y2="740" stroke="#959da5" />
      <line x1="806" y1="740" x2="806" y2="740" stroke="#959da5" />
      <line x1="822" y1="740" x2="830" y2="740" stroke="#959da5" />
      <line x1="846" y1="740" x2="870" y2="740" stroke="#959da5" />
    </g>
    <g class="code line">
      <line x1="46" y1="755" x2="62" y2="755" stroke="#d1d5da" />
    </g>
    <g class="code line">
      <line x1="46" y1="785" x2="78" y2="785" stroke="#959da5" />
    </g>
    <g class="code line">
      <line x1="62" y1="800" x2="62" y2="800" stroke="#959da5" />
      <line x1="78" y1="800" x2="166" y2="800" stroke="#959da5" />
      <line x1="182" y1="800" x2="342" y2="800" stroke="#959da5" />
    </g>
    <g class="code line">
      <line x1="62" y1="815" x2="62" y2="815" stroke="#959da5" />
      <line x1="78" y1="815" x2="118" y2="815" stroke="#959da5" />
      <line x1="134" y1="815" x2="246" y2="815" stroke="#959da5" />
      <line x1="262" y1="815" x2="286" y2="815" stroke="#959da5" />
    </g>
    <g class="code line">
      <line x1="62" y1="830" x2="70" y2="830" stroke="#959da5" />
    </g>
    <g class="code line">
      <line x1="46" y1="845" x2="102" y2="845" stroke="#f97583" />
      <line x1="110" y1="845" x2="166" y2="845" stroke="#f97583" />
      <line x1="182" y1="845" x2="246" y2="845" stroke="#b392f0" />
      <line x1="254" y1="845" x2="254" y2="845" stroke="#d1d5da" />
      <line x1="262" y1="845" x2="286" y2="845" stroke="#d1d5da" />
      <line x1="294" y1="845" x2="294" y2="845" stroke="#d1d5da" />
      <line x1="310" y1="845" x2="310" y2="845" stroke="#d1d5da" />
    </g>
    <g class="code line">
      <line x1="70" y1="860" x2="78" y2="860" stroke="#f97583" />
      <line x1="94" y1="860" x2="94" y2="860" stroke="#d1d5da" />
      <line x1="102" y1="860" x2="142" y2="860" stroke="#f97583" />
      <line x1="158" y1="860" x2="182" y2="860" stroke="#d1d5da" />
      <line x1="198" y1="860" x2="214" y2="860" stroke="#79b8ff" />
      <line x1="230" y1="860" x2="286" y2="860" stroke="#ffab70" />
      <line x1="294" y1="860" x2="294" y2="860" stroke="#d1d5da" />
      <line x1="310" y1="860" x2="310" y2="860" stroke="#d1d5da" />
    </g>
    <g class="code line">
      <line x1="86" y1="875" x2="110" y2="875" stroke="#d1d5da" />
      <line x1="126" y1="875" x2="126" y2="875" stroke="#79b8ff" />
      <line x1="142" y1="875" x2="166" y2="875" stroke="#b392f0" />
      <line x1="174" y1="875" x2="174" y2="875" stroke="#d1d5da" />
      <line x1="182" y1="875" x2="214" y2="875" stroke="#b392f0" />
      <line x1="222" y1="875" x2="222" y2="875" stroke="#d1d5da" />
      <line x1="230" y1="875" x2="246" y2="875" stroke="#f97583" />
      <line x1="262" y1="875" x2="286" y2="875" stroke="#b392f0" />
      <line x1="294" y1="875" x2="294" y2="875" stroke="#d1d5da" />
      <line x1="302" y1="875" x2="326" y2="875" stroke="#d1d5da" />
      <line x1="334" y1="875" x2="334" y2="875" stroke="#d1d5da" />
      <line x1="342" y1="875" x2="342" y2="875" stroke="#d1d5da" />
      <line x1="350" y1="875" x2="406" y2="875" stroke="#b392f0" />
      <line x1="414" y1="875" x2="414" y2="875" stroke="#d1d5da" />
      <line x1="422" y1="875" x2="422" y2="875" stroke="#d1d5da" />
      <line x1="430" y1="875" x2="430" y2="875" stroke="#d1d5da" />
      <line x1="438" y1="875" x2="438" y2="875" stroke="#d1d5da" />
    </g>
    <g class="code line">
      <line x1="70" y1="890" x2="70" y2="890" stroke="#d1d5da" />
    </g>
    <g class="code line">
      <line x1="70" y1="905" x2="94" y2="905" stroke="#d1d5da" />
      <line x1="110" y1="905" x2="110" y2="905" stroke="#79b8ff" />
      <line x1="126" y1="905" x2="150" y2="905" stroke="#d1d5da" />
      <line x1="158" y1="905" x2="158" y2="905" stroke="#d1d5da" />
      <line x1="166" y1="905" x2="222" y2="905" stroke="#b392f0" />
      <line x1="230" y1="905" x2="230" y2="905" stroke="#d1d5da" />
      <line x1="238" y1="905" x2="238" y2="905" stroke="#d1d5da" />
      <line x1="246" y1="905" x2="246" y2="905" stroke="#d1d5da" />
    </g>
    <g class="code line">
      <line x1="70" y1="920" x2="78" y2="920" stroke="#f97583" />
      <line x1="94" y1="920" x2="94" y2="920" stroke="#d1d5da" />
      <line x1="102" y1="920" x2="126" y2="920" stroke="#d1d5da" />
      <line x1="134" y1="920" x2="134" y2="920" stroke="#d1d5da" />
      <line x1="142" y1="920" x2="182" y2="920" stroke="#79b8ff" />
      <line x1="198" y1="920" x2="214" y2="920" stroke="#79b8ff" />
      <line x1="230" y1="920" x2="238" y2="920" stroke="#79b8ff" />
      <line x1="246" y1="920" x2="246" y2="920" stroke="#d1d5da" />
      <line x1="262" y1="920" x2="262" y2="920" stroke="#d1d5da" />
    </g>
    <g class="code line">
      <line x1="86" y1="935" x2="110" y2="935" stroke="#d1d5da" />
      <line x1="126" y1="935" x2="126" y2="935" stroke="#79b8ff" />
      <line x1="142" y1="935" x2="166" y2="935" stroke="#d1d5da" />
      <line x1="182" y1="935" x2="182" y2="935" stroke="#79b8ff" />
      <line x1="198" y1="935" x2="222" y2="935" stroke="#79b8ff" />
      <line x1="230" y1="935" x2="230" y2="935" stroke="#d1d5da" />
    </g>
    <g class="code line">
      <line x1="70" y1="950" x2="70" y2="950" stroke="#d1d5da" />
      <line x1="86" y1="950" x2="110" y2="950" stroke="#f97583" />
      <line x1="126" y1="950" x2="126" y2="950" stroke="#d1d5da" />
    </g>
    <g class="code line">
      <line x1="86" y1="965" x2="110" y2="965" stroke="#d1d5da" />
      <line x1="126" y1="965" x2="126" y2="965" stroke="#79b8ff" />
      <line x1="142" y1="965" x2="166" y2="965" stroke="#d1d5da" />
      <line x1="182" y1="965" x2="182" y2="965" stroke="#79b8ff" />
      <line x1="198" y1="965" x2="198" y2="965" stroke="#79b8ff" />
      <line x1="206" y1="965" x2="206" y2="965" stroke="#d1d5da" />
    </g>
    <g class="code line">
      <line x1="70" y1="980" x2="70" y2="980" stroke="#d1d5da" />
    </g>
    <g class="code line">
      <line x1="70" y1="995" x2="110" y2="995" stroke="#f97583" />
      <line x1="126" y1="995" x2="150" y2="995" stroke="#d1d5da" />
      <line x1="158" y1="995" x2="158" y2="995" stroke="#d1d5da" />
    </g>
    <g class="code line">
      <line x1="46" y1="1010" x2="62" y2="1010" stroke="#d1d5da" />
    </g>
    <g class="code line">
      <line x1="46" y1="1040" x2="118" y2="1040" stroke="#f97583" />
      <line x1="126" y1="1040" x2="206" y2="1040" stroke="#b392f0" />
      <line x1="214" y1="1040" x2="214" y2="1040" stroke="#d1d5da" />
      <line x1="222" y1="1040" x2="238" y2="1040" stroke="#d1d5da" />
      <line x1="246" y1="1040" x2="246" y2="1040" stroke="#d1d5da" />
      <line x1="262" y1="1040" x2="262" y2="1040" stroke="#d1d5da" />
    </g>
    <g class="code line">
      <line x1="70" y1="1055" x2="110" y2="1055" stroke="#f97583" />
      <line x1="126" y1="1055" x2="126" y2="1055" stroke="#d1d5da" />
      <line x1="134" y1="1055" x2="158" y2="1055" stroke="#ffab70" />
      <line x1="174" y1="1055" x2="174" y2="1055" stroke="#79b8ff" />
      <line x1="190" y1="1055" x2="206" y2="1055" stroke="#d1d5da" />
      <line x1="214" y1="1055" x2="214" y2="1055" stroke="#d1d5da" />
      <line x1="222" y1="1055" x2="222" y2="1055" stroke="#d1d5da" />
      <line x1="230" y1="1055" x2="270" y2="1055" stroke="#b392f0" />
      <line x1="278" y1="1055" x2="278" y2="1055" stroke="#d1d5da" />
      <line x1="286" y1="1055" x2="302" y2="1055" stroke="#d1d5da" />
      <line x1="310" y1="1055" x2="310" y2="1055" stroke="#d1d5da" />
      <line x1="318" y1="1055" x2="358" y2="1055" stroke="#79b8ff" />
      <line x1="366" y1="1055" x2="366" y2="1055" stroke="#d1d5da" />
      <line x1="374" y1="1055" x2="374" y2="1055" stroke="#d1d5da" />
    </g>
    <g class="code line">
      <line x1="46" y1="1070" x2="62" y2="1070" stroke="#d1d5da" />
    </g>
    <g class="code line">
      <line x1="46" y1="1085" x2="78" y2="1085" stroke="#959da5" />
    </g>
    <g class="code line">
      <line x1="62" y1="1100" x2="62" y2="1100" stroke="#959da5" />
    </g>
    <g class="code line">
      <line x1="62" y1="1115" x2="62" y2="1115" stroke="#959da5" />
      <line x1="78" y1="1115" x2="118" y2="1115" stroke="#959da5" />
      <line x1="134" y1="1115" x2="190" y2="1115" stroke="#959da5" />
      <line x1="206" y1="1115" x2="222" y2="1115" stroke="#959da5" />
    </g>
    <g class="code line">
      <line x1="62" y1="1130" x2="70" y2="1130" stroke="#959da5" />
    </g>
    <g class="code line">
      <line x1="46" y1="1145" x2="102" y2="1145" stroke="#d1d5da" />
      <line x1="102" y1="1145" x2="102" y2="1145" stroke="#d1d5da" />
      <line x1="110" y1="1145" x2="158" y2="1145" stroke="#b392f0" />
      <line x1="174" y1="1145" x2="174" y2="1145" stroke="#79b8ff" />
      <line x1="190" y1="1145" x2="246" y2="1145" stroke="#f97583" />
      <line x1="262" y1="1145" x2="262" y2="1145" stroke="#d1d5da" />
      <line x1="270" y1="1145" x2="286" y2="1145" stroke="#d1d5da" />
      <line x1="294" y1="1145" x2="294" y2="1145" stroke="#d1d5da" />
      <line x1="310" y1="1145" x2="310" y2="1145" stroke="#d1d5da" />
    </g>
    <g class="code line">
      <line x1="70" y1="1160" x2="78" y2="1160" stroke="#f97583" />
      <line x1="94" y1="1160" x2="94" y2="1160" stroke="#d1d5da" />
      <line x1="102" y1="1160" x2="142" y2="1160" stroke="#f97583" />
      <line x1="158" y1="1160" x2="174" y2="1160" stroke="#d1d5da" />
      <line x1="190" y1="1160" x2="206" y2="1160" stroke="#79b8ff" />
      <line x1="222" y1="1160" x2="278" y2="1160" stroke="#ffab70" />
      <line x1="286" y1="1160" x2="286" y2="1160" stroke="#d1d5da" />
      <line x1="302" y1="1160" x2="302" y2="1160" stroke="#d1d5da" />
    </g>
    <g class="code line">
      <line x1="102" y1="1175" x2="142" y2="1175" stroke="#f97583" />
      <line x1="158" y1="1175" x2="198" y2="1175" stroke="#b392f0" />
      <line x1="206" y1="1175" x2="206" y2="1175" stroke="#d1d5da" />
      <line x1="214" y1="1175" x2="278" y2="1175" stroke="#79b8ff" />
      <line x1="286" y1="1175" x2="286" y2="1175" stroke="#d1d5da" />
      <line x1="294" y1="1175" x2="350" y2="1175" stroke="#79b8ff" />
      <line x1="358" y1="1175" x2="358" y2="1175" stroke="#d1d5da" />
      <line x1="366" y1="1175" x2="390" y2="1175" stroke="#b392f0" />
      <line x1="398" y1="1175" x2="398" y2="1175" stroke="#d1d5da" />
      <line x1="406" y1="1175" x2="422" y2="1175" stroke="#d1d5da" />
      <line x1="430" y1="1175" x2="430" y2="1175" stroke="#d1d5da" />
      <line x1="446" y1="1175" x2="462" y2="1175" stroke="#79b8ff" />
      <line x1="478" y1="1175" x2="534" y2="1175" stroke="#ffab70" />
      <line x1="550" y1="1175" x2="598" y2="1175" stroke="#ffab70" />
      <line x1="606" y1="1175" x2="606" y2="1175" stroke="#d1d5da" />
    </g>
    <g class="code line">
      <line x1="70" y1="1190" x2="70" y2="1190" stroke="#d1d5da" />
    </g>
    <g class="code line">
      <line x1="70" y1="1205" x2="110" y2="1205" stroke="#f97583" />
      <line x1="126" y1="1205" x2="158" y2="1205" stroke="#79b8ff" />
      <line x1="166" y1="1205" x2="166" y2="1205" stroke="#d1d5da" />
    </g>
    <g class="code line">
      <line x1="46" y1="1220" x2="62" y2="1220" stroke="#d1d5da" />
    </g>
    <g class="code line">
      <line x1="46" y1="1235" x2="78" y2="1235" stroke="#959da5" />
    </g>
    <g class="code line">
      <line x1="62" y1="1250" x2="62" y2="1250" stroke="#959da5" />
    </g>
    <g class="code line">
      <line x1="62" y1="1265" x2="62" y2="1265" stroke="#959da5" />
      <line x1="78" y1="1265" x2="118" y2="1265" stroke="#959da5" />
      <line x1="134" y1="1265" x2="198" y2="1265" stroke="#959da5" />
      <line x1="214" y1="1265" x2="230" y2="1265" stroke="#959da5" />
    </g>
    <g class="code line">
      <line x1="62" y1="1280" x2="62" y2="1280" stroke="#959da5" />
      <line x1="78" y1="1280" x2="118" y2="1280" stroke="#959da5" />
      <line x1="134" y1="1280" x2="198" y2="1280" stroke="#959da5" />
      <line x1="214" y1="1280" x2="254" y2="1280" stroke="#959da5" />
    </g>
    <g class="code line">
      <line x1="62" y1="1295" x2="70" y2="1295" stroke="#959da5" />
    </g>
    <g class="code line">
      <line x1="46" y1="1310" x2="102" y2="1310" stroke="#d1d5da" />
      <line x1="102" y1="1310" x2="102" y2="1310" stroke="#d1d5da" />
      <line x1="110" y1="1310" x2="158" y2="1310" stroke="#b392f0" />
      <line x1="174" y1="1310" x2="174" y2="1310" stroke="#79b8ff" />
      <line x1="190" y1="1310" x2="246" y2="1310" stroke="#f97583" />
      <line x1="254" y1="1310" x2="254" y2="1310" stroke="#d1d5da" />
      <line x1="262" y1="1310" x2="278" y2="1310" stroke="#d1d5da" />
      <line x1="286" y1="1310" x2="286" y2="1310" stroke="#d1d5da" />
      <line x1="302" y1="1310" x2="342" y2="1310" stroke="#d1d5da" />
      <line x1="350" y1="1310" x2="350" y2="1310" stroke="#d1d5da" />
      <line x1="366" y1="1310" x2="366" y2="1310" stroke="#d1d5da" />
    </g>
    <g class="code line">
      <line x1="70" y1="1325" x2="86" y2="1325" stroke="#f97583" />
      <line x1="102" y1="1325" x2="102" y2="1325" stroke="#d1d5da" />
      <line x1="118" y1="1325" x2="118" y2="1325" stroke="#79b8ff" />
      <line x1="134" y1="1325" x2="190" y2="1325" stroke="#d1d5da" />
      <line x1="198" y1="1325" x2="198" y2="1325" stroke="#d1d5da" />
      <line x1="206" y1="1325" x2="302" y2="1325" stroke="#b392f0" />
      <line x1="310" y1="1325" x2="310" y2="1325" stroke="#d1d5da" />
      <line x1="318" y1="1325" x2="334" y2="1325" stroke="#ffab70" />
      <line x1="342" y1="1325" x2="342" y2="1325" stroke="#d1d5da" />
      <line x1="350" y1="1325" x2="350" y2="1325" stroke="#d1d5da" />
    </g>
    <g class="code line">
      <line x1="70" y1="1340" x2="70" y2="1340" stroke="#d1d5da" />
      <line x1="78" y1="1340" x2="78" y2="1340" stroke="#d1d5da" />
      <line x1="86" y1="1340" x2="174" y2="1340" stroke="#b392f0" />
      <line x1="182" y1="1340" x2="182" y2="1340" stroke="#d1d5da" />
      <line x1="190" y1="1340" x2="230" y2="1340" stroke="#ffab70" />
      <line x1="238" y1="1340" x2="238" y2="1340" stroke="#d1d5da" />
      <line x1="254" y1="1340" x2="270" y2="1340" stroke="#d1d5da" />
      <line x1="278" y1="1340" x2="278" y2="1340" stroke="#d1d5da" />
      <line x1="286" y1="1340" x2="286" y2="1340" stroke="#d1d5da" />
    </g>
    <g class="code line">
      <line x1="70" y1="1355" x2="70" y2="1355" stroke="#d1d5da" />
      <line x1="78" y1="1355" x2="78" y2="1355" stroke="#d1d5da" />
      <line x1="86" y1="1355" x2="174" y2="1355" stroke="#b392f0" />
      <line x1="182" y1="1355" x2="182" y2="1355" stroke="#d1d5da" />
      <line x1="190" y1="1355" x2="246" y2="1355" stroke="#ffab70" />
      <line x1="254" y1="1355" x2="254" y2="1355" stroke="#d1d5da" />
      <line x1="270" y1="1355" x2="310" y2="1355" stroke="#d1d5da" />
      <line x1="318" y1="1355" x2="318" y2="1355" stroke="#d1d5da" />
      <line x1="326" y1="1355" x2="326" y2="1355" stroke="#d1d5da" />
    </g>
    <g class="code line">
      <line x1="70" y1="1370" x2="126" y2="1370" stroke="#d1d5da" />
      <line x1="134" y1="1370" x2="134" y2="1370" stroke="#d1d5da" />
      <line x1="142" y1="1370" x2="166" y2="1370" stroke="#79b8ff" />
      <line x1="174" y1="1370" x2="174" y2="1370" stroke="#d1d5da" />
      <line x1="182" y1="1370" x2="262" y2="1370" stroke="#b392f0" />
      <line x1="270" y1="1370" x2="270" y2="1370" stroke="#d1d5da" />
      <line x1="278" y1="1370" x2="278" y2="1370" stroke="#d1d5da" />
      <line x1="286" y1="1370" x2="286" y2="1370" stroke="#d1d5da" />
      <line x1="294" y1="1370" x2="294" y2="1370" stroke="#d1d5da" />
    </g>
    <g class="code line">
      <line x1="70" y1="1385" x2="70" y2="1385" stroke="#d1d5da" />
      <line x1="78" y1="1385" x2="78" y2="1385" stroke="#d1d5da" />
      <line x1="86" y1="1385" x2="118" y2="1385" stroke="#b392f0" />
      <line x1="126" y1="1385" x2="126" y2="1385" stroke="#d1d5da" />
      <line x1="134" y1="1385" x2="134" y2="1385" stroke="#d1d5da" />
      <line x1="142" y1="1385" x2="142" y2="1385" stroke="#d1d5da" />
    </g>
    <g class="code line">
      <line x1="70" y1="1400" x2="70" y2="1400" stroke="#d1d5da" />
      <line x1="78" y1="1400" x2="78" y2="1400" stroke="#d1d5da" />
      <line x1="86" y1="1400" x2="126" y2="1400" stroke="#b392f0" />
      <line x1="134" y1="1400" x2="134" y2="1400" stroke="#d1d5da" />
      <line x1="142" y1="1400" x2="142" y2="1400" stroke="#d1d5da" />
      <line x1="150" y1="1400" x2="150" y2="1400" stroke="#d1d5da" />
    </g>
    <g class="code line">
      <line x1="46" y1="1415" x2="62" y2="1415" stroke="#d1d5da" />
      <line x1="62" y1="1415" x2="62" y2="1415" stroke="#d1d5da" />
    </g>
  </g></svg>