<svg class="faux code" xmlns="http://www.w3.org/2000/svg" xmlns:xlink="http://www.w3.org/1999/xlink" width="740" height="1350" viewBox="0 0 740 1350">
  <rect x="0" y="0" width="740" height="1350" fill="#24292e" />
  <g class="code block" stroke-linecap="square" stroke-width="5">
    <g class="code line">
      <line x1="47.5" y1="50" x2="82.5" y2="50" stroke="#f97583" />
      <line x1="87.5" y1="50" x2="132.5" y2="50" stroke="#b392f0" />
    </g>
    <g class="code line">
      <line x1="47.5" y1="80" x2="92.5" y2="80" stroke="#f97583" />
      <line x1="97.5" y1="80" x2="167.5" y2="80" stroke="#b392f0" />
      <line x1="177.5" y1="80" x2="182.5" y2="80" stroke="#d1d5da" />
    </g>
    <g class="code line">
      <line x1="47.5" y1="90" x2="97.5" y2="90" stroke="#f97583" />
      <line x1="102.5" y1="90" x2="127.5" y2="90" stroke="#b392f0" />
      <line x1="132.5" y1="90" x2="132.5" y2="90" stroke="#d1d5da" />
      <line x1="142.5" y1="90" x2="212.5" y2="90" stroke="#b392f0" />
      <line x1="222.5" y1="90" x2="227.5" y2="90" stroke="#d1d5da" />
    </g>
    <g class="code line">
      <line x1="47.5" y1="100" x2="97.5" y2="100" stroke="#f97583" />
      <line x1="102.5" y1="100" x2="137.5" y2="100" stroke="#b392f0" />
      <line x1="142.5" y1="100" x2="142.5" y2="100" stroke="#d1d5da" />
      <line x1="152.5" y1="100" x2="222.5" y2="100" stroke="#b392f0" />
      <line x1="232.5" y1="100" x2="237.5" y2="100" stroke="#d1d5da" />
    </g>
    <g class="code line">
      <line x1="47.5" y1="130" x2="77.5" y2="130" stroke="#f97583" />
      <line x1="82.5" y1="130" x2="112.5" y2="130" stroke="#b392f0" />
      <line x1="117.5" y1="130" x2="117.5" y2="130" stroke="#d1d5da" />
      <line x1="127.5" y1="130" x2="242.5" y2="130" stroke="#b392f0" />
      <line x1="247.5" y1="130" x2="247.5" y2="130" stroke="#d1d5da" />
      <line x1="257.5" y1="130" x2="367.5" y2="130" stroke="#b392f0" />
      <line x1="372.5" y1="130" x2="372.5" y2="130" stroke="#d1d5da" />
      <line x1="382.5" y1="130" x2="422.5" y2="130" stroke="#b392f0" />
      <line x1="427.5" y1="130" x2="427.5" y2="130" stroke="#d1d5da" />
      <line x1="437.5" y1="130" x2="502.5" y2="130" stroke="#b392f0" />
      <line x1="512.5" y1="130" x2="512.5" y2="130" stroke="#d1d5da" />
    </g>
    <g class="code line">
      <line x1="72.5" y1="140" x2="82.5" y2="140" stroke="#f97583" />
      <line x1="92.5" y1="140" x2="112.5" y2="140" stroke="#d1d5da" />
      <line x1="122.5" y1="140" x2="147.5" y2="140" stroke="#79b8ff" />
      <line x1="152.5" y1="140" x2="152.5" y2="140" stroke="#f97583" />
    </g>
    <g class="code line">
      <line x1="72.5" y1="150" x2="82.5" y2="150" stroke="#f97583" />
      <line x1="92.5" y1="150" x2="137.5" y2="150" stroke="#d1d5da" />
      <line x1="147.5" y1="150" x2="147.5" y2="150" stroke="#d1d5da" />
      <line x1="152.5" y1="150" x2="177.5" y2="150" stroke="#79b8ff" />
      <line x1="187.5" y1="150" x2="187.5" y2="150" stroke="#d1d5da" />
      <line x1="197.5" y1="150" x2="272.5" y2="150" stroke="#d1d5da" />
    </g>
    <g class="code line">
      <line x1="72.5" y1="160" x2="82.5" y2="160" stroke="#f97583" />
      <line x1="92.5" y1="160" x2="142.5" y2="160" stroke="#d1d5da" />
      <line x1="152.5" y1="160" x2="192.5" y2="160" stroke="#d1d5da" />
    </g>
    <g class="code line">
    </g>
    <g class="code line">
      <line x1="72.5" y1="180" x2="82.5" y2="180" stroke="#f97583" />
      <line x1="92.5" y1="180" x2="142.5" y2="180" stroke="#d1d5da" />
      <line x1="152.5" y1="180" x2="167.5" y2="180" stroke="#79b8ff" />
      <line x1="177.5" y1="180" x2="177.5" y2="180" stroke="#d1d5da" />
    </g>
    <g class="code line">
      <line x1="92.5" y1="190" x2="117.5" y2="190" stroke="#f97583" />
      <line x1="127.5" y1="190" x2="142.5" y2="190" stroke="#79b8ff" />
      <line x1="147.5" y1="190" x2="147.5" y2="190" stroke="#d1d5da" />
      <line x1="152.5" y1="190" x2="167.5" y2="190" stroke="#d1d5da" />
      <line x1="172.5" y1="190" x2="172.5" y2="190" stroke="#f97583" />
      <line x1="177.5" y1="190" x2="177.5" y2="190" stroke="#d1d5da" />
      <line x1="182.5" y1="190" x2="212.5" y2="190" stroke="#79b8ff" />
      <line x1="222.5" y1="190" x2="227.5" y2="190" stroke="#f97583" />
      <line x1="237.5" y1="190" x2="252.5" y2="190" stroke="#79b8ff" />
    </g>
    <g class="code line">
      <line x1="72.5" y1="200" x2="72.5" y2="200" stroke="#d1d5da" />
    </g>
    <g class="code line">
    </g>
    <g class="code line">
      <line x1="72.5" y1="220" x2="87.5" y2="220" stroke="#f97583" />
      <line x1="92.5" y1="220" x2="92.5" y2="220" stroke="#d1d5da" />
      <line x1="97.5" y1="220" x2="112.5" y2="220" stroke="#d1d5da" />
      <line x1="117.5" y1="220" x2="117.5" y2="220" stroke="#d1d5da" />
      <line x1="127.5" y1="220" x2="152.5" y2="220" stroke="#79b8ff" />
      <line x1="157.5" y1="220" x2="157.5" y2="220" stroke="#d1d5da" />
      <line x1="167.5" y1="220" x2="207.5" y2="220" stroke="#d1d5da" />
      <line x1="212.5" y1="220" x2="212.5" y2="220" stroke="#d1d5da" />
      <line x1="222.5" y1="220" x2="222.5" y2="220" stroke="#d1d5da" />
      <line x1="227.5" y1="220" x2="252.5" y2="220" stroke="#79b8ff" />
      <line x1="262.5" y1="220" x2="262.5" y2="220" stroke="#d1d5da" />
      <line x1="272.5" y1="220" x2="347.5" y2="220" stroke="#d1d5da" />
      <line x1="357.5" y1="220" x2="357.5" y2="220" stroke="#f97583" />
      <line x1="367.5" y1="220" x2="367.5" y2="220" stroke="#d1d5da" />
      <line x1="372.5" y1="220" x2="372.5" y2="220" stroke="#f97583" />
      <line x1="377.5" y1="220" x2="382.5" y2="220" stroke="#d1d5da" />
      <line x1="392.5" y1="220" x2="437.5" y2="220" stroke="#d1d5da" />
      <line x1="442.5" y1="220" x2="442.5" y2="220" stroke="#d1d5da" />
      <line x1="452.5" y1="220" x2="492.5" y2="220" stroke="#d1d5da" />
      <line x1="502.5" y1="220" x2="502.5" y2="220" stroke="#f97583" />
      <line x1="512.5" y1="220" x2="522.5" y2="220" stroke="#d1d5da" />
      <line x1="532.5" y1="220" x2="532.5" y2="220" stroke="#d1d5da" />
    </g>
    <g class="code line">
      <line x1="92.5" y1="230" x2="102.5" y2="230" stroke="#f97583" />
      <line x1="112.5" y1="230" x2="127.5" y2="230" stroke="#d1d5da" />
      <line x1="137.5" y1="230" x2="142.5" y2="230" stroke="#f97583" />
      <line x1="152.5" y1="230" x2="197.5" y2="230" stroke="#d1d5da" />
      <line x1="207.5" y1="230" x2="207.5" y2="230" stroke="#d1d5da" />
    </g>
    <g class="code line">
      <line x1="112.5" y1="240" x2="137.5" y2="240" stroke="#79b8ff" />
      <line x1="142.5" y1="240" x2="142.5" y2="240" stroke="#d1d5da" />
      <line x1="147.5" y1="240" x2="147.5" y2="240" stroke="#f97583" />
      <line x1="152.5" y1="240" x2="172.5" y2="240" stroke="#d1d5da" />
      <line x1="177.5" y1="240" x2="222.5" y2="240" stroke="#d1d5da" />
      <line x1="227.5" y1="240" x2="227.5" y2="240" stroke="#d1d5da" />
      <line x1="237.5" y1="240" x2="252.5" y2="240" stroke="#ffab70" />
      <line x1="262.5" y1="240" x2="287.5" y2="240" stroke="#ffab70" />
      <line x1="297.5" y1="240" x2="327.5" y2="240" stroke="#ffab70" />
      <line x1="337.5" y1="240" x2="337.5" y2="240" stroke="#ffab70" />
      <line x1="347.5" y1="240" x2="362.5" y2="240" stroke="#ffab70" />
      <line x1="372.5" y1="240" x2="392.5" y2="240" stroke="#ffab70" />
      <line x1="402.5" y1="240" x2="407.5" y2="240" stroke="#ffab70" />
      <line x1="417.5" y1="240" x2="417.5" y2="240" stroke="#ffab70" />
      <line x1="427.5" y1="240" x2="442.5" y2="240" stroke="#ffab70" />
      <line x1="452.5" y1="240" x2="467.5" y2="240" stroke="#ffab70" />
      <line x1="477.5" y1="240" x2="482.5" y2="240" stroke="#ffab70" />
      <line x1="492.5" y1="240" x2="512.5" y2="240" stroke="#ffab70" />
      <line x1="522.5" y1="240" x2="537.5" y2="240" stroke="#ffab70" />
      <line x1="547.5" y1="240" x2="552.5" y2="240" stroke="#ffab70" />
      <line x1="562.5" y1="240" x2="562.5" y2="240" stroke="#ffab70" />
      <line x1="572.5" y1="240" x2="592.5" y2="240" stroke="#ffab70" />
      <line x1="602.5" y1="240" x2="607.5" y2="240" stroke="#ffab70" />
      <line x1="617.5" y1="240" x2="647.5" y2="240" stroke="#ffab70" />
      <line x1="657.5" y1="240" x2="682.5" y2="240" stroke="#ffab70" />
      <line x1="687.5" y1="240" x2="687.5" y2="240" stroke="#d1d5da" />
    </g>
    <g class="code line">
      <line x1="92.5" y1="250" x2="92.5" y2="250" stroke="#d1d5da" />
    </g>
    <g class="code line">
    </g>
    <g class="code line">
      <line x1="92.5" y1="270" x2="107.5" y2="270" stroke="#79b8ff" />
      <line x1="112.5" y1="270" x2="112.5" y2="270" stroke="#d1d5da" />
      <line x1="117.5" y1="270" x2="132.5" y2="270" stroke="#d1d5da" />
      <line x1="142.5" y1="270" x2="142.5" y2="270" stroke="#f97583" />
      <line x1="152.5" y1="270" x2="167.5" y2="270" stroke="#d1d5da" />
    </g>
    <g class="code line">
      <line x1="92.5" y1="280" x2="107.5" y2="280" stroke="#79b8ff" />
      <line x1="112.5" y1="280" x2="112.5" y2="280" stroke="#d1d5da" />
      <line x1="117.5" y1="280" x2="157.5" y2="280" stroke="#d1d5da" />
      <line x1="167.5" y1="280" x2="167.5" y2="280" stroke="#f97583" />
      <line x1="177.5" y1="280" x2="217.5" y2="280" stroke="#d1d5da" />
    </g>
    <g class="code line">
      <line x1="92.5" y1="290" x2="107.5" y2="290" stroke="#79b8ff" />
      <line x1="112.5" y1="290" x2="112.5" y2="290" stroke="#d1d5da" />
      <line x1="117.5" y1="290" x2="162.5" y2="290" stroke="#d1d5da" />
      <line x1="172.5" y1="290" x2="172.5" y2="290" stroke="#f97583" />
      <line x1="182.5" y1="290" x2="227.5" y2="290" stroke="#d1d5da" />
    </g>
    <g class="code line">
      <line x1="72.5" y1="300" x2="72.5" y2="300" stroke="#d1d5da" />
    </g>
    <g class="code line">
    </g>
    <g class="code line">
      <line x1="72.5" y1="320" x2="107.5" y2="320" stroke="#f97583" />
      <line x1="117.5" y1="320" x2="167.5" y2="320" stroke="#f97583" />
      <line x1="177.5" y1="320" x2="192.5" y2="320" stroke="#f97583" />
      <line x1="197.5" y1="320" x2="197.5" y2="320" stroke="#d1d5da" />
      <line x1="202.5" y1="320" x2="262.5" y2="320" stroke="#b392f0" />
      <line x1="272.5" y1="320" x2="292.5" y2="320" stroke="#d1d5da" />
      <line x1="297.5" y1="320" x2="297.5" y2="320" stroke="#d1d5da" />
      <line x1="307.5" y1="320" x2="387.5" y2="320" stroke="#79b8ff" />
      <line x1="392.5" y1="320" x2="392.5" y2="320" stroke="#d1d5da" />
      <line x1="402.5" y1="320" x2="402.5" y2="320" stroke="#d1d5da" />
    </g>
    <g class="code line">
      <line x1="92.5" y1="330" x2="107.5" y2="330" stroke="#79b8ff" />
      <line x1="112.5" y1="330" x2="112.5" y2="330" stroke="#d1d5da" />
      <line x1="117.5" y1="330" x2="132.5" y2="330" stroke="#f97583" />
      <line x1="137.5" y1="330" x2="137.5" y2="330" stroke="#d1d5da" />
      <line x1="142.5" y1="330" x2="157.5" y2="330" stroke="#79b8ff" />
      <line x1="162.5" y1="330" x2="162.5" y2="330" stroke="#d1d5da" />
      <line x1="172.5" y1="330" x2="197.5" y2="330" stroke="#d1d5da" />
    </g>
    <g class="code line">
      <line x1="72.5" y1="340" x2="72.5" y2="340" stroke="#d1d5da" />
    </g>
    <g class="code line">
    </g>
    <g class="code line">
      <line x1="72.5" y1="360" x2="107.5" y2="360" stroke="#f97583" />
      <line x1="117.5" y1="360" x2="167.5" y2="360" stroke="#f97583" />
      <line x1="177.5" y1="360" x2="192.5" y2="360" stroke="#f97583" />
      <line x1="197.5" y1="360" x2="197.5" y2="360" stroke="#d1d5da" />
      <line x1="202.5" y1="360" x2="347.5" y2="360" stroke="#b392f0" />
      <line x1="357.5" y1="360" x2="377.5" y2="360" stroke="#d1d5da" />
      <line x1="382.5" y1="360" x2="382.5" y2="360" stroke="#d1d5da" />
      <line x1="392.5" y1="360" x2="472.5" y2="360" stroke="#79b8ff" />
      <line x1="477.5" y1="360" x2="477.5" y2="360" stroke="#d1d5da" />
      <line x1="487.5" y1="360" x2="487.5" y2="360" stroke="#d1d5da" />
    </g>
    <g class="code line">
      <line x1="92.5" y1="370" x2="107.5" y2="370" stroke="#79b8ff" />
      <line x1="112.5" y1="370" x2="112.5" y2="370" stroke="#d1d5da" />
      <line x1="117.5" y1="370" x2="132.5" y2="370" stroke="#f97583" />
      <line x1="137.5" y1="370" x2="137.5" y2="370" stroke="#d1d5da" />
      <line x1="142.5" y1="370" x2="157.5" y2="370" stroke="#79b8ff" />
      <line x1="162.5" y1="370" x2="162.5" y2="370" stroke="#d1d5da" />
      <line x1="172.5" y1="370" x2="197.5" y2="370" stroke="#d1d5da" />
    </g>
    <g class="code line">
      <line x1="72.5" y1="380" x2="72.5" y2="380" stroke="#d1d5da" />
    </g>
    <g class="code line">
    </g>
    <g class="code line">
      <line x1="72.5" y1="400" x2="107.5" y2="400" stroke="#f97583" />
      <line x1="117.5" y1="400" x2="167.5" y2="400" stroke="#f97583" />
      <line x1="177.5" y1="400" x2="192.5" y2="400" stroke="#f97583" />
      <line x1="197.5" y1="400" x2="197.5" y2="400" stroke="#d1d5da" />
      <line x1="202.5" y1="400" x2="297.5" y2="400" stroke="#b392f0" />
      <line x1="307.5" y1="400" x2="327.5" y2="400" stroke="#d1d5da" />
      <line x1="332.5" y1="400" x2="332.5" y2="400" stroke="#d1d5da" />
      <line x1="342.5" y1="400" x2="422.5" y2="400" stroke="#79b8ff" />
      <line x1="427.5" y1="400" x2="427.5" y2="400" stroke="#d1d5da" />
      <line x1="437.5" y1="400" x2="437.5" y2="400" stroke="#d1d5da" />
    </g>
    <g class="code line">
      <line x1="92.5" y1="410" x2="107.5" y2="410" stroke="#79b8ff" />
      <line x1="112.5" y1="410" x2="112.5" y2="410" stroke="#d1d5da" />
      <line x1="117.5" y1="410" x2="132.5" y2="410" stroke="#f97583" />
      <line x1="137.5" y1="410" x2="137.5" y2="410" stroke="#d1d5da" />
      <line x1="142.5" y1="410" x2="157.5" y2="410" stroke="#79b8ff" />
      <line x1="162.5" y1="410" x2="162.5" y2="410" stroke="#d1d5da" />
      <line x1="172.5" y1="410" x2="197.5" y2="410" stroke="#d1d5da" />
    </g>
    <g class="code line">
      <line x1="72.5" y1="420" x2="72.5" y2="420" stroke="#d1d5da" />
    </g>
    <g class="code line">
    </g>
    <g class="code line">
      <line x1="72.5" y1="440" x2="107.5" y2="440" stroke="#f97583" />
      <line x1="117.5" y1="440" x2="167.5" y2="440" stroke="#f97583" />
      <line x1="177.5" y1="440" x2="192.5" y2="440" stroke="#f97583" />
      <line x1="197.5" y1="440" x2="197.5" y2="440" stroke="#d1d5da" />
      <line x1="202.5" y1="440" x2="257.5" y2="440" stroke="#b392f0" />
      <line x1="267.5" y1="440" x2="302.5" y2="440" stroke="#d1d5da" />
      <line x1="307.5" y1="440" x2="307.5" y2="440" stroke="#d1d5da" />
      <line x1="317.5" y1="440" x2="347.5" y2="440" stroke="#d1d5da" />
      <line x1="352.5" y1="440" x2="362.5" y2="440" stroke="#f97583" />
      <line x1="367.5" y1="440" x2="367.5" y2="440" stroke="#d1d5da" />
      <line x1="377.5" y1="440" x2="377.5" y2="440" stroke="#d1d5da" />
    </g>
    <g class="code line">
      <line x1="92.5" y1="450" x2="107.5" y2="450" stroke="#79b8ff" />
      <line x1="112.5" y1="450" x2="112.5" y2="450" stroke="#d1d5da" />
      <line x1="117.5" y1="450" x2="132.5" y2="450" stroke="#f97583" />
      <line x1="137.5" y1="450" x2="137.5" y2="450" stroke="#d1d5da" />
      <line x1="142.5" y1="450" x2="157.5" y2="450" stroke="#79b8ff" />
      <line x1="162.5" y1="450" x2="162.5" y2="450" stroke="#d1d5da" />
      <line x1="172.5" y1="450" x2="177.5" y2="450" stroke="#ffab70" />
      <line x1="182.5" y1="450" x2="182.5" y2="450" stroke="#d1d5da" />
      <line x1="192.5" y1="450" x2="237.5" y2="450" stroke="#79b8ff" />
      <line x1="242.5" y1="450" x2="242.5" y2="450" stroke="#d1d5da" />
      <line x1="252.5" y1="450" x2="292.5" y2="450" stroke="#d1d5da" />
    </g>
    <g class="code line">
      <line x1="72.5" y1="460" x2="72.5" y2="460" stroke="#d1d5da" />
    </g>
    <g class="code line">
    </g>
    <g class="code line">
    </g>
    <g class="code line">
      <line x1="72.5" y1="490" x2="87.5" y2="490" stroke="#f97583" />
      <line x1="97.5" y1="490" x2="122.5" y2="490" stroke="#b392f0" />
      <line x1="127.5" y1="490" x2="127.5" y2="490" stroke="#d1d5da" />
      <line x1="132.5" y1="490" x2="157.5" y2="490" stroke="#d1d5da" />
      <line x1="162.5" y1="490" x2="162.5" y2="490" stroke="#d1d5da" />
      <line x1="172.5" y1="490" x2="187.5" y2="490" stroke="#79b8ff" />
      <line x1="197.5" y1="490" x2="197.5" y2="490" stroke="#f97583" />
      <line x1="207.5" y1="490" x2="227.5" y2="490" stroke="#79b8ff" />
      <line x1="232.5" y1="490" x2="232.5" y2="490" stroke="#d1d5da" />
      <line x1="242.5" y1="490" x2="317.5" y2="490" stroke="#d1d5da" />
      <line x1="322.5" y1="490" x2="322.5" y2="490" stroke="#d1d5da" />
      <line x1="332.5" y1="490" x2="342.5" y2="490" stroke="#79b8ff" />
      <line x1="352.5" y1="490" x2="352.5" y2="490" stroke="#f97583" />
      <line x1="362.5" y1="490" x2="362.5" y2="490" stroke="#79b8ff" />
      <line x1="367.5" y1="490" x2="367.5" y2="490" stroke="#d1d5da" />
      <line x1="377.5" y1="490" x2="382.5" y2="490" stroke="#f97583" />
      <line x1="392.5" y1="490" x2="417.5" y2="490" stroke="#79b8ff" />
      <line x1="427.5" y1="490" x2="427.5" y2="490" stroke="#d1d5da" />
    </g>
    <g class="code line">
      <line x1="92.5" y1="500" x2="102.5" y2="500" stroke="#f97583" />
      <line x1="112.5" y1="500" x2="152.5" y2="500" stroke="#d1d5da" />
      <line x1="162.5" y1="500" x2="187.5" y2="500" stroke="#79b8ff" />
      <line x1="197.5" y1="500" x2="197.5" y2="500" stroke="#f97583" />
      <line x1="207.5" y1="500" x2="212.5" y2="500" stroke="#ffab70" />
    </g>
    <g class="code line">
      <line x1="92.5" y1="510" x2="102.5" y2="510" stroke="#f97583" />
      <line x1="112.5" y1="510" x2="187.5" y2="510" stroke="#d1d5da" />
      <line x1="197.5" y1="510" x2="222.5" y2="510" stroke="#79b8ff" />
    </g>
    <g class="code line">
      <line x1="92.5" y1="520" x2="97.5" y2="520" stroke="#f97583" />
      <line x1="107.5" y1="520" x2="132.5" y2="520" stroke="#d1d5da" />
      <line x1="142.5" y1="520" x2="142.5" y2="520" stroke="#d1d5da" />
    </g>
    <g class="code line">
      <line x1="112.5" y1="530" x2="182.5" y2="530" stroke="#d1d5da" />
      <line x1="192.5" y1="530" x2="192.5" y2="530" stroke="#f97583" />
      <line x1="202.5" y1="530" x2="207.5" y2="530" stroke="#ffab70" />
      <line x1="212.5" y1="530" x2="212.5" y2="530" stroke="#d1d5da" />
      <line x1="217.5" y1="530" x2="232.5" y2="530" stroke="#79b8ff" />
      <line x1="237.5" y1="530" x2="237.5" y2="530" stroke="#d1d5da" />
      <line x1="242.5" y1="530" x2="262.5" y2="530" stroke="#79b8ff" />
      <line x1="267.5" y1="530" x2="267.5" y2="530" stroke="#d1d5da" />
      <line x1="272.5" y1="530" x2="292.5" y2="530" stroke="#79b8ff" />
      <line x1="297.5" y1="530" x2="297.5" y2="530" stroke="#d1d5da" />
      <line x1="307.5" y1="530" x2="387.5" y2="530" stroke="#d1d5da" />
      <line x1="397.5" y1="530" x2="457.5" y2="530" stroke="#79b8ff" />
      <line x1="462.5" y1="530" x2="462.5" y2="530" stroke="#d1d5da" />
      <line x1="472.5" y1="530" x2="472.5" y2="530" stroke="#ffab70" />
      <line x1="497.5" y1="530" x2="497.5" y2="530" stroke="#ffab70" />
      <line x1="502.5" y1="530" x2="507.5" y2="530" stroke="#d1d5da" />
    </g>
    <g class="code line">
      <line x1="92.5" y1="540" x2="92.5" y2="540" stroke="#d1d5da" />
      <line x1="102.5" y1="540" x2="117.5" y2="540" stroke="#f97583" />
      <line x1="127.5" y1="540" x2="127.5" y2="540" stroke="#d1d5da" />
    </g>
    <g class="code line">
      <line x1="112.5" y1="550" x2="182.5" y2="550" stroke="#d1d5da" />
      <line x1="192.5" y1="550" x2="192.5" y2="550" stroke="#f97583" />
      <line x1="202.5" y1="550" x2="207.5" y2="550" stroke="#ffab70" />
    </g>
    <g class="code line">
      <line x1="92.5" y1="560" x2="92.5" y2="560" stroke="#d1d5da" />
    </g>
    <g class="code line">
    </g>
    <g class="code line">
      <line x1="92.5" y1="580" x2="127.5" y2="580" stroke="#d1d5da" />
      <line x1="137.5" y1="580" x2="142.5" y2="580" stroke="#f97583" />
      <line x1="152.5" y1="580" x2="222.5" y2="580" stroke="#d1d5da" />
    </g>
    <g class="code line">
    </g>
    <g class="code line">
      <line x1="92.5" y1="600" x2="97.5" y2="600" stroke="#f97583" />
      <line x1="107.5" y1="600" x2="117.5" y2="600" stroke="#f97583" />
      <line x1="127.5" y1="600" x2="142.5" y2="600" stroke="#d1d5da" />
      <line x1="152.5" y1="600" x2="152.5" y2="600" stroke="#f97583" />
      <line x1="162.5" y1="600" x2="177.5" y2="600" stroke="#79b8ff" />
      <line x1="182.5" y1="600" x2="182.5" y2="600" stroke="#d1d5da" />
      <line x1="187.5" y1="600" x2="202.5" y2="600" stroke="#d1d5da" />
      <line x1="212.5" y1="600" x2="212.5" y2="600" stroke="#d1d5da" />
    </g>
    <g class="code line">
      <line x1="112.5" y1="610" x2="147.5" y2="610" stroke="#d1d5da" />
      <line x1="157.5" y1="610" x2="162.5" y2="610" stroke="#f97583" />
      <line x1="172.5" y1="610" x2="187.5" y2="610" stroke="#d1d5da" />
    </g>
    <g class="code line">
      <line x1="92.5" y1="620" x2="92.5" y2="620" stroke="#d1d5da" />
    </g>
    <g class="code line">
    </g>
    <g class="code line">
      <line x1="92.5" y1="640" x2="97.5" y2="640" stroke="#f97583" />
      <line x1="107.5" y1="640" x2="122.5" y2="640" stroke="#79b8ff" />
      <line x1="127.5" y1="640" x2="127.5" y2="640" stroke="#d1d5da" />
      <line x1="132.5" y1="640" x2="172.5" y2="640" stroke="#d1d5da" />
      <line x1="177.5" y1="640" x2="177.5" y2="640" stroke="#d1d5da" />
      <line x1="182.5" y1="640" x2="202.5" y2="640" stroke="#79b8ff" />
      <line x1="212.5" y1="640" x2="212.5" y2="640" stroke="#f97583" />
      <line x1="222.5" y1="640" x2="222.5" y2="640" stroke="#79b8ff" />
      <line x1="232.5" y1="640" x2="232.5" y2="640" stroke="#d1d5da" />
    </g>
    <g class="code line">
      <line x1="112.5" y1="650" x2="147.5" y2="650" stroke="#d1d5da" />
      <line x1="157.5" y1="650" x2="162.5" y2="650" stroke="#f97583" />
      <line x1="172.5" y1="650" x2="182.5" y2="650" stroke="#ffab70" />
    </g>
    <g class="code line">
      <line x1="112.5" y1="660" x2="122.5" y2="660" stroke="#f97583" />
      <line x1="132.5" y1="660" x2="197.5" y2="660" stroke="#d1d5da" />
      <line x1="207.5" y1="660" x2="207.5" y2="660" stroke="#d1d5da" />
      <line x1="212.5" y1="660" x2="237.5" y2="660" stroke="#79b8ff" />
      <line x1="242.5" y1="660" x2="242.5" y2="660" stroke="#d1d5da" />
      <line x1="252.5" y1="660" x2="252.5" y2="660" stroke="#f97583" />
      <line x1="262.5" y1="660" x2="267.5" y2="660" stroke="#d1d5da" />
    </g>
    <g class="code line">
      <line x1="112.5" y1="670" x2="122.5" y2="670" stroke="#f97583" />
      <line x1="132.5" y1="670" x2="157.5" y2="670" stroke="#d1d5da" />
      <line x1="167.5" y1="670" x2="207.5" y2="670" stroke="#d1d5da" />
      <line x1="217.5" y1="670" x2="222.5" y2="670" stroke="#f97583" />
      <line x1="232.5" y1="670" x2="247.5" y2="670" stroke="#79b8ff" />
      <line x1="252.5" y1="670" x2="252.5" y2="670" stroke="#d1d5da" />
      <line x1="257.5" y1="670" x2="297.5" y2="670" stroke="#d1d5da" />
      <line x1="307.5" y1="670" x2="307.5" y2="670" stroke="#d1d5da" />
    </g>
    <g class="code line">
      <line x1="132.5" y1="680" x2="197.5" y2="680" stroke="#d1d5da" />
      <line x1="202.5" y1="680" x2="227.5" y2="680" stroke="#79b8ff" />
      <line x1="232.5" y1="680" x2="232.5" y2="680" stroke="#d1d5da" />
      <line x1="237.5" y1="680" x2="277.5" y2="680" stroke="#ffab70" />
      <line x1="287.5" y1="680" x2="342.5" y2="680" stroke="#ffab70" />
      <line x1="347.5" y1="680" x2="347.5" y2="680" stroke="#d1d5da" />
    </g>
    <g class="code line">
      <line x1="112.5" y1="690" x2="112.5" y2="690" stroke="#d1d5da" />
    </g>
    <g class="code line">
      <line x1="112.5" y1="700" x2="147.5" y2="700" stroke="#d1d5da" />
      <line x1="157.5" y1="700" x2="162.5" y2="700" stroke="#f97583" />
      <line x1="172.5" y1="700" x2="177.5" y2="700" stroke="#ffab70" />
      <line x1="187.5" y1="700" x2="187.5" y2="700" stroke="#ffab70" />
      <line x1="192.5" y1="700" x2="192.5" y2="700" stroke="#d1d5da" />
      <line x1="197.5" y1="700" x2="212.5" y2="700" stroke="#79b8ff" />
      <line x1="217.5" y1="700" x2="287.5" y2="700" stroke="#d1d5da" />
    </g>
    <g class="code line">
      <line x1="112.5" y1="710" x2="117.5" y2="710" stroke="#f97583" />
      <line x1="127.5" y1="710" x2="152.5" y2="710" stroke="#d1d5da" />
      <line x1="162.5" y1="710" x2="162.5" y2="710" stroke="#d1d5da" />
    </g>
    <g class="code line">
      <line x1="132.5" y1="720" x2="167.5" y2="720" stroke="#d1d5da" />
      <line x1="177.5" y1="720" x2="182.5" y2="720" stroke="#f97583" />
      <line x1="192.5" y1="720" x2="197.5" y2="720" stroke="#ffab70" />
      <line x1="207.5" y1="720" x2="207.5" y2="720" stroke="#ffab70" />
    </g>
    <g class="code line">
      <line x1="112.5" y1="730" x2="112.5" y2="730" stroke="#d1d5da" />
      <line x1="122.5" y1="730" x2="137.5" y2="730" stroke="#f97583" />
      <line x1="147.5" y1="730" x2="147.5" y2="730" stroke="#d1d5da" />
    </g>
    <g class="code line">
      <line x1="132.5" y1="740" x2="167.5" y2="740" stroke="#d1d5da" />
      <line x1="177.5" y1="740" x2="182.5" y2="740" stroke="#f97583" />
      <line x1="192.5" y1="740" x2="202.5" y2="740" stroke="#ffab70" />
    </g>
    <g class="code line">
      <line x1="112.5" y1="750" x2="112.5" y2="750" stroke="#d1d5da" />
    </g>
    <g class="code line">
      <line x1="92.5" y1="760" x2="92.5" y2="760" stroke="#d1d5da" />
    </g>
    <g class="code line">
    </g>
    <g class="code line">
      <line x1="92.5" y1="780" x2="97.5" y2="780" stroke="#f97583" />
      <line x1="107.5" y1="780" x2="122.5" y2="780" stroke="#79b8ff" />
      <line x1="127.5" y1="780" x2="127.5" y2="780" stroke="#d1d5da" />
      <line x1="132.5" y1="780" x2="177.5" y2="780" stroke="#d1d5da" />
      <line x1="182.5" y1="780" x2="182.5" y2="780" stroke="#d1d5da" />
      <line x1="187.5" y1="780" x2="207.5" y2="780" stroke="#79b8ff" />
      <line x1="217.5" y1="780" x2="217.5" y2="780" stroke="#f97583" />
      <line x1="227.5" y1="780" x2="227.5" y2="780" stroke="#79b8ff" />
      <line x1="237.5" y1="780" x2="237.5" y2="780" stroke="#d1d5da" />
    </g>
    <g class="code line">
      <line x1="112.5" y1="790" x2="147.5" y2="790" stroke="#d1d5da" />
      <line x1="157.5" y1="790" x2="162.5" y2="790" stroke="#f97583" />
      <line x1="172.5" y1="790" x2="182.5" y2="790" stroke="#ffab70" />
    </g>
    <g class="code line">
    </g>
    <g class="code line">
      <line x1="112.5" y1="810" x2="117.5" y2="810" stroke="#f97583" />
      <line x1="127.5" y1="810" x2="152.5" y2="810" stroke="#d1d5da" />
      <line x1="162.5" y1="810" x2="162.5" y2="810" stroke="#d1d5da" />
    </g>
    <g class="code line">
      <line x1="132.5" y1="820" x2="167.5" y2="820" stroke="#d1d5da" />
      <line x1="177.5" y1="820" x2="182.5" y2="820" stroke="#f97583" />
      <line x1="192.5" y1="820" x2="207.5" y2="820" stroke="#ffab70" />
    </g>
    <g class="code line">
      <line x1="112.5" y1="830" x2="112.5" y2="830" stroke="#d1d5da" />
    </g>
    <g class="code line">
    </g>
    <g class="code line">
      <line x1="112.5" y1="850" x2="122.5" y2="850" stroke="#f97583" />
      <line x1="132.5" y1="850" x2="197.5" y2="850" stroke="#d1d5da" />
      <line x1="207.5" y1="850" x2="207.5" y2="850" stroke="#d1d5da" />
      <line x1="212.5" y1="850" x2="237.5" y2="850" stroke="#79b8ff" />
      <line x1="242.5" y1="850" x2="242.5" y2="850" stroke="#d1d5da" />
      <line x1="252.5" y1="850" x2="252.5" y2="850" stroke="#f97583" />
      <line x1="262.5" y1="850" x2="267.5" y2="850" stroke="#d1d5da" />
    </g>
    <g class="code line">
      <line x1="112.5" y1="860" x2="122.5" y2="860" stroke="#f97583" />
      <line x1="132.5" y1="860" x2="167.5" y2="860" stroke="#d1d5da" />
      <line x1="177.5" y1="860" x2="182.5" y2="860" stroke="#f97583" />
      <line x1="192.5" y1="860" x2="207.5" y2="860" stroke="#79b8ff" />
      <line x1="212.5" y1="860" x2="212.5" y2="860" stroke="#d1d5da" />
      <line x1="217.5" y1="860" x2="262.5" y2="860" stroke="#d1d5da" />
      <line x1="272.5" y1="860" x2="272.5" y2="860" stroke="#d1d5da" />
    </g>
    <g class="code line">
      <line x1="132.5" y1="870" x2="197.5" y2="870" stroke="#d1d5da" />
      <line x1="202.5" y1="870" x2="227.5" y2="870" stroke="#79b8ff" />
      <line x1="232.5" y1="870" x2="277.5" y2="870" stroke="#d1d5da" />
      <line x1="282.5" y1="870" x2="307.5" y2="870" stroke="#79b8ff" />
      <line x1="312.5" y1="870" x2="312.5" y2="870" stroke="#d1d5da" />
      <line x1="317.5" y1="870" x2="342.5" y2="870" stroke="#79b8ff" />
      <line x1="347.5" y1="870" x2="347.5" y2="870" stroke="#d1d5da" />
      <line x1="357.5" y1="870" x2="387.5" y2="870" stroke="#d1d5da" />
      <line x1="397.5" y1="870" x2="472.5" y2="870" stroke="#79b8ff" />
      <line x1="477.5" y1="870" x2="477.5" y2="870" stroke="#d1d5da" />
      <line x1="487.5" y1="870" x2="562.5" y2="870" stroke="#d1d5da" />
      <line x1="572.5" y1="870" x2="572.5" y2="870" stroke="#f97583" />
      <line x1="582.5" y1="870" x2="582.5" y2="870" stroke="#79b8ff" />
      <line x1="587.5" y1="870" x2="592.5" y2="870" stroke="#d1d5da" />
    </g>
    <g class="code line">
      <line x1="112.5" y1="880" x2="112.5" y2="880" stroke="#d1d5da" />
    </g>
    <g class="code line">
      <line x1="112.5" y1="890" x2="117.5" y2="890" stroke="#f97583" />
      <line x1="127.5" y1="890" x2="152.5" y2="890" stroke="#d1d5da" />
      <line x1="162.5" y1="890" x2="162.5" y2="890" stroke="#d1d5da" />
    </g>
    <g class="code line">
      <line x1="132.5" y1="900" x2="167.5" y2="900" stroke="#d1d5da" />
      <line x1="177.5" y1="900" x2="182.5" y2="900" stroke="#f97583" />
      <line x1="192.5" y1="900" x2="212.5" y2="900" stroke="#ffab70" />
      <line x1="217.5" y1="900" x2="217.5" y2="900" stroke="#d1d5da" />
      <line x1="222.5" y1="900" x2="237.5" y2="900" stroke="#79b8ff" />
      <line x1="242.5" y1="900" x2="312.5" y2="900" stroke="#d1d5da" />
    </g>
    <g class="code line">
      <line x1="112.5" y1="910" x2="112.5" y2="910" stroke="#d1d5da" />
      <line x1="122.5" y1="910" x2="137.5" y2="910" stroke="#f97583" />
      <line x1="147.5" y1="910" x2="147.5" y2="910" stroke="#d1d5da" />
    </g>
    <g class="code line">
      <line x1="132.5" y1="920" x2="167.5" y2="920" stroke="#d1d5da" />
      <line x1="177.5" y1="920" x2="182.5" y2="920" stroke="#f97583" />
      <line x1="192.5" y1="920" x2="202.5" y2="920" stroke="#ffab70" />
      <line x1="207.5" y1="920" x2="207.5" y2="920" stroke="#d1d5da" />
      <line x1="212.5" y1="920" x2="227.5" y2="920" stroke="#79b8ff" />
      <line x1="232.5" y1="920" x2="302.5" y2="920" stroke="#d1d5da" />
    </g>
    <g class="code line">
      <line x1="112.5" y1="930" x2="112.5" y2="930" stroke="#d1d5da" />
    </g>
    <g class="code line">
    </g>
    <g class="code line">
      <line x1="112.5" y1="950" x2="117.5" y2="950" stroke="#f97583" />
      <line x1="127.5" y1="950" x2="152.5" y2="950" stroke="#d1d5da" />
      <line x1="162.5" y1="950" x2="162.5" y2="950" stroke="#d1d5da" />
    </g>
    <g class="code line">
      <line x1="132.5" y1="960" x2="167.5" y2="960" stroke="#d1d5da" />
      <line x1="177.5" y1="960" x2="182.5" y2="960" stroke="#f97583" />
      <line x1="192.5" y1="960" x2="207.5" y2="960" stroke="#ffab70" />
    </g>
    <g class="code line">
      <line x1="112.5" y1="970" x2="112.5" y2="970" stroke="#d1d5da" />
    </g>
    <g class="code line">
    </g>
    <g class="code line">
      <line x1="112.5" y1="990" x2="147.5" y2="990" stroke="#d1d5da" />
      <line x1="157.5" y1="990" x2="162.5" y2="990" stroke="#f97583" />
      <line x1="172.5" y1="990" x2="242.5" y2="990" stroke="#d1d5da" />
      <line x1="252.5" y1="990" x2="252.5" y2="990" stroke="#f97583" />
      <line x1="262.5" y1="990" x2="272.5" y2="990" stroke="#ffab70" />
    </g>
    <g class="code line">
      <line x1="92.5" y1="1000" x2="92.5" y2="1000" stroke="#d1d5da" />
    </g>
    <g class="code line">
    </g>
    <g class="code line">
      <line x1="92.5" y1="1020" x2="117.5" y2="1020" stroke="#f97583" />
      <line x1="127.5" y1="1020" x2="162.5" y2="1020" stroke="#d1d5da" />
    </g>
    <g class="code line">
      <line x1="72.5" y1="1030" x2="72.5" y2="1030" stroke="#d1d5da" />
    </g>
    <g class="code line">
    </g>
    <g class="code line">
      <line x1="72.5" y1="1050" x2="82.5" y2="1050" stroke="#f97583" />
      <line x1="92.5" y1="1050" x2="147.5" y2="1050" stroke="#d1d5da" />
      <line x1="157.5" y1="1050" x2="182.5" y2="1050" stroke="#79b8ff" />
      <line x1="192.5" y1="1050" x2="192.5" y2="1050" stroke="#d1d5da" />
    </g>
    <g class="code line">
      <line x1="92.5" y1="1060" x2="117.5" y2="1060" stroke="#f97583" />
      <line x1="127.5" y1="1060" x2="142.5" y2="1060" stroke="#79b8ff" />
      <line x1="147.5" y1="1060" x2="147.5" y2="1060" stroke="#d1d5da" />
      <line x1="152.5" y1="1060" x2="177.5" y2="1060" stroke="#79b8ff" />
      <line x1="182.5" y1="1060" x2="182.5" y2="1060" stroke="#d1d5da" />
      <line x1="187.5" y1="1060" x2="212.5" y2="1060" stroke="#79b8ff" />
      <line x1="217.5" y1="1060" x2="217.5" y2="1060" stroke="#d1d5da" />
      <line x1="227.5" y1="1060" x2="242.5" y2="1060" stroke="#79b8ff" />
      <line x1="247.5" y1="1060" x2="247.5" y2="1060" stroke="#d1d5da" />
    </g>
    <g class="code line">
      <line x1="72.5" y1="1070" x2="72.5" y2="1070" stroke="#d1d5da" />
    </g>
    <g class="code line">
    </g>
    <g class="code line">
      <line x1="72.5" y1="1090" x2="82.5" y2="1090" stroke="#f97583" />
      <line x1="92.5" y1="1090" x2="172.5" y2="1090" stroke="#d1d5da" />
      <line x1="182.5" y1="1090" x2="207.5" y2="1090" stroke="#79b8ff" />
      <line x1="217.5" y1="1090" x2="217.5" y2="1090" stroke="#d1d5da" />
    </g>
    <g class="code line">
      <line x1="92.5" y1="1100" x2="117.5" y2="1100" stroke="#f97583" />
      <line x1="127.5" y1="1100" x2="272.5" y2="1100" stroke="#ffab70" />
      <line x1="282.5" y1="1100" x2="317.5" y2="1100" stroke="#ffab70" />
    </g>
    <g class="code line">
      <line x1="72.5" y1="1110" x2="72.5" y2="1110" stroke="#d1d5da" />
    </g>
    <g class="code line">
      <line x1="47.5" y1="1120" x2="57.5" y2="1120" stroke="#d1d5da" />
    </g>
    <g class="code line">
      <line x1="47.5" y1="1160" x2="67.5" y2="1160" stroke="#f97583" />
      <line x1="72.5" y1="1160" x2="97.5" y2="1160" stroke="#d1d5da" />
      <line x1="107.5" y1="1160" x2="137.5" y2="1160" stroke="#d1d5da" />
      <line x1="147.5" y1="1160" x2="147.5" y2="1160" stroke="#f97583" />
      <line x1="157.5" y1="1160" x2="157.5" y2="1160" stroke="#d1d5da" />
    </g>
    <g class="code line">
      <line x1="72.5" y1="1170" x2="102.5" y2="1170" stroke="#79b8ff" />
      <line x1="107.5" y1="1170" x2="107.5" y2="1170" stroke="#d1d5da" />
      <line x1="112.5" y1="1170" x2="127.5" y2="1170" stroke="#79b8ff" />
      <line x1="132.5" y1="1170" x2="132.5" y2="1170" stroke="#d1d5da" />
      <line x1="142.5" y1="1170" x2="167.5" y2="1170" stroke="#ffab70" />
      <line x1="172.5" y1="1170" x2="172.5" y2="1170" stroke="#d1d5da" />
      <line x1="182.5" y1="1170" x2="222.5" y2="1170" stroke="#79b8ff" />
      <line x1="227.5" y1="1170" x2="227.5" y2="1170" stroke="#d1d5da" />
      <line x1="237.5" y1="1170" x2="237.5" y2="1170" stroke="#d1d5da" />
      <line x1="242.5" y1="1170" x2="257.5" y2="1170" stroke="#ffab70" />
      <line x1="267.5" y1="1170" x2="267.5" y2="1170" stroke="#f97583" />
      <line x1="277.5" y1="1170" x2="307.5" y2="1170" stroke="#79b8ff" />
      <line x1="312.5" y1="1170" x2="317.5" y2="1170" stroke="#d1d5da" />
      <line x1="327.5" y1="1170" x2="372.5" y2="1170" stroke="#79b8ff" />
      <line x1="377.5" y1="1170" x2="377.5" y2="1170" stroke="#d1d5da" />
      <line x1="387.5" y1="1170" x2="387.5" y2="1170" stroke="#d1d5da" />
    </g>
    <g class="code line">
      <line x1="92.5" y1="1180" x2="107.5" y2="1180" stroke="#ffab70" />
      <line x1="112.5" y1="1180" x2="112.5" y2="1180" stroke="#d1d5da" />
    </g>
    <g class="code line">
      <line x1="92.5" y1="1190" x2="117.5" y2="1190" stroke="#ffab70" />
      <line x1="122.5" y1="1190" x2="122.5" y2="1190" stroke="#d1d5da" />
    </g>
    <g class="code line">
      <line x1="92.5" y1="1200" x2="167.5" y2="1200" stroke="#ffab70" />
      <line x1="172.5" y1="1200" x2="172.5" y2="1200" stroke="#d1d5da" />
    </g>
    <g class="code line">
      <line x1="92.5" y1="1210" x2="122.5" y2="1210" stroke="#79b8ff" />
      <line x1="127.5" y1="1210" x2="127.5" y2="1210" stroke="#d1d5da" />
      <line x1="132.5" y1="1210" x2="147.5" y2="1210" stroke="#79b8ff" />
      <line x1="152.5" y1="1210" x2="152.5" y2="1210" stroke="#d1d5da" />
      <line x1="162.5" y1="1210" x2="237.5" y2="1210" stroke="#ffab70" />
      <line x1="242.5" y1="1210" x2="242.5" y2="1210" stroke="#d1d5da" />
      <line x1="252.5" y1="1210" x2="292.5" y2="1210" stroke="#79b8ff" />
      <line x1="297.5" y1="1210" x2="297.5" y2="1210" stroke="#d1d5da" />
      <line x1="307.5" y1="1210" x2="307.5" y2="1210" stroke="#d1d5da" />
      <line x1="312.5" y1="1210" x2="337.5" y2="1210" stroke="#ffab70" />
      <line x1="347.5" y1="1210" x2="347.5" y2="1210" stroke="#f97583" />
      <line x1="357.5" y1="1210" x2="362.5" y2="1210" stroke="#79b8ff" />
      <line x1="367.5" y1="1210" x2="372.5" y2="1210" stroke="#d1d5da" />
      <line x1="382.5" y1="1210" x2="427.5" y2="1210" stroke="#79b8ff" />
      <line x1="432.5" y1="1210" x2="432.5" y2="1210" stroke="#d1d5da" />
      <line x1="442.5" y1="1210" x2="442.5" y2="1210" stroke="#d1d5da" />
    </g>
    <g class="code line">
      <line x1="112.5" y1="1220" x2="132.5" y2="1220" stroke="#ffab70" />
      <line x1="137.5" y1="1220" x2="137.5" y2="1220" stroke="#d1d5da" />
    </g>
    <g class="code line">
      <line x1="112.5" y1="1230" x2="142.5" y2="1230" stroke="#ffab70" />
      <line x1="147.5" y1="1230" x2="147.5" y2="1230" stroke="#d1d5da" />
    </g>
    <g class="code line">
      <line x1="112.5" y1="1240" x2="147.5" y2="1240" stroke="#ffab70" />
      <line x1="152.5" y1="1240" x2="152.5" y2="1240" stroke="#d1d5da" />
    </g>
    <g class="code line">
      <line x1="92.5" y1="1250" x2="102.5" y2="1250" stroke="#d1d5da" />
    </g>
    <g class="code line">
      <line x1="72.5" y1="1260" x2="77.5" y2="1260" stroke="#d1d5da" />
    </g>
    <g class="code line">
      <line x1="47.5" y1="1270" x2="57.5" y2="1270" stroke="#d1d5da" />
    </g>
    <g class="code line">
      <line x1="47.5" y1="1290" x2="82.5" y2="1290" stroke="#d1d5da" />
      <line x1="82.5" y1="1290" x2="107.5" y2="1290" stroke="#79b8ff" />
      <line x1="112.5" y1="1290" x2="112.5" y2="1290" stroke="#d1d5da" />
      <line x1="117.5" y1="1290" x2="142.5" y2="1290" stroke="#79b8ff" />
      <line x1="147.5" y1="1290" x2="147.5" y2="1290" stroke="#d1d5da" />
      <line x1="157.5" y1="1290" x2="172.5" y2="1290" stroke="#79b8ff" />
      <line x1="177.5" y1="1290" x2="177.5" y2="1290" stroke="#d1d5da" />
    </g>
    <g class="code line">
      <line x1="47.5" y1="1300" x2="82.5" y2="1300" stroke="#d1d5da" />
      <line x1="82.5" y1="1300" x2="107.5" y2="1300" stroke="#79b8ff" />
      <line x1="112.5" y1="1300" x2="112.5" y2="1300" stroke="#d1d5da" />
      <line x1="117.5" y1="1300" x2="142.5" y2="1300" stroke="#79b8ff" />
      <line x1="147.5" y1="1300" x2="147.5" y2="1300" stroke="#d1d5da" />
      <line x1="157.5" y1="1300" x2="177.5" y2="1300" stroke="#79b8ff" />
      <line x1="182.5" y1="1300" x2="182.5" y2="1300" stroke="#d1d5da" />
    </g>
  </g>  <g class="line numbers" stroke="#959da5" stroke-linecap="square" stroke-width="5">
      <line x1="32.5" y1="50" x2="32.5" y2="50" />
      <line x1="32.5" y1="60" x2="32.5" y2="60" />
      <line x1="32.5" y1="70" x2="32.5" y2="70" />
      <line x1="32.5" y1="80" x2="32.5" y2="80" />
      <line x1="32.5" y1="90" x2="32.5" y2="90" />
      <line x1="32.5" y1="100" x2="32.5" y2="100" />
      <line x1="32.5" y1="110" x2="32.5" y2="110" />
      <line x1="32.5" y1="120" x2="32.5" y2="120" />
      <line x1="32.5" y1="130" x2="32.5" y2="130" />
      <line x1="32.5" y1="140" x2="27.5" y2="140" />
      <line x1="32.5" y1="150" x2="27.5" y2="150" />
      <line x1="32.5" y1="160" x2="27.5" y2="160" />
      <line x1="32.5" y1="170" x2="27.5" y2="170" />
      <line x1="32.5" y1="180" x2="27.5" y2="180" />
      <line x1="32.5" y1="190" x2="27.5" y2="190" />
      <line x1="32.5" y1="200" x2="27.5" y2="200" />
      <line x1="32.5" y1="210" x2="27.5" y2="210" />
      <line x1="32.5" y1="220" x2="27.5" y2="220" />
      <line x1="32.5" y1="230" x2="27.5" y2="230" />
      <line x1="32.5" y1="240" x2="27.5" y2="240" />
      <line x1="32.5" y1="250" x2="27.5" y2="250" />
      <line x1="32.5" y1="260" x2="27.5" y2="260" />
      <line x1="32.5" y1="270" x2="27.5" y2="270" />
      <line x1="32.5" y1="280" x2="27.5" y2="280" />
      <line x1="32.5" y1="290" x2="27.5" y2="290" />
      <line x1="32.5" y1="300" x2="27.5" y2="300" />
      <line x1="32.5" y1="310" x2="27.5" y2="310" />
      <line x1="32.5" y1="320" x2="27.5" y2="320" />
      <line x1="32.5" y1="330" x2="27.5" y2="330" />
      <line x1="32.5" y1="340" x2="27.5" y2="340" />
      <line x1="32.5" y1="350" x2="27.5" y2="350" />
      <line x1="32.5" y1="360" x2="27.5" y2="360" />
      <line x1="32.5" y1="370" x2="27.5" y2="370" />
      <line x1="32.5" y1="380" x2="27.5" y2="380" />
      <line x1="32.5" y1="390" x2="27.5" y2="390" />
      <line x1="32.5" y1="400" x2="27.5" y2="400" />
      <line x1="32.5" y1="410" x2="27.5" y2="410" />
      <line x1="32.5" y1="420" x2="27.5" y2="420" />
      <line x1="32.5" y1="430" x2="27.5" y2="430" />
      <line x1="32.5" y1="440" x2="27.5" y2="440" />
      <line x1="32.5" y1="450" x2="27.5" y2="450" />
      <line x1="32.5" y1="460" x2="27.5" y2="460" />
      <line x1="32.5" y1="470" x2="27.5" y2="470" />
      <line x1="32.5" y1="480" x2="27.5" y2="480" />
      <line x1="32.5" y1="490" x2="27.5" y2="490" />
      <line x1="32.5" y1="500" x2="27.5" y2="500" />
      <line x1="32.5" y1="510" x2="27.5" y2="510" />
      <line x1="32.5" y1="520" x2="27.5" y2="520" />
      <line x1="32.5" y1="530" x2="27.5" y2="530" />
      <line x1="32.5" y1="540" x2="27.5" y2="540" />
      <line x1="32.5" y1="550" x2="27.5" y2="550" />
      <line x1="32.5" y1="560" x2="27.5" y2="560" />
      <line x1="32.5" y1="570" x2="27.5" y2="570" />
      <line x1="32.5" y1="580" x2="27.5" y2="580" />
      <line x1="32.5" y1="590" x2="27.5" y2="590" />
      <line x1="32.5" y1="600" x2="27.5" y2="600" />
      <line x1="32.5" y1="610" x2="27.5" y2="610" />
      <line x1="32.5" y1="620" x2="27.5" y2="620" />
      <line x1="32.5" y1="630" x2="27.5" y2="630" />
      <line x1="32.5" y1="640" x2="27.5" y2="640" />
      <line x1="32.5" y1="650" x2="27.5" y2="650" />
      <line x1="32.5" y1="660" x2="27.5" y2="660" />
      <line x1="32.5" y1="670" x2="27.5" y2="670" />
      <line x1="32.5" y1="680" x2="27.5" y2="680" />
      <line x1="32.5" y1="690" x2="27.5" y2="690" />
      <line x1="32.5" y1="700" x2="27.5" y2="700" />
      <line x1="32.5" y1="710" x2="27.5" y2="710" />
      <line x1="32.5" y1="720" x2="27.5" y2="720" />
      <line x1="32.5" y1="730" x2="27.5" y2="730" />
      <line x1="32.5" y1="740" x2="27.5" y2="740" />
      <line x1="32.5" y1="750" x2="27.5" y2="750" />
      <line x1="32.5" y1="760" x2="27.5" y2="760" />
      <line x1="32.5" y1="770" x2="27.5" y2="770" />
      <line x1="32.5" y1="780" x2="27.5" y2="780" />
      <line x1="32.5" y1="790" x2="27.5" y2="790" />
      <line x1="32.5" y1="800" x2="27.5" y2="800" />
      <line x1="32.5" y1="810" x2="27.5" y2="810" />
      <line x1="32.5" y1="820" x2="27.5" y2="820" />
      <line x1="32.5" y1="830" x2="27.5" y2="830" />
      <line x1="32.5" y1="840" x2="27.5" y2="840" />
      <line x1="32.5" y1="850" x2="27.5" y2="850" />
      <line x1="32.5" y1="860" x2="27.5" y2="860" />
      <line x1="32.5" y1="870" x2="27.5" y2="870" />
      <line x1="32.5" y1="880" x2="27.5" y2="880" />
      <line x1="32.5" y1="890" x2="27.5" y2="890" />
      <line x1="32.5" y1="900" x2="27.5" y2="900" />
      <line x1="32.5" y1="910" x2="27.5" y2="910" />
      <line x1="32.5" y1="920" x2="27.5" y2="920" />
      <line x1="32.5" y1="930" x2="27.5" y2="930" />
      <line x1="32.5" y1="940" x2="27.5" y2="940" />
      <line x1="32.5" y1="950" x2="27.5" y2="950" />
      <line x1="32.5" y1="960" x2="27.5" y2="960" />
      <line x1="32.5" y1="970" x2="27.5" y2="970" />
      <line x1="32.5" y1="980" x2="27.5" y2="980" />
      <line x1="32.5" y1="990" x2="27.5" y2="990" />
      <line x1="32.5" y1="1000" x2="27.5" y2="1000" />
      <line x1="32.5" y1="1010" x2="27.5" y2="1010" />
      <line x1="32.5" y1="1020" x2="27.5" y2="1020" />
      <line x1="32.5" y1="1030" x2="27.5" y2="1030" />
      <line x1="32.5" y1="1040" x2="22.5" y2="1040" />
      <line x1="32.5" y1="1050" x2="22.5" y2="1050" />
      <line x1="32.5" y1="1060" x2="22.5" y2="1060" />
      <line x1="32.5" y1="1070" x2="22.5" y2="1070" />
      <line x1="32.5" y1="1080" x2="22.5" y2="1080" />
      <line x1="32.5" y1="1090" x2="22.5" y2="1090" />
      <line x1="32.5" y1="1100" x2="22.5" y2="1100" />
      <line x1="32.5" y1="1110" x2="22.5" y2="1110" />
      <line x1="32.5" y1="1120" x2="22.5" y2="1120" />
      <line x1="32.5" y1="1130" x2="22.5" y2="1130" />
      <line x1="32.5" y1="1140" x2="22.5" y2="1140" />
      <line x1="32.5" y1="1150" x2="22.5" y2="1150" />
      <line x1="32.5" y1="1160" x2="22.5" y2="1160" />
      <line x1="32.5" y1="1170" x2="22.5" y2="1170" />
      <line x1="32.5" y1="1180" x2="22.5" y2="1180" />
      <line x1="32.5" y1="1190" x2="22.5" y2="1190" />
      <line x1="32.5" y1="1200" x2="22.5" y2="1200" />
      <line x1="32.5" y1="1210" x2="22.5" y2="1210" />
      <line x1="32.5" y1="1220" x2="22.5" y2="1220" />
      <line x1="32.5" y1="1230" x2="22.5" y2="1230" />
      <line x1="32.5" y1="1240" x2="22.5" y2="1240" />
      <line x1="32.5" y1="1250" x2="22.5" y2="1250" />
      <line x1="32.5" y1="1260" x2="22.5" y2="1260" />
      <line x1="32.5" y1="1270" x2="22.5" y2="1270" />
      <line x1="32.5" y1="1280" x2="22.5" y2="1280" />
      <line x1="32.5" y1="1290" x2="22.5" y2="1290" />
      <line x1="32.5" y1="1300" x2="22.5" y2="1300" />
  </g>
</svg>