<?xml version="1.0" encoding="UTF-8"?><svg id="Layer_1" xmlns="http://www.w3.org/2000/svg" viewBox="0 0 489.17 135.55"><defs><style>.cls-1,.cls-2,.cls-3{stroke-width:0px;}.cls-2{fill:#d7007f;}.cls-3{fill:#0087af;}</style></defs><path class="cls-2" d="m397.42,106.97c-29.61,0-53.53-23.18-53.53-51.98S367.73,3.01,397.42,3.01V0c-27.9,0-56.05,10.33-73.7,23.59-11.8,8.79-18.06,19.77-18.06,31.4s6.26,22.78,18.06,31.56c17.65,13.1,45.72,23.59,73.7,23.59v-3.17h0Z"/><path class="cls-3" d="m471.12,23.67C453.46,10.33,425.4.08,397.42.08v3.01c29.61,0,53.53,23.18,53.53,51.98s-23.83,51.98-53.53,51.98v3.01c27.9,0,56.05-10.33,73.7-23.59,11.8-8.79,18.06-20.01,18.06-31.56s-6.26-22.45-18.06-31.24Z"/><path class="cls-1" d="m403.44,57.59c-2.36-1.3-5.12-2.11-5.12-3.66,0-.89.65-1.71,2.11-1.71,2.36,0,4.72,2.11,5.37,3.9h2.77v-6.02h-3.01v1.95c-1.71-1.46-3.9-2.36-6.02-2.36-4.07,0-7.97,2.11-7.97,6.02,0,3.01,1.46,4.96,4.72,6.67,4.07,2.11,5.78,2.77,5.78,4.47,0,1.06-.89,1.71-1.95,1.71-1.71,0-4.47-1.3-5.37-4.07h-3.25v6.43h3.01v-1.95c1.71,1.46,4.31,2.36,6.26,2.36,5.78,0,7.97-3.66,7.97-6.67.08-4.07-2.68-5.78-5.29-7.08Zm25.14-1.3c0-5.12-3.9-6.67-6.43-6.67-3.25,0-5.78,1.3-7.08,2.36v-1.95h-2.77v6.02h2.6c.41-1.06,2.11-3.25,4.07-3.25,1.06,0,2.11.89,2.11,2.77v2.36c-1.06-.89-2.6-1.3-3.9-1.3-2.36,0-6.26,2.11-6.26,7.73,0,3.9,1.95,6.91,5.78,6.91.89,0,1.71-.24,2.6-.65s1.46-1.06,1.95-1.71v1.95h9.68v-2.77h-2.11v-11.8h-.24Zm-7.73,8.62c0,2.11-.89,2.77-1.46,2.77-1.06,0-1.71-.89-1.71-2.77,0-3.01,1.06-4.72,2.36-4.72.65,0,.89.41.89,1.06v3.66h-.08,0Zm-51.08,3.01h-8.62v-11.8h4.31v2.77h3.66v-8.79h-3.66v2.77h-4.31v-10.09h7.97v4.07h3.66v-7.32h-23.59v3.25h2.77v25.14h-2.77v3.01h24.24v-7.97h-3.66v4.96h0Zm16.92-17.81h-10.74v2.77h2.6v15.21h-2.6v2.77h13.1v-2.77h-2.6l.24-17.98h0Zm-4.07-1.95c.89,0,1.71-.24,2.36-.65s1.3-1.3,1.71-1.95c.41-.89.41-1.71.24-2.6-.24-.89-.65-1.71-1.3-2.36s-1.46-1.06-2.36-1.3-1.71,0-2.6.24c-.89.41-1.46.89-1.95,1.71-.41.65-.65,1.46-.65,2.36,0,.65.24,1.06.41,1.71s.65,1.06.89,1.46c.41.41.89.65,1.46.89.49.49,1.14.49,1.79.49h0Zm60.6,19.93v-18.06h-10.74v2.77h2.6v15.21h-2.6v2.77h13.1v-2.77h-2.36v.08h0Zm-4.15-19.93c.89,0,1.71-.24,2.36-.65s1.3-1.3,1.71-1.95c.41-.89.41-1.71.24-2.6-.24-.89-.65-1.71-1.3-2.36-.65-.65-1.46-1.06-2.36-1.3s-1.71,0-2.6.24-1.46.89-1.95,1.71c-.24.89-.65,1.71-.65,2.6,0,.65.24,1.06.41,1.71.24.65.65,1.06.89,1.46.41.41.89.65,1.46.89s1.22.24,1.79.24h0Z"/><g id="layer1"><g id="g15946"><path id="path15948" class="cls-1" d="m216.06,125.58c-.39.05-.94.33-1.65.82-2.44,1.7-5.29,2.55-8.59,2.55-2.16,0-4.96-1.45-8.43-4.33l-3.58-3.03-.89-.76-5.47-4.72c-1.57-1.24-4.34-3.17-8.3-5.8,2.7-.7,5.23-1.59,7.59-2.66h-61.11c.9,1.04,1.93,1.57,3.12,1.57.62,0,1.52-.05,2.7-.15,1.05-.1,2.77-.15,5.11-.15,2.14,0,3.65.04,4.56.13l-.16.34c-1.84,3.83-2.84,7.71-2.99,11.66,0,.2-.01.39,0,.57h1.37-1.37c.05,1.26.53,1.88,1.45,1.88.6,0,1.03-.61,1.29-1.88h0c.05-.27.1-.56.14-.89.43-3.58,1.65-6.62,3.64-9.14s4.2-3.77,6.59-3.77c2.74,0,7.07,2.02,12.93,6.05l9.88,6.81c.27.19.69.49,1.26.93,1.66,1.23,4.61,3.44,8.86,6.66,6.38,4.86,11.93,7.27,16.64,7.27,3.49,0,7.12-1,10.9-3.03,3.77-2.02,5.63-3.95,5.55-5.8-.04-.8-.38-1.18-1.07-1.12"/></g><g id="g15950"><path id="path15952" class="cls-1" d="m280.79,105.76c-3.73-.86-6.19-2.06-7.41-3.57-1.21-1.5-2.74-5.34-4.58-11.51l-1.31-4.14-8.36-27.73L242.13,2.36c-.43-1.47-.95-2.22-1.57-2.22s-1.18.76-1.69,2.3l-19.55,56.38h4.91c.06-.52.3-1.38.76-2.6l11.47-33c.36-1.02.67-1.5.94-1.45.55.05,1.07.89,1.54,2.5l.47,1.6,9.25,30.19.29,1.37c.14.57.23,1.04.27,1.38h4.5-4.5c.03.14.03.27.03.37,0,1.27-.99,1.9-2.94,1.9h-17.79l-1.59-.08c-1.81,0-2.72-.67-2.72-1.98,0-.06,0-.14.01-.22h-4.91l-10.71,30.87-1.71,5.05c-.86,2.35-1.97,4.61-3.3,6.78-1.33,2.16-2.4,3.4-3.18,3.71l-2.17.85c-.63.25-.98.77-1,1.56v.13c0,.96.53,1.45,1.59,1.45.19,0,1.28-.16,3.27-.51.62-.09,1.51-.13,2.64-.13,2.46,0,4.63.05,6.51.15l5.63.38c.9.05,1.56.09,1.99.09,1.14,0,1.67-.43,1.65-1.31,0-.09-.03-.19-.04-.28h-2.91,2.91c-.13-.76-.74-1.28-1.8-1.56-2.72-.76-4.54-1.67-5.47-2.75-.93-1.07-1.38-2.79-1.38-5.18s.88-6.31,2.64-11.45l3.91-11.2c1.17-3.45,2.12-5.49,2.82-6.1.71-.61,2.51-.93,5.42-.93h21.32c2.21,0,3.53.22,4.01.66.47.43,1.12,2.06,1.95,4.86l2.96,10.09c2.41,8.06,3.62,13.43,3.62,16.13,0,2.96-.99,4.68-2.96,5.2l-1.83.53c-.99.27-1.48.82-1.48,1.65v.06c.03,1.05.53,1.57,1.52,1.57.39,0,1-.11,1.83-.32,1.37-.3,4.78-.47,10.23-.47s8.84.11,10.89.34c1.14.09,1.89.13,2.23.13,1.05,0,1.6-.42,1.65-1.26h0c.04-.95-.55-1.57-1.76-1.88"/></g><g id="g15954"><path id="path15956" class="cls-1" d="m175.69,106.38c-8.44,0-16.05-4-22.87-12-7.64-9.03-12.07-20.89-13.3-35.55-.23-2.8-.36-5.71-.36-8.73,0-12.96,2.68-23.47,8.03-31.56,5.37-8.08,12.33-12.12,20.91-12.12,10.16,0,18.79,5.55,25.91,16.64,6.41,10,9.92,21.91,10.56,35.77.06,1.52.11,3.08.11,4.66,0,12.8-2.68,23.14-8.01,31.05-5.34,7.91-12.33,11.85-21,11.85m32.09-22.1c3.25-7.74,5.02-16.23,5.32-25.45.04-.93.04-1.85.04-2.78,0-16.03-3.86-29.06-11.57-39.1-7.71-10.05-17.69-15.07-29.95-15.07-13.82,0-24.53,6.01-32.14,18.06-6.4,10.16-9.59,22.49-9.59,36.98,0,.65,0,1.28.03,1.92.39,17.3,6.2,31.6,17.42,42.85-1.6.85-3.06,2.27-4.42,4.24l-2-.55c-3.84-1.02-7.4-3.76-10.66-8.2l-28.21-38.36h-22.1v29.48c0,6.42-.49,10.98-1.45,13.69-.22.6-.46,1.12-.75,1.6-.69-.43-1.23-.9-1.64-1.4-1.22-1.51-2.74-5.35-4.58-11.52l-1.29-4.14-8.35-27.73L44.87,2.36c-.43-1.48-.95-2.22-1.57-2.22s-1.18.77-1.69,2.3l-19.54,56.38h4.9c.06-.51.3-1.38.76-2.6l11.48-33c.36-1.02.66-1.5.94-1.45.55.05,1.05.89,1.52,2.5l.48,1.61,9.24,30.17.29,1.38c.14.57.23,1.03.27,1.38h4.52-4.52c.01.14.03.27.03.37,0,1.27-.98,1.9-2.94,1.9h-17.78l-1.59-.08c-1.81,0-2.72-.67-2.72-1.98,0-.06,0-.14.01-.22h-4.9l-10.71,30.87-1.71,5.05c-.86,2.33-1.97,4.59-3.3,6.76-1.33,2.16-2.39,3.4-3.17,3.71l-2.17.85c-.63.25-.98.77-1,1.56v.13c0,.96.52,1.45,1.59,1.45.19,0,1.28-.16,3.29-.51.62-.09,1.5-.13,2.64-.13,2.46,0,4.63.05,6.51.15l5.62.38c.9.05,1.57.09,1.99.09,1.14,0,1.67-.43,1.64-1.31,0-.09-.01-.19-.03-.27h-2.89,2.89c-.14-.77-.74-1.29-1.8-1.56-2.73-.76-4.54-1.67-5.47-2.74-.93-1.08-1.4-2.8-1.4-5.19s.88-6.31,2.64-11.45l3.91-11.22c1.18-3.45,2.12-5.49,2.82-6.1.71-.61,2.51-.93,5.42-.93h21.32c2.2,0,3.53.22,4,.66.47.43,1.12,2.06,1.94,4.86l2.97,10.09c2.4,8.06,3.6,13.43,3.6,16.13,0,2.94-.99,4.68-2.96,5.19l-1.83.53c-.99.27-1.48.81-1.48,1.65v.08c.03,1.04.53,1.57,1.52,1.57.39,0,1-.1,1.83-.32,1.38-.3,4.78-.47,10.24-.47,2.82,0,5.39-.04,7.49-.03,1.54.06,17.09.71,18.32.89,1.57.2,2.64.33,3.2.39.98.04,1.45-.44,1.42-1.5-.01-.2-.05-.38-.13-.55-.23-.53-.77-.9-1.65-1.09-4.35-.91-7.14-2.32-8.36-4.21-1.21-1.89-1.83-5.76-1.83-11.62v-28c0-1.17.37-1.76,1.09-1.76.48,0,.96.28,1.45.85l1.18,1.69,31.61,42.31,1,1.43c.1.15.22.29.34.43h61.11c2.28-1.05,4.4-2.27,6.36-3.69,6.2-4.59,11.09-11.14,14.66-19.67"/></g><g id="g15958"><path id="path15960" class="cls-1" d="m98.16,52.26c.04-.62.49-1.43,1.35-2.46l20.12-23.73c10.02-11.71,16.8-18.16,20.34-19.34,1.93-.6,2.87-1.31,2.83-2.11-.08-1-.65-1.5-1.71-1.5-.32,0-.91.11-1.83.32-.79.15-2.42.23-4.9.23l-4.43.08-5.43-.2c-2.04,0-3.9-.09-5.55-.28-.71-.1-1.24-.14-1.6-.14-1.22,0-1.83.52-1.83,1.55,0,.93.9,1.56,2.68,1.9,2.83.67,4.24,2.17,4.24,4.52,0,2.72-1.94,6.31-5.82,10.81l-25.28,29.49-.88.93-.94.84c-.36,0-.53-.53-.53-1.62v-30.04c0-5.24.33-8.74.99-10.51.65-1.78,2.22-3.35,4.71-4.75.95-.48,1.42-1.07,1.42-1.75,0-.98-.47-1.43-1.42-1.38-.32,0-1.27.14-2.84.39-.86.06-1.89.1-3.07.1l-4.43.19-2.2.1c-4.3,0-7.45-.18-9.47-.53-.82-.18-1.54-.27-2.13-.27-1.07,0-1.6.52-1.6,1.57,0,.75.51,1.27,1.54,1.56l2.89.77c2.55.71,4.29,2.16,5.19,4.34.91,2.2,1.36,6.03,1.36,11.51v35.94h22.09l-2.46-3.35c-.98-1.38-1.45-2.46-1.41-3.22"/></g></g></svg>